<?xml version="1.0" encoding="UTF-8" standalone="no"?>
<!-- Created with Inkscape (http://www.inkscape.org/) -->

<svg
   version="1.1"
   id="svg824"
   width="894.1568"
   height="744"
   viewBox="0 0 894.1568 744"
   sodipodi:docname="ico-fechar-caixa2.svg"
   inkscape:version="1.1.2 (b8e25be833, 2022-02-05)"
   xmlns:inkscape="http://www.inkscape.org/namespaces/inkscape"
   xmlns:sodipodi="http://sodipodi.sourceforge.net/DTD/sodipodi-0.dtd"
   xmlns="http://www.w3.org/2000/svg"
   xmlns:svg="http://www.w3.org/2000/svg">
  <defs
     id="defs828" />
  <sodipodi:namedview
     id="namedview826"
     pagecolor="#ffffff"
     bordercolor="#666666"
     borderopacity="1.0"
     inkscape:pageshadow="2"
     inkscape:pageopacity="0.0"
     inkscape:pagecheckerboard="0"
     showgrid="false"
     inkscape:zoom="0.38418367"
     inkscape:cx="499.76096"
     inkscape:cy="253.78486"
     inkscape:window-width="1920"
     inkscape:window-height="991"
     inkscape:window-x="-9"
     inkscape:window-y="-9"
     inkscape:window-maximized="1"
     inkscape:current-layer="g830" />
  <g
     inkscape:groupmode="layer"
     inkscape:label="Image"
     id="g830"
     transform="translate(-2.532092,-209.97078)">
    <path
       style="fill:#020202;stroke:none"
       d="m 528.49269,226.97078 c -117.371,0 -234.60699,1 -351.99999,1 -28.355,0 -56.72001,-0.278 -85.000008,0.961 -7.7658,0.34 -24.2527,-3.402 -29.142,4.098 -2.8795,4.417 -1.858,10.933 -1.858,15.941 v 35 c 0,43.597 -1,87.337 -1,131 0,24.30278 -3.482981,88.51471 -3.482981,88.51471 L 2.532092,846.97078 c 0,0 0.9606,39.479 0.9606,59 0,10.396 0.7154,20.661 0.9853,31 0.1124,4.305 -0.478,10.226 3.3179,13.258 3.9711,3.171 13.7327,2.313 18.6968,2.653 27.0899,1.855 68.842,-0.039 95.999998,0.09 44.94301,0.214 89.99701,0.999 135.00001,0.999 h 402.99999 c 50.965,0 101.985,-1 153,-1 13.397,0 50.662,0 64,-0.911 3.747,-0.256 10.351,1.269 13.258,-1.692 2.406,-2.452 2.431,-8.16 2.653,-11.397 0.703,-10.263 -0.017,-20.714 0.093,-31 0.445,-41.711 3.19223,-92.76494 3.19223,-92.76494 l -64.97018,-319.863 c 0,0 -3.22605,-64.22012 -3.22605,-96.37206 0,-40.304 -2,-80.72 -2,-121 0,-10.727 -0.72,-21.332 -0.985,-32 -0.098,-3.927 0.749,-10.145 -2.003,-13.4 -2.399,-2.838 -8.652,-2.556 -12.012,-2.596 -10.363,-0.123 -20.606,-1.004 -31,-1.004 -41.3,0 -82.706,-2 -124,-2 m -45,-17 h -43 m -210,59 v 125 33 l -1.028,12.397 -15.972,1.603 H 294.4927 102.49269 v -172 h 256 m 426,0 v 172 h -384 v -172 h 384 m -277,51.424 c 0,0 -44.221,-1.71 -66,0.862 -11.326,1.337 -17.491,13.316 -17.87,26.714 -0.2678,38.4958 30.9913,32 66.87,32 h 148 50 c 8.177,0 18.455,1.106 25.999,-2.688 20.75939,-27.60839 11.29125,-54.01049 -20.999,-56.223 -79.22697,3.61242 -186,-0.665 -186,-0.665 m -314.99999,-0.981 c -16.44,2.791 -23.409,57.756 -6.996,65.637 8.139,3.909 18.246,2.92 26.996,2.92 h 50 c 7.913,0 37.541,2.151 45,-0.603 16.129,-5.957 16.97,-61.214 0.83,-67.794 -30.94346,-0.73704 -89.21872,-4.34683 -115.83,-0.16 m 258.99999,205.387 c 11.266,1.072 22.734,-0.737 34,0.34 4.591,0.438 10.181,0.674 12.911,4.939 3.165,4.946 1.734,11.374 2.259,16.891 1.481,15.567 0.0629,-8.63018 0.83,7 l 8,163 v 48 c 0,8.322 1.148,15.85 -9,17.671 -29.938,5.371 -63.631,1.329 -94,1.329 h -179.99999 -104 c -6.807,0 -20.101,2.526 -25.815,-1.603 -5.9,-4.265 -12.174,-12.846 -12.185,-19.397 -0.022,-12.985 7,-39 7,-39 l 35.09,-179 c 0,0 0.435,-13.821 5.135,-17.397 3.146,-2.394 8.057,-1.539 11.775,-2.027 11.776,-1.547 24.13,-0.576 36,-0.576 m 419.99999,-0.4 c 9.627,-3.435 24.795,-0.6 35,-0.6 27.643,0 55.297,1 83,1 9.561,0 30.698,-4.154 36.387,5.019 13.81685,87.90683 31.3091,124.68057 41.613,213.981 1.76418,15.28956 3.6,31.383 -14,37.906 -11.759,4.358 -64.642,2.094 -77,2.094 h -78 c -10.617,0 -30.787,2.126 -37.397,-8.015 -5.836,-8.957 -1.4109,-31.41975 -1.603,-41.985 v -110 -64 c 0,-12.911 -3.456,-29.886 12,-35.4 m 28,26.4 v 44 h 95 l -6.47837,-44.92027 -88.52163,0.92027 m -456.99999,16 -20,89 h 182.99999 l -1,-88 -161.99999,-1 m 205.99999,0 v 89 h 90 l -8,-89 h -82 m 251,70 v 86 h 117 l -12,-86 h -105 m -476.99999,43 -8,43 h 108 v -30 l -1.028,-11.397 -20.972,-1.603 h -78 m 131,0 v 43 h 82.99999 v -43 H 281.4927 m 119.99999,0 v 43 h 63 v -43 h -63 m 444,188 v 43 H 45.492692 v -43 z"
       id="path914"
       sodipodi:nodetypes="cscssscccsscccsssscccccsscccsccccccccccccccccccccccscccccsscccccccscscscsccccccccssccssscscsccccccccccccccccccccccccccccccccccccccccccc" />
    <path
       style="fill:#ff7f2a;stroke:none;stroke-width:1.74742"
       d="m 317.94606,484.13871 h 251.73756 183.80836 c 16.64066,0 57.67005,4.99464 71.06209,-3.97829 10.77277,-7.21533 4.86085,-38.89951 4.86085,-49.51389 V 286.98182 c 0,-13.05623 6.93277,-48.83235 -10.25531,-56.76933 -12.42904,-5.73867 -31.99473,-2.50829 -45.68845,-3.74428 -48.27567,-4.35724 -99.22056,-1.09198 -147.84587,-1.09198 -163.67735,0 -327.71833,-2.58494 -491.45762,0.51066 -16.35696,0.30923 -57.933696,-4.95578 -68.504676,5.82327 -12.033454,12.26806 -4.341473,35.83289 -5.63013,50.21496 -4.149674,46.3609 0.179813,94.70073 0.179813,141.07967 0,12.8855 -7.210482,47.16177 5.478289,56.94319 12.055428,9.29389 52.713124,4.19073 68.446724,4.19073 H 317.94606 M 741.50448,291.56686 V 423.00479 L 673.5753,421.47644 H 547.70653 146.1252 V 291.56686 h 595.37928"
       id="path2778"
       sodipodi:nodetypes="ccscsscsssccscscccccccc" />
    <rect
       style="fill:#ff7f2a;stroke:none;stroke-width:8.56063;stroke-miterlimit:4;stroke-dasharray:none"
       id="rect4885"
       width="42"
       height="172"
       x="358.49268"
       y="268.97079" />
  </g>
</svg>
