<?xml version="1.0" encoding="UTF-8" standalone="no"?>
<svg
   xmlns:dc="http://purl.org/dc/elements/1.1/"
   xmlns:cc="http://creativecommons.org/ns#"
   xmlns:rdf="http://www.w3.org/1999/02/22-rdf-syntax-ns#"
   xmlns:svg="http://www.w3.org/2000/svg"
   xmlns="http://www.w3.org/2000/svg"
   xmlns:sodipodi="http://sodipodi.sourceforge.net/DTD/sodipodi-0.dtd"
   xmlns:inkscape="http://www.inkscape.org/namespaces/inkscape"
   sodipodi:docname="ico-user-search.svg"
   inkscape:version="1.0 (4035a4fb49, 2020-05-01)"
   id="svg851"
   version="1.1"
   viewBox="0 0 145.07442 160.34106"
   height="160.34106mm"
   width="145.07442mm">
  <defs
     id="defs845" />
  <sodipodi:namedview
     inkscape:window-maximized="0"
     inkscape:window-y="0"
     inkscape:window-x="0"
     inkscape:window-height="728"
     inkscape:window-width="1360"
     showgrid="false"
     inkscape:document-rotation="0"
     inkscape:current-layer="layer1"
     inkscape:document-units="mm"
     inkscape:cy="424.58605"
     inkscape:cx="264.66111"
     inkscape:zoom="0.24748737"
     inkscape:pageshadow="2"
     inkscape:pageopacity="0.0"
     borderopacity="1.0"
     bordercolor="#666666"
     pagecolor="#ffffff"
     id="base" />
  <metadata
     id="metadata848">
    <rdf:RDF>
      <cc:Work
         rdf:about="">
        <dc:format>image/svg+xml</dc:format>
        <dc:type
           rdf:resource="http://purl.org/dc/dcmitype/StillImage" />
        <dc:title></dc:title>
      </cc:Work>
    </rdf:RDF>
  </metadata>
  <g
     transform="translate(-10.88564,-70.604545)"
     id="layer1"
     inkscape:groupmode="layer"
     inkscape:label="Layer 1">
    <path
       sodipodi:nodetypes="ssccccccsccccssccccsss"
       transform="scale(0.26458333)"
       d="m 299.14258,266.86133 c -18.668,-0.22088 -37.55102,3.41775 -55,9.94531 -16.736,6.26084 -32.9521,15.79758 -45.9961,28.07617 -69.33889,65.2683 -62.6295,176.17163 14.9961,231.97461 -102.2149,34.57901 -172.000002,134.78301 -172.000002,242 h 40 c 0,-119.44796 106.051012,-224.19314 227.000002,-215.91015 43.70788,2.99242 82.9626,18.0953 117.3789,43.41406 12.59691,-5.09508 26.11395,-8.38108 40.37696,-10.25586 3.21152,-0.42214 6.39867,-0.68478 9.5625,-0.81641 -26.32761,-25.91132 -58.30619,-46.24884 -94.31836,-58.43164 77.08501,-55.41498 84.47735,-165.63369 15.98437,-231.02539 -12.7,-12.1253 -28.55038,-22.07232 -44.98437,-28.29101 -16.86599,-6.38235 -34.89799,-10.46549 -53,-10.67969 z m -2.72266,39.72656 c 9.34045,-0.0344 18.79917,1.41307 27.72266,3.64453 87.86501,21.9718 109.21298,141.99794 35,193.41992 -15.46299,10.71402 -33.43099,16.69892 -52,18.91993 -12.251,1.46498 -25.10201,-0.11476 -37,-3.08985 -87.86501,-21.97202 -109.213,-141.99822 -35,-193.41992 15.463,-10.7142 33.43099,-16.69912 52,-18.91992 3.06275,-0.3663 6.16386,-0.5432 9.27734,-0.55469 z"
       style="fill:#ffffff;stroke:none;stroke-width:0.999999"
       id="path1428" />
    <path
       style="fill:#ffffff;stroke:none;stroke-width:0.171196"
       d="m 130.54839,165.25743 c 7.51829,0.98823 14.07563,3.79247 19.11663,9.68857 10.63073,12.43396 7.34511,32.26112 -6.45207,40.85599 -5.85548,3.64763 -13.07736,5.04246 -19.85255,3.66835 -2.52658,-0.51238 -4.88801,-1.37223 -7.188,-2.52576 -0.68029,-0.34131 -1.96368,-1.42909 -2.73828,-1.09069 -1.31814,0.5759 -2.58287,2.43414 -3.59399,3.44589 l -8.0437,8.04875 c -1.875036,1.87621 -3.921386,4.04406 -6.845706,3.51662 -3.592964,-0.64784 -5.616566,-4.48042 -4.051451,-7.79787 0.802144,-1.70018 2.404541,-2.97582 3.709161,-4.28126 l 7.016846,-7.02124 c 0.99161,-0.99223 3.53255,-2.72151 3.84609,-4.11001 0.24217,-1.07203 -1.6214,-3.42278 -2.06158,-4.4525 -1.27159,-2.97548 -2.045,-6.35133 -2.12423,-9.59001 -0.37481,-15.30085 13.17799,-30.46912 29.26283,-28.35483 m 0,8.19613 c -2.20312,-0.26356 -4.5334,-0.007 -6.67456,0.52917 -15.81256,3.95655 -19.29428,25.44125 -5.98999,34.52332 2.71945,1.85653 5.8286,2.82581 9.07055,3.20991 2.20107,0.26065 4.54008,-0.0255 6.67457,-0.57282 15.8069,-4.05281 19.05149,-25.69659 5.6477,-34.59492 -2.61557,-1.73647 -5.62579,-2.72322 -8.72827,-3.09466 z"
       id="path1444" />
  </g>
</svg>
