<?xml version="1.0" encoding="UTF-8" standalone="no"?>
<svg
   viewBox="0 0 576 448"
   version="1.1"
   id="svg5316"
   sodipodi:docname="ico-pg-debito.svg"
   inkscape:version="1.1.2 (b8e25be833, 2022-02-05)"
   width="576"
   height="448"
   xmlns:inkscape="http://www.inkscape.org/namespaces/inkscape"
   xmlns:sodipodi="http://sodipodi.sourceforge.net/DTD/sodipodi-0.dtd"
   xmlns="http://www.w3.org/2000/svg"
   xmlns:svg="http://www.w3.org/2000/svg">
  <defs
     id="defs5320" />
  <sodipodi:namedview
     id="namedview5318"
     pagecolor="#ffffff"
     bordercolor="#666666"
     borderopacity="1.0"
     inkscape:pageshadow="2"
     inkscape:pageopacity="0.0"
     inkscape:pagecheckerboard="0"
     showgrid="false"
     inkscape:zoom="0.89216988"
     inkscape:cx="237.06247"
     inkscape:cy="280.77612"
     inkscape:window-width="1920"
     inkscape:window-height="991"
     inkscape:window-x="-9"
     inkscape:window-y="-9"
     inkscape:window-maximized="1"
     inkscape:current-layer="svg5316" />
  <!--! Font Awesome Free 6.0.0-beta2 by @fontawesome - https://fontawesome.com License - https://fontawesome.com/license/free (Icons: CC BY 4.0, Fonts: SIL OFL 1.1, Code: MIT License) -->
  <path
     d="M 512,448 H 63.99999 C 28.64999,448 0,419.34 0,384 v -32 h 576 v 32 c 0,35.34 -28.7,64 -64,64 z M 0,64 C 0,28.66 28.64999,0 63.99999,0 H 512 c 35.35,0 64,28.66 64,64 V 256 H 0 Z m 191.1,56 c 0,4.422 3.582,8 8,8 h 143.1 c 4.418,0 8,-3.578 8,-8 l 1.8,-16 c 0,-4.418 -3.582,-8 -8,-8 H 200 c -4.4,0 -8,3.6 -8,8 z m -128.00001,0 c 0,4.422 3.582,8 8,8 H 151.1 c 4.418,0 8,-3.578 8,-8 l 0.9,-16 c 0,-4.4 -3.6,-8 -8,-8 H 71.99999 c -4.42,0 -8,3.6 -8,8 z"
     id="path5314"
     style="fill:#ffffff" />
</svg>
