<?xml version="1.0" encoding="UTF-8" standalone="no"?>
<!-- Created with Inkscape (http://www.inkscape.org/) -->

<svg
   width="69.117119mm"
   height="63.659473mm"
   viewBox="0 0 69.117119 63.659473"
   version="1.1"
   id="svg5"
   sodipodi:docname="ico-pg-transferencia.svg"
   inkscape:version="1.1.2 (b8e25be833, 2022-02-05)"
   xmlns:inkscape="http://www.inkscape.org/namespaces/inkscape"
   xmlns:sodipodi="http://sodipodi.sourceforge.net/DTD/sodipodi-0.dtd"
   xmlns="http://www.w3.org/2000/svg"
   xmlns:svg="http://www.w3.org/2000/svg">
  <sodipodi:namedview
     id="namedview7"
     pagecolor="#ffffff"
     bordercolor="#666666"
     borderopacity="1.0"
     inkscape:pageshadow="2"
     inkscape:pageopacity="0.0"
     inkscape:pagecheckerboard="0"
     inkscape:document-units="mm"
     showgrid="false"
     inkscape:zoom="2.3019641"
     inkscape:cx="171.37539"
     inkscape:cy="123.1557"
     inkscape:window-width="1920"
     inkscape:window-height="991"
     inkscape:window-x="-9"
     inkscape:window-y="-9"
     inkscape:window-maximized="1"
     inkscape:current-layer="layer1" />
  <defs
     id="defs2" />
  <g
     inkscape:label="Camada 1"
     inkscape:groupmode="layer"
     id="layer1"
     transform="translate(-47.626269,-112.98413)">
    <path
       d="m 66.464458,116.40527 c -1.551947,-1.70886 -4.489378,-1.70886 -6.04261,0 L 49.26881,128.78878 c -1.643509,1.68309 -1.531477,4.29924 0.136912,5.83283 0.786344,0.72542 1.778589,1.08435 2.767122,1.08435 1.110449,0 2.215255,-0.45158 3.023238,-1.33899 l 4.148793,-4.56525 v 38.91996 c 0,2.29398 1.831074,4.13688 4.097541,4.13688 2.266473,0 4.09756,-1.84677 4.09756,-4.12783 v -38.92901 l 4.148777,4.56215 c 1.536592,1.67537 4.123176,1.80424 5.7878,0.25774 1.668484,-1.54004 1.779874,-4.15232 0.252143,-5.83412 z"
       id="path5012"
       style="fill:#ffffff;stroke-width:0.128459"
       sodipodi:nodetypes="ccccsccsssccccc" />
    <path
       d="m 103.20669,172.16045 c -1.55194,1.70885 -4.489372,1.70885 -6.042609,0 L 86.011042,159.77693 c -1.643509,-1.68308 -1.531478,-4.29923 0.136913,-5.83281 0.786342,-0.72544 1.778588,-1.08436 2.767122,-1.08436 1.110448,0 2.215253,0.45158 3.023238,1.33899 l 4.148782,4.56523 v -38.91995 c 0,-2.29398 1.831083,-4.13688 4.097543,-4.13688 2.26647,0 4.09757,1.84677 4.09757,4.12785 v 38.92898 l 4.14879,-4.56213 c 1.53658,-1.67537 4.12315,-1.80424 5.78778,-0.25773 1.66847,1.54001 1.77988,4.1523 0.25215,5.83411 z"
       id="path5120"
       style="fill:#ffffff;stroke-width:0.128459"
       sodipodi:nodetypes="ccccsccsssccccc" />
  </g>
</svg>
