<?xml version="1.0" encoding="UTF-8" standalone="no"?>
<!-- Created with Inkscape (http://www.inkscape.org/) -->

<svg
   version="1.1"
   id="svg824"
   width="894.1568"
   height="744"
   viewBox="0 0 894.1568 744"
   sodipodi:docname="ico-suplemento.svg"
   inkscape:version="1.1.2 (b8e25be833, 2022-02-05)"
   xmlns:inkscape="http://www.inkscape.org/namespaces/inkscape"
   xmlns:sodipodi="http://sodipodi.sourceforge.net/DTD/sodipodi-0.dtd"
   xmlns="http://www.w3.org/2000/svg"
   xmlns:svg="http://www.w3.org/2000/svg">
  <defs
     id="defs828" />
  <sodipodi:namedview
     id="namedview826"
     pagecolor="#ffffff"
     bordercolor="#666666"
     borderopacity="1.0"
     inkscape:pageshadow="2"
     inkscape:pageopacity="0.0"
     inkscape:pagecheckerboard="0"
     showgrid="false"
     inkscape:zoom="0.76836735"
     inkscape:cx="262.24436"
     inkscape:cy="453.5591"
     inkscape:window-width="1920"
     inkscape:window-height="991"
     inkscape:window-x="-9"
     inkscape:window-y="-9"
     inkscape:window-maximized="1"
     inkscape:current-layer="g830" />
  <g
     inkscape:groupmode="layer"
     inkscape:label="Image"
     id="g830"
     transform="translate(-2.532092,-209.97078)"
     style="display:inline">
    <path
       sodipodi:nodetypes="ssssscsssscccccsssccscsssscccccssscccc"
       style="fill:#ff7f2a;fill-opacity:1;stroke-width:1.23273"
       d="m 448.09723,724.79238 c 141.6412,0 256.40879,-114.76754 256.40879,-256.4087 0,-141.6412 -114.76759,-256.4088 -256.40879,-256.4088 -141.64115,0 -256.40873,114.7676 -256.40873,256.4088 0,141.64116 114.76758,256.4087 256.40873,256.4087 z m -27.3667,-392.74914 v -20.70995 c 0,-11.34116 9.12225,-20.46341 20.46342,-20.46341 h 13.68333 c 11.34118,0 20.46342,9.12225 20.46342,20.46341 v 20.95649 c 19.10738,0.9862 37.59841,7.51971 53.00758,18.98413 6.9033,5.05417 7.64297,15.16265 1.47928,21.07977 l -20.09357,19.10736 c -4.68445,4.56113 -11.71098,4.68443 -17.25832,1.23269 -6.65678,-4.19126 -14.05317,-6.2869 -21.94266,-6.2869 h -47.95335 c -11.09462,0 -20.09359,10.10843 -20.09359,22.55904 0,10.10844 6.16369,19.10738 14.91609,21.69611 l 76.79934,23.05215 c 31.68124,9.49209 53.87051,39.94064 53.87051,74.08729 0,41.91299 -32.5442,75.81316 -72.85459,76.9226 v 20.70996 c 0,11.34118 -9.12225,20.46347 -20.46342,20.46347 h -13.68332 c -11.34118,0 -20.4634,-9.12229 -20.4634,-20.46347 v -20.95641 c -19.1074,-0.9862 -37.59842,-7.5197 -53.00761,-18.98417 -6.90326,-5.05422 -7.6429,-15.1626 -1.47926,-21.07976 l 20.09358,-19.10733 c 4.68441,-4.5611 11.71096,-4.68441 17.25828,-1.23279 6.65677,4.19133 14.05319,6.28701 21.94266,6.28701 h 47.95336 c 11.09462,0 20.09358,-10.10848 20.09358,-22.55911 0,-10.10842 -6.16369,-19.1073 -14.91609,-21.69609 l -76.79936,-23.05214 c -31.68126,-9.49205 -53.87047,-39.94059 -53.87047,-74.08732 0.12348,-41.91296 32.54419,-75.81313 72.85458,-76.92263 z"
       id="path1523" />
    <path
       d="m 136.57037,634.97993 c -37.03368,0 -66.846593,29.81291 -66.846593,66.84656 v 168.90607 c 0,37.0337 29.812913,66.84652 66.846593,66.84652 h 624.17176 c 37.03371,0 66.84663,-29.81282 66.84663,-66.84652 V 701.82649 c 0,-37.03365 -29.81292,-66.84656 -66.84663,-66.84656 H 699.29097 A 315.05159,315.05159 0 0 1 447.20357,761.06295 315.05159,315.05159 0 0 1 195.11621,634.97993 Z"
       style="opacity:0.998;fill:none;stroke:#000000;stroke-width:30;stroke-linecap:round;stroke-linejoin:round;stroke-miterlimit:4;stroke-dasharray:none;stroke-opacity:1;paint-order:markers stroke fill"
       id="rect1534" />
    <path
       d="m 184.0565,731.9096 c -27.81148,0 -50.20033,12.38885 -50.20033,40.20031 v 62.84476 c 0,27.8115 22.38885,50.20028 50.20033,50.20028 h 536.73935 c 27.8115,0 50.20035,-22.38878 50.20035,-50.20028 v -62.84476 c 0,-27.81146 -22.38885,-44.20031 -50.20035,-44.20031 H 674.64737 C 629.9675,787.51348 515.82626,816.59504 441.33524,816.59519 366.84423,816.59503 272.70301,791.51347 228.02315,731.9096 Z"
       style="display:inline;opacity:0.998;fill:none;stroke:#000000;stroke-width:24.029;stroke-linecap:round;stroke-linejoin:round;stroke-miterlimit:4;stroke-dasharray:none;stroke-opacity:1;paint-order:markers stroke fill"
       id="rect1534-5"
       sodipodi:nodetypes="sssssssscccs" />
  </g>
  <g
     inkscape:groupmode="layer"
     id="layer1"
     inkscape:label="Image 1" />
</svg>
