<?xml version="1.0" encoding="UTF-8" standalone="no"?>
<svg
   viewBox="0 0 315.6304 315.63039"
   version="1.1"
   id="svg4450"
   sodipodi:docname="ico-pg-pix.svg"
   width="315.6304"
   height="315.6304"
   inkscape:version="1.1.2 (b8e25be833, 2022-02-05)"
   xmlns:inkscape="http://www.inkscape.org/namespaces/inkscape"
   xmlns:sodipodi="http://sodipodi.sourceforge.net/DTD/sodipodi-0.dtd"
   xmlns="http://www.w3.org/2000/svg"
   xmlns:svg="http://www.w3.org/2000/svg">
  <defs
     id="defs4454" />
  <sodipodi:namedview
     id="namedview4452"
     pagecolor="#ffffff"
     bordercolor="#666666"
     borderopacity="1.0"
     inkscape:pageshadow="2"
     inkscape:pageopacity="0.0"
     inkscape:pagecheckerboard="0"
     showgrid="false"
     inkscape:zoom="0.77773228"
     inkscape:cx="642.25185"
     inkscape:cy="253.94343"
     inkscape:window-width="1920"
     inkscape:window-height="991"
     inkscape:window-x="-9"
     inkscape:window-y="-9"
     inkscape:window-maximized="1"
     inkscape:current-layer="svg4450" />
  <path
     d="m 246.15279,241.4376 a 46.07,46.07 0 0 1 -32.78,-13.53 l -47.35,-47.38 a 9,9 0 0 0 -12.44,0 l -47.51,47.51 a 46.09,46.09 0 0 1 -32.780003,13.57 h -9.27 l 60.000003,60 a 48,48 0 0 0 67.81,0 l 60.12,-60.13 z"
     fill="#32bcad"
     id="path4402"
     style="fill:#ffffff;fill-opacity:1" />
  <path
     d="m 73.302787,73.997603 a 46.08,46.08 0 0 1 32.780003,13.57 l 47.51,47.519997 a 8.81,8.81 0 0 0 12.44,0 l 47.34,-47.339997 a 46,46 0 0 1 32.78,-13.58 h 5.7 l -60.12,-60.12 a 47.94,47.94 0 0 0 -67.81,0 l -59.900003,59.95 z"
     fill="#32bcad"
     id="path4404"
     style="fill:#ffffff;fill-opacity:1" />
  <path
     d="m 301.58279,123.9076 -36.33,-36.329997 a 7,7 0 0 1 -2.58,0.52 h -16.52 a 32.62,32.62 0 0 0 -22.93,9.5 l -47.34,47.309997 a 22.74,22.74 0 0 1 -32.13,0 L 96.232787,97.417603 a 32.62,32.62 0 0 0 -22.93,-9.51 h -20.28 a 7.12,7.12 0 0 1 -2.44,-0.49 l -36.56,36.489997 a 48,48 0 0 0 0,67.81 l 36.48,36.48 a 6.85,6.85 0 0 1 2.44,-0.49 h 20.36 a 32.63,32.63 0 0 0 22.93,-9.51 l 47.510003,-47.51 c 8.59,-8.58 23.56,-8.58 32.14,0 l 47.34,47.33 a 32.62,32.62 0 0 0 22.93,9.5 h 16.52 a 6.9,6.9 0 0 1 2.58,0.52 l 36.33,-36.33 a 47.94,47.94 0 0 0 0,-67.81"
     fill="#32bcad"
     id="path4406"
     style="fill:#ffffff;fill-opacity:1" />
</svg>
