<svg id="Camada_1" data-name="Camada 1" xmlns="http://www.w3.org/2000/svg" viewBox="0 0 315.63 315.63"><defs><style>.cls-1{fill:#32bcad;}</style></defs><title>ico-pix</title><path class="cls-1" d="M270.13,254.53A46.1,46.1,0,0,1,237.35,241L190,193.62a9,9,0,0,0-12.44,0l-47.51,47.51A46.08,46.08,0,0,1,97.27,254.7H88l60,60a48,48,0,0,0,67.81,0l60.12-60.13Z" transform="translate(-23.98 -13.09)"/><path class="cls-1" d="M97.28,87.09a46.08,46.08,0,0,1,32.78,13.57l47.51,47.52a8.81,8.81,0,0,0,12.44,0l47.34-47.34a46,46,0,0,1,32.78-13.58h5.7L215.71,27.14a47.94,47.94,0,0,0-67.8,0h0L88,87.09Z" transform="translate(-23.98 -13.09)"/><path class="cls-1" d="M325.56,137l-36.33-36.33a7.11,7.11,0,0,1-2.58.52H270.13a32.62,32.62,0,0,0-22.93,9.5L199.86,158a22.74,22.74,0,0,1-32.13,0l-47.52-47.49A32.59,32.59,0,0,0,97.28,101H77a7,7,0,0,1-2.44-.49L38,137a48,48,0,0,0,0,67.81l36.48,36.48a6.81,6.81,0,0,1,2.44-.49H97.28a32.63,32.63,0,0,0,22.93-9.51l47.51-47.51c8.59-8.58,23.56-8.58,32.14,0l47.34,47.33a32.62,32.62,0,0,0,22.93,9.5h16.52a6.91,6.91,0,0,1,2.58.52l36.33-36.33a47.94,47.94,0,0,0,0-67.8h0" transform="translate(-23.98 -13.09)"/></svg>