<?xml version="1.0" encoding="UTF-8" standalone="no"?>
<svg
   xmlns:dc="http://purl.org/dc/elements/1.1/"
   xmlns:cc="http://creativecommons.org/ns#"
   xmlns:rdf="http://www.w3.org/1999/02/22-rdf-syntax-ns#"
   xmlns:svg="http://www.w3.org/2000/svg"
   xmlns="http://www.w3.org/2000/svg"
   xmlns:xlink="http://www.w3.org/1999/xlink"
   xmlns:sodipodi="http://sodipodi.sourceforge.net/DTD/sodipodi-0.dtd"
   xmlns:inkscape="http://www.inkscape.org/namespaces/inkscape"
   width="204.72453mm"
   height="192.62929mm"
   viewBox="0 0 204.72453 192.62927"
   version="1.1"
   id="svg1484"
   inkscape:version="1.0 (4035a4fb49, 2020-05-01)"
   sodipodi:docname="ico-financeiro.svg">
  <defs
     id="defs1478">
    <linearGradient
       inkscape:collect="always"
       id="linearGradient2156">
      <stop
         style="stop-color:#066bf6;stop-opacity:0.97647059"
         offset="0"
         id="stop2152" />
      <stop
         style="stop-color:#028cef;stop-opacity:0.50588238"
         offset="1"
         id="stop2154" />
    </linearGradient>
    <linearGradient
       inkscape:collect="always"
       id="linearGradient2113">
      <stop
         style="stop-color:#00aee6;stop-opacity:1;"
         offset="0"
         id="stop2109" />
      <stop
         style="stop-color:#00aee6;stop-opacity:0;"
         offset="1"
         id="stop2111" />
    </linearGradient>
    <linearGradient
       inkscape:collect="always"
       id="linearGradient2103">
      <stop
         style="stop-color:#00aee6;stop-opacity:1;"
         offset="0"
         id="stop2099" />
      <stop
         style="stop-color:#00aee6;stop-opacity:0;"
         offset="1"
         id="stop2101" />
    </linearGradient>
    <linearGradient
       inkscape:collect="always"
       id="linearGradient2093">
      <stop
         style="stop-color:#0669f6;stop-opacity:1"
         offset="0"
         id="stop2089" />
      <stop
         style="stop-color:#028dee;stop-opacity:0.48235294"
         offset="1"
         id="stop2091" />
    </linearGradient>
    <linearGradient
       inkscape:collect="always"
       id="linearGradient2070">
      <stop
         style="stop-color:#0669f6;stop-opacity:1"
         offset="0"
         id="stop2066" />
      <stop
         style="stop-color:#00aee6;stop-opacity:0"
         offset="1"
         id="stop2068" />
    </linearGradient>
    <linearGradient
       inkscape:collect="always"
       xlink:href="#linearGradient2070"
       id="linearGradient2076"
       x1="31.328949"
       y1="155.7262"
       x2="212.82043"
       y2="152.70239"
       gradientUnits="userSpaceOnUse" />
    <linearGradient
       inkscape:collect="always"
       xlink:href="#linearGradient2093"
       id="linearGradient2095"
       x1="-50.011524"
       y1="77.594879"
       x2="85.455147"
       y2="77.594879"
       gradientUnits="userSpaceOnUse"
       gradientTransform="translate(170.84523,71.059527)" />
    <linearGradient
       inkscape:collect="always"
       xlink:href="#linearGradient2103"
       id="linearGradient2105"
       x1="-73.074974"
       y1="64.743683"
       x2="36.703114"
       y2="64.743683"
       gradientUnits="userSpaceOnUse" />
    <linearGradient
       inkscape:collect="always"
       xlink:href="#linearGradient2113"
       id="linearGradient2115"
       x1="-106.33689"
       y1="59.074043"
       x2="4.1971545"
       y2="59.074043"
       gradientUnits="userSpaceOnUse" />
    <linearGradient
       inkscape:collect="always"
       xlink:href="#linearGradient2156"
       id="linearGradient2158"
       x1="-120.34142"
       y1="170.00186"
       x2="32.069782"
       y2="159.16214"
       gradientUnits="userSpaceOnUse"
       gradientTransform="translate(3.0981445e-6)" />
    <linearGradient
       inkscape:collect="always"
       xlink:href="#linearGradient2156"
       id="linearGradient2177"
       x1="127.9723"
       y1="145.53551"
       x2="237.5098"
       y2="145.53551"
       gradientUnits="userSpaceOnUse" />
    <linearGradient
       gradientUnits="userSpaceOnUse"
       y2="145.53551"
       x2="237.5098"
       y1="145.53551"
       x1="127.9723"
       id="linearGradient2177-7"
       xlink:href="#linearGradient2156"
       inkscape:collect="always"
       gradientTransform="rotate(-13.504822,138.49041,305.7053)" />
    <linearGradient
       inkscape:collect="always"
       xlink:href="#linearGradient2093"
       id="linearGradient2235"
       x1="400.99869"
       y1="210.51868"
       x2="536.46533"
       y2="210.51868"
       gradientUnits="userSpaceOnUse"
       gradientTransform="translate(-108.93319,-21.231035)" />
    <linearGradient
       gradientTransform="translate(-154.56954,7.5529711)"
       inkscape:collect="always"
       xlink:href="#linearGradient2093"
       id="linearGradient2272"
       x1="411.20609"
       y1="186.23265"
       x2="826.17346"
       y2="184.72075"
       gradientUnits="userSpaceOnUse" />
  </defs>
  <sodipodi:namedview
     id="base"
     pagecolor="#ffffff"
     bordercolor="#666666"
     borderopacity="1.0"
     inkscape:pageopacity="0.0"
     inkscape:pageshadow="2"
     inkscape:zoom="0.35"
     inkscape:cx="836.34661"
     inkscape:cy="251.36045"
     inkscape:document-units="mm"
     inkscape:current-layer="layer1"
     inkscape:document-rotation="0"
     showgrid="false"
     inkscape:window-width="1360"
     inkscape:window-height="728"
     inkscape:window-x="0"
     inkscape:window-y="0"
     inkscape:window-maximized="0"
     showguides="true"
     inkscape:guide-bbox="true" />
  <metadata
     id="metadata1481">
    <rdf:RDF>
      <cc:Work
         rdf:about="">
        <dc:format>image/svg+xml</dc:format>
        <dc:type
           rdf:resource="http://purl.org/dc/dcmitype/StillImage" />
        <dc:title />
      </cc:Work>
    </rdf:RDF>
  </metadata>
  <g
     inkscape:label="Layer 1"
     inkscape:groupmode="layer"
     id="layer1"
     transform="translate(-257.43657,-97.470962)">
    <rect
       style="opacity:0.998;fill:none;fill-opacity:1;stroke:url(#linearGradient2105);stroke-width:0.165;stroke-linecap:square;stroke-miterlimit:4;stroke-dasharray:none;stroke-opacity:0;paint-order:markers stroke fill"
       id="rect2097"
       width="109.61309"
       height="108.85714"
       x="-72.992477"
       y="10.315112"
       ry="12.851192" />
    <rect
       style="opacity:0.998;fill:none;fill-opacity:1;stroke:url(#linearGradient2115);stroke-width:3.565;stroke-linecap:square;stroke-miterlimit:4;stroke-dasharray:none;stroke-opacity:0;paint-order:markers stroke fill"
       id="rect2107"
       width="110.36904"
       height="108.1012"
       x="-106.25439"
       y="5.0234456" />
    <path
       id="path2218"
       d="m 359.79883,231.62098 c 30.40063,0 55.03334,-24.63271 55.03334,-55.03333 0,-30.40063 -24.63271,-55.03333 -55.03334,-55.03333 -30.40062,0 -55.03333,24.6327 -55.03333,55.03333 0,30.40062 24.63271,55.03333 55.03333,55.03333 z m -5.87375,-84.29625 v -4.445 c 0,-2.43416 1.95792,-4.39208 4.39209,-4.39208 h 2.93687 c 2.43417,0 4.39208,1.95792 4.39208,4.39208 v 4.49792 c 4.10105,0.21167 8.0698,1.61396 11.37709,4.07458 1.48166,1.08479 1.64041,3.25438 0.3175,4.52438 l -4.31271,4.10104 c -1.00542,0.97896 -2.51354,1.00542 -3.70417,0.26458 -1.42875,-0.89958 -3.01625,-1.34937 -4.70958,-1.34937 h -10.29229 c -2.38125,0 -4.31271,2.16958 -4.31271,4.84187 0,2.16959 1.32292,4.10104 3.20146,4.65667 l 16.48354,4.94771 c 6.79979,2.03729 11.56229,8.5725 11.56229,15.90146 0,8.99583 -6.985,16.27187 -15.63687,16.51 v 4.445 c 0,2.43416 -1.95792,4.39208 -4.39209,4.39208 h -2.93687 c -2.43417,0 -4.39209,-1.95792 -4.39209,-4.39208 v -4.49792 c -4.10104,-0.21167 -8.06979,-1.61396 -11.37708,-4.07458 -1.48167,-1.0848 -1.64042,-3.25438 -0.3175,-4.52438 l 4.31271,-4.10104 c 1.00542,-0.97896 2.51354,-1.00542 3.70417,-0.26458 1.42875,0.89958 3.01625,1.34937 4.70958,1.34937 h 10.29229 c 2.38125,0 4.31271,-2.16958 4.31271,-4.84187 0,-2.16959 -1.32292,-4.10105 -3.20146,-4.65667 l -16.48354,-4.94771 c -6.79979,-2.03729 -11.56229,-8.5725 -11.56229,-15.90146 0.0265,-8.99583 6.985,-16.27187 15.63687,-16.51 z m 65.14042,76.35875 h -8.59896 c -5.18583,6.87917 -11.80042,12.62062 -19.31458,16.93333 h 16.88041 c 1.4023,0 2.54,0.9525 2.54,2.11667 v 4.23333 c 0,1.16417 -1.13772,2.12436 -2.54,2.11667 l -96.49353,-0.52916 c -1.40227,-0.008 -2.54,-0.9525 -2.54,-2.11667 v -4.23333 c 0,-1.16417 1.13771,-2.11667 2.54,-2.11667 h 16.88041 c -7.51417,-4.31271 -14.10229,-10.05416 -19.31458,-16.93333 h -8.5725 c -4.68312,0 -8.46667,3.78354 -8.46667,8.46667 v 25.4 c 0,4.68312 3.7836,8.44575 8.46667,8.46666 l 118.53333,0.52916 c 4.68307,0.0209 8.46667,-3.78354 8.46667,-8.46666 v -25.4 c 0,-4.68313 -3.78355,-8.46667 -8.46667,-8.46667 z"
       style="fill:none;stroke:url(#linearGradient2235);stroke-width:6.565;stroke-miterlimit:4;stroke-dasharray:none"
       sodipodi:nodetypes="ssssscsssscccccsssccscsssscccccsssccccsccssssssssccssssssss" />
    <rect
       style="opacity:0.998;fill:none;fill-opacity:1;stroke:url(#linearGradient2272);stroke-width:6.66501;stroke-linecap:square;stroke-miterlimit:4;stroke-dasharray:none;stroke-opacity:0.976471;paint-order:markers stroke fill"
       id="rect2264"
       width="198.05952"
       height="185.96428"
       x="260.76907"
       y="100.80347"
       ry="16.630953" />
  </g>
</svg>
