<?xml version="1.0" encoding="UTF-8" standalone="no"?>
<svg
   xmlns:dc="http://purl.org/dc/elements/1.1/"
   xmlns:cc="http://creativecommons.org/ns#"
   xmlns:rdf="http://www.w3.org/1999/02/22-rdf-syntax-ns#"
   xmlns:svg="http://www.w3.org/2000/svg"
   xmlns="http://www.w3.org/2000/svg"
   xmlns:sodipodi="http://sodipodi.sourceforge.net/DTD/sodipodi-0.dtd"
   xmlns:inkscape="http://www.inkscape.org/namespaces/inkscape"
   sodipodi:docname="bn.svg"
   inkscape:version="1.0 (4035a4fb49, 2020-05-01)"
   id="svg8"
   version="1.1"
   viewBox="0 0 339.42262 81.643316"
   height="308.57318"
   width="1282.8572">
  <defs
     id="defs2" />
  <sodipodi:namedview
     inkscape:window-maximized="1"
     inkscape:window-y="-8"
     inkscape:window-x="-8"
     inkscape:window-height="705"
     inkscape:window-width="1360"
     units="px"
     showgrid="false"
     inkscape:document-rotation="0"
     inkscape:current-layer="text848"
     inkscape:document-units="px"
     inkscape:cy="271.99051"
     inkscape:cx="540.65108"
     inkscape:zoom="0.7"
     inkscape:pageshadow="2"
     inkscape:pageopacity="0.0"
     borderopacity="1.0"
     bordercolor="#666666"
     pagecolor="#ffffff"
     id="base" />
  <metadata
     id="metadata5">
    <rdf:RDF>
      <cc:Work
         rdf:about="">
        <dc:format>image/svg+xml</dc:format>
        <dc:type
           rdf:resource="http://purl.org/dc/dcmitype/StillImage" />
        <dc:title />
      </cc:Work>
    </rdf:RDF>
  </metadata>
  <g
     transform="translate(2.0010781e-8,-6.7275133)"
     id="layer1"
     inkscape:groupmode="layer"
     inkscape:label="Layer 1">
    <rect
       y="6.7275133"
       x="-2.0010781e-08"
       height="81.643318"
       width="339.42261"
       id="rect833"
       style="fill:#cccccc;stroke-width:0.833452;stroke-linecap:square;stroke-linejoin:round;paint-order:markers stroke fill" />
    <path
       style="fill:#808080;stroke-width:0.047073"
       d="m 179.85214,32.397376 v 13.557072 c 0,1.247441 -1.01207,2.259514 -2.25953,2.259514 h -19.58242 c -1.24744,0 -2.25953,-1.012073 -2.25953,-2.259514 V 32.397376 c 0,-1.247439 1.01209,-2.259511 2.25953,-2.259511 h 4.14242 l 0.57901,-1.548707 c 0.32951,-0.88027 1.17213,-1.463977 2.11359,-1.463977 h 5.90768 c 0.94146,0 1.78408,0.583707 2.11358,1.463977 l 0.5837,1.548707 h 4.14244 c 1.24746,0 2.25953,1.012072 2.25953,2.259511 z m -6.40197,6.778539 c 0,-3.116245 -2.53253,-5.648781 -5.64877,-5.648781 -3.11625,0 -5.64879,2.532536 -5.64879,5.648781 0,3.116239 2.53254,5.648779 5.64879,5.648779 3.11624,0 5.64877,-2.53254 5.64877,-5.648779 z m -1.50634,0 c 0,2.283049 -1.85938,4.142436 -4.14243,4.142436 -2.28304,0 -4.14244,-1.859388 -4.14244,-4.142436 0,-2.28305 1.8594,-4.142442 4.14244,-4.142442 2.28305,0 4.14243,1.859392 4.14243,4.142442 z"
       id="path835" />
    <g
       style="font-style:normal;font-weight:normal;font-size:7.17417px;line-height:1.25;font-family:sans-serif;fill:#666666;fill-opacity:1;stroke:none;stroke-width:0.179355"
       id="text848"
       aria-label="CARREGAR IMAGEM DO BANNER">
      <path
         id="path994"
         style="fill:#666666;fill-opacity:1;stroke-width:0.179355"
         d="m 113.7218,60.770299 q -0.19266,0.08407 -0.3503,0.157636 -0.15413,0.07356 -0.40635,0.154132 -0.21368,0.06656 -0.4659,0.112097 -0.24871,0.04904 -0.54997,0.04904 -0.56749,0 -1.03339,-0.157636 -0.4624,-0.161138 -0.80569,-0.500931 -0.33629,-0.332786 -0.52545,-0.844226 -0.18917,-0.514943 -0.18917,-1.194527 0,-0.644554 0.18216,-1.152491 0.18216,-0.507937 0.52545,-0.858238 0.33279,-0.339793 0.80219,-0.518446 0.47291,-0.178654 1.0474,-0.178654 0.42036,0 0.83722,0.101588 0.42036,0.101587 0.9318,0.357307 v 0.823208 h -0.0525 q -0.43087,-0.36081 -0.85474,-0.525452 -0.42386,-0.164642 -0.90728,-0.164642 -0.39584,0 -0.71461,0.129612 -0.31527,0.126108 -0.56399,0.39584 -0.2417,0.262726 -0.37832,0.665573 -0.13312,0.399343 -0.13312,0.924795 0,0.549973 0.14713,0.945813 0.15063,0.395841 0.38533,0.644555 0.24521,0.259223 0.57099,0.385331 0.32929,0.122606 0.6936,0.122606 0.50093,0 0.93881,-0.171648 0.43787,-0.171648 0.8197,-0.514943 h 0.049 z" />
      <path
         id="path996"
         style="fill:#666666;fill-opacity:1;stroke-width:0.179355"
         d="m 118.82219,61.148624 h -0.73914 l -0.51144,-1.45375 h -2.25594 l -0.51144,1.45375 h -0.7041 l 1.89863,-5.215985 h 0.9248 z m -1.46426,-2.049262 -0.91429,-2.560702 -0.91778,2.560702 z" />
      <path
         id="path998"
         style="fill:#666666;fill-opacity:1;stroke-width:0.179355"
         d="m 123.92958,61.148624 h -0.90027 l -1.7445,-2.073783 h -0.97734 v 2.073783 h -0.6936 v -5.215985 h 1.46076 q 0.4729,0 0.78818,0.06305 0.31527,0.05955 0.56748,0.217187 0.28375,0.178653 0.44138,0.451888 0.16114,0.269732 0.16114,0.686591 0,0.563985 -0.28374,0.945813 -0.28375,0.378325 -0.78117,0.570991 z m -1.62189,-3.748223 q 0,-0.224193 -0.0806,-0.395841 -0.0771,-0.17515 -0.25922,-0.294253 -0.15063,-0.101587 -0.35731,-0.14012 -0.20668,-0.04204 -0.48692,-0.04204 h -0.8162 v 1.968693 h 0.7006 q 0.32928,0 0.57449,-0.05605 0.24522,-0.05955 0.41686,-0.217187 0.15764,-0.147127 0.2312,-0.336289 0.0771,-0.192666 0.0771,-0.486919 z" />
      <path
         id="path1000"
         style="fill:#666666;fill-opacity:1;stroke-width:0.179355"
         d="m 128.91787,61.148624 h -0.90027 l -1.7445,-2.073783 h -0.97734 v 2.073783 h -0.6936 v -5.215985 h 1.46076 q 0.4729,0 0.78818,0.06305 0.31527,0.05955 0.56748,0.217187 0.28375,0.178653 0.44138,0.451888 0.16114,0.269732 0.16114,0.686591 0,0.563985 -0.28374,0.945813 -0.28375,0.378325 -0.78117,0.570991 z m -1.62189,-3.748223 q 0,-0.224193 -0.0806,-0.395841 -0.0771,-0.17515 -0.25922,-0.294253 -0.15063,-0.101587 -0.35731,-0.14012 -0.20668,-0.04204 -0.48692,-0.04204 h -0.8162 v 1.968693 h 0.7006 q 0.32928,0 0.57449,-0.05605 0.24522,-0.05955 0.41686,-0.217187 0.15764,-0.147127 0.2312,-0.336289 0.0771,-0.192666 0.0771,-0.486919 z" />
      <path
         id="path1002"
         style="fill:#666666;fill-opacity:1;stroke-width:0.179355"
         d="m 133.02691,61.148624 h -3.43646 v -5.215985 h 3.43646 v 0.61653 h -2.74286 v 1.429229 h 2.74286 v 0.61653 h -2.74286 v 1.937166 h 2.74286 z" />
      <path
         id="path1004"
         style="fill:#666666;fill-opacity:1;stroke-width:0.179355"
         d="m 138.4811,60.763293 q -0.42737,0.196169 -0.93531,0.343295 -0.50443,0.143624 -0.97734,0.143624 -0.60952,0 -1.11746,-0.168145 -0.50793,-0.168144 -0.86524,-0.504434 -0.36081,-0.339792 -0.55698,-0.847729 -0.19617,-0.51144 -0.19617,-1.194527 0,-1.250576 0.72863,-1.972196 0.73213,-0.725124 2.00722,-0.725124 0.44489,0 0.90728,0.108594 0.4659,0.10509 1.00187,0.36081 v 0.823208 h -0.0631 q -0.10859,-0.08407 -0.31527,-0.22069 -0.20668,-0.136617 -0.40635,-0.227696 -0.24171,-0.108593 -0.54997,-0.178653 -0.30476,-0.07356 -0.6936,-0.07356 -0.87575,0 -1.38719,0.563985 -0.50794,0.560482 -0.50794,1.520308 0,1.012371 0.53246,1.576356 0.53246,0.560482 1.45025,0.560482 0.33629,0 0.66907,-0.06656 0.33629,-0.06656 0.58851,-0.171647 v -1.2786 h -1.3977 v -0.609524 h 2.08429 z" />
      <path
         id="path1006"
         style="fill:#666666;fill-opacity:1;stroke-width:0.179355"
         d="m 143.80568,61.148624 h -0.73914 l -0.51144,-1.45375 h -2.25594 l -0.51144,1.45375 h -0.7041 l 1.89863,-5.215985 h 0.9248 z m -1.46426,-2.049262 -0.91429,-2.560702 -0.91779,2.560702 z" />
      <path
         id="path1008"
         style="fill:#666666;fill-opacity:1;stroke-width:0.179355"
         d="m 148.91307,61.148624 h -0.90027 l -1.74451,-2.073783 h -0.97734 v 2.073783 h -0.69359 v -5.215985 h 1.46075 q 0.47291,0 0.78818,0.06305 0.31527,0.05955 0.56749,0.217187 0.28374,0.178653 0.44138,0.451888 0.16114,0.269732 0.16114,0.686591 0,0.563985 -0.28375,0.945813 -0.28374,0.378325 -0.78117,0.570991 z m -1.6219,-3.748223 q 0,-0.224193 -0.0806,-0.395841 -0.0771,-0.17515 -0.25923,-0.294253 -0.15063,-0.101587 -0.3573,-0.14012 -0.20668,-0.04204 -0.48692,-0.04204 h -0.81621 v 1.968693 h 0.70061 q 0.32928,0 0.57449,-0.05605 0.24521,-0.05955 0.41686,-0.217187 0.15763,-0.147127 0.2312,-0.336289 0.0771,-0.192666 0.0771,-0.486919 z" />
      <path
         id="path1010"
         style="fill:#666666;fill-opacity:1;stroke-width:0.179355"
         d="m 153.9469,61.148624 h -2.05977 v -0.532458 h 0.68309 v -4.15107 h -0.68309 v -0.532457 h 2.05977 v 0.532457 h -0.68309 v 4.15107 h 0.68309 z" />
      <path
         id="path1012"
         style="fill:#666666;fill-opacity:1;stroke-width:0.179355"
         d="m 159.77942,61.148624 h -0.6936 v -4.494365 l -1.45025,3.05813 h -0.41335 l -1.43974,-3.05813 v 4.494365 h -0.64806 v -5.215985 h 0.94581 l 1.3907,2.903997 1.34516,-2.903997 h 0.96333 z" />
      <path
         id="path1014"
         style="fill:#666666;fill-opacity:1;stroke-width:0.179355"
         d="m 165.30016,61.148624 h -0.73913 l -0.51144,-1.45375 h -2.25594 l -0.51144,1.45375 h -0.70411 l 1.89863,-5.215985 h 0.9248 z m -1.46426,-2.049262 -0.91428,-2.560702 -0.91779,2.560702 z" />
      <path
         id="path1016"
         style="fill:#666666;fill-opacity:1;stroke-width:0.179355"
         d="m 170.44259,60.763293 q -0.42737,0.196169 -0.93531,0.343295 -0.50443,0.143624 -0.97734,0.143624 -0.60952,0 -1.11746,-0.168145 -0.50794,-0.168144 -0.86524,-0.504434 -0.36081,-0.339792 -0.55698,-0.847729 -0.19617,-0.51144 -0.19617,-1.194527 0,-1.250576 0.72863,-1.972196 0.73213,-0.725124 2.00722,-0.725124 0.44488,0 0.90728,0.108594 0.4659,0.10509 1.00186,0.36081 v 0.823208 h -0.0631 q -0.10859,-0.08407 -0.31527,-0.22069 -0.20668,-0.136617 -0.40635,-0.227696 -0.24171,-0.108593 -0.54997,-0.178653 -0.30477,-0.07356 -0.6936,-0.07356 -0.87575,0 -1.38719,0.563985 -0.50794,0.560482 -0.50794,1.520308 0,1.012371 0.53246,1.576356 0.53246,0.560482 1.45025,0.560482 0.33628,0 0.66907,-0.06656 0.33629,-0.06656 0.58851,-0.171647 v -1.2786 h -1.39771 v -0.609524 h 2.0843 z" />
      <path
         id="path1018"
         style="fill:#666666;fill-opacity:1;stroke-width:0.179355"
         d="m 175.09108,61.148624 h -3.43645 v -5.215985 h 3.43645 v 0.61653 h -2.74286 v 1.429229 h 2.74286 v 0.61653 h -2.74286 v 1.937166 h 2.74286 z" />
      <path
         id="path1020"
         style="fill:#666666;fill-opacity:1;stroke-width:0.179355"
         d="m 180.83952,61.148624 h -0.69359 v -4.494365 l -1.45025,3.05813 h -0.41335 l -1.43974,-3.05813 v 4.494365 h -0.64806 v -5.215985 h 0.94581 l 1.3907,2.903997 1.34516,-2.903997 h 0.96332 z" />
      <path
         id="path1022"
         style="fill:#666666;fill-opacity:1;stroke-width:0.179355"
         d="m 189.1767,58.545886 q 0,0.711112 -0.31177,1.289109 -0.30827,0.577997 -0.82321,0.896771 -0.35731,0.22069 -0.79869,0.318774 -0.43787,0.09808 -1.15599,0.09808 h -1.31713 v -5.215985 h 1.30312 q 0.76366,0 1.21204,0.112096 0.45189,0.108593 0.76366,0.301259 0.53246,0.332786 0.83021,0.886262 0.29776,0.553476 0.29776,1.31363 z m -0.72513,-0.01051 q 0,-0.613027 -0.21368,-1.033389 -0.21368,-0.420361 -0.63755,-0.662069 -0.30826,-0.175151 -0.65506,-0.241708 -0.3468,-0.07006 -0.83022,-0.07006 h -0.65156 v 4.024961 h 0.65156 q 0.50094,0 0.87226,-0.07356 0.37482,-0.07356 0.68659,-0.273235 0.38883,-0.248714 0.5815,-0.655063 0.19616,-0.40635 0.19616,-1.015874 z" />
      <path
         id="path1024"
         style="fill:#666666;fill-opacity:1;stroke-width:0.179355"
         d="m 194.19301,56.531654 q 0.31878,0.350301 0.48692,0.858238 0.17165,0.507937 0.17165,1.152491 0,0.644554 -0.17515,1.155994 -0.17165,0.507937 -0.48342,0.847729 -0.32228,0.353805 -0.76366,0.532458 -0.43787,0.178654 -1.00186,0.178654 -0.54997,0 -1.00186,-0.182157 -0.44838,-0.182157 -0.76366,-0.528955 -0.31527,-0.346798 -0.48691,-0.851232 -0.16815,-0.504434 -0.16815,-1.152491 0,-0.637548 0.16815,-1.141982 0.16814,-0.507937 0.49042,-0.868747 0.30826,-0.343296 0.76365,-0.525452 0.4589,-0.182157 0.99836,-0.182157 0.56049,0 1.00537,0.18566 0.44838,0.182156 0.76015,0.521949 z m -0.063,2.010729 q 0,-1.015874 -0.45539,-1.565847 -0.4554,-0.553476 -1.24357,-0.553476 -0.79519,0 -1.25058,0.553476 -0.45189,0.549973 -0.45189,1.565847 0,1.026383 0.4624,1.572853 0.4624,0.542967 1.24007,0.542967 0.77767,0 1.23656,-0.542967 0.4624,-0.54647 0.4624,-1.572853 z" />
      <path
         id="path1026"
         style="fill:#666666;fill-opacity:1;stroke-width:0.179355"
         d="m 202.40758,59.544245 q 0,0.388834 -0.14713,0.68659 -0.14712,0.297756 -0.39584,0.490422 -0.29425,0.231199 -0.64805,0.329283 -0.35031,0.09808 -0.89327,0.09808 h -1.84959 v -5.215985 h 1.54483 q 0.57099,0 0.85473,0.04204 0.28374,0.04204 0.54297,0.17515 0.28724,0.15063 0.41686,0.388835 0.12961,0.234702 0.12961,0.563985 0,0.371319 -0.18917,0.634045 -0.18916,0.259223 -0.50443,0.416859 v 0.02802 q 0.52896,0.108593 0.83372,0.4659 0.30476,0.353805 0.30476,0.896772 z m -1.1665,-2.350522 q 0,-0.189163 -0.0631,-0.318774 -0.0631,-0.129612 -0.20317,-0.210181 -0.16464,-0.09458 -0.39935,-0.115599 -0.2347,-0.02452 -0.5815,-0.02452 h -0.82671 v 1.506295 h 0.89677 q 0.32578,0 0.51845,-0.03153 0.19267,-0.03503 0.35731,-0.140121 0.16464,-0.10509 0.2312,-0.269731 0.0701,-0.168145 0.0701,-0.395841 z m 0.44488,2.378546 q 0,-0.315271 -0.0946,-0.500931 -0.0946,-0.18566 -0.3433,-0.315271 -0.16814,-0.08758 -0.40985,-0.112097 -0.2382,-0.02802 -0.5815,-0.02802 h -1.08944 v 1.940669 h 0.91779 q 0.45539,0 0.74614,-0.04554 0.29075,-0.04904 0.47641,-0.175151 0.19617,-0.136617 0.28725,-0.311768 0.0911,-0.17515 0.0911,-0.451888 z" />
      <path
         id="path1028"
         style="fill:#666666;fill-opacity:1;stroke-width:0.179355"
         d="m 207.50446,61.148624 h -0.73913 l -0.51144,-1.45375 h -2.25594 l -0.51144,1.45375 h -0.70411 l 1.89863,-5.215985 h 0.9248 z m -1.46426,-2.049262 -0.91428,-2.560702 -0.91779,2.560702 z" />
      <path
         id="path1030"
         style="fill:#666666;fill-opacity:1;stroke-width:0.179355"
         d="m 212.27556,61.148624 h -0.85824 l -2.47312,-4.666013 v 4.666013 h -0.64806 v -5.215985 h 1.07542 l 2.25594,4.259663 v -4.259663 h 0.64806 z" />
      <path
         id="path1032"
         style="fill:#666666;fill-opacity:1;stroke-width:0.179355"
         d="m 217.64218,61.148624 h -0.85824 l -2.47313,-4.666013 v 4.666013 h -0.64806 v -5.215985 h 1.07543 l 2.25594,4.259663 v -4.259663 h 0.64806 z" />
      <path
         id="path1034"
         style="fill:#666666;fill-opacity:1;stroke-width:0.179355"
         d="m 222.46582,61.148624 h -3.43645 v -5.215985 h 3.43645 v 0.61653 h -2.74286 v 1.429229 h 2.74286 v 0.61653 h -2.74286 v 1.937166 h 2.74286 z" />
      <path
         id="path1036"
         style="fill:#666666;fill-opacity:1;stroke-width:0.179355"
         d="m 227.88499,61.148624 h -0.90027 l -1.74451,-2.073783 h -0.97734 v 2.073783 h -0.69359 v -5.215985 h 1.46075 q 0.47291,0 0.78818,0.06305 0.31527,0.05955 0.56749,0.217187 0.28374,0.178653 0.44138,0.451888 0.16114,0.269732 0.16114,0.686591 0,0.563985 -0.28375,0.945813 -0.28374,0.378325 -0.78117,0.570991 z m -1.6219,-3.748223 q 0,-0.224193 -0.0806,-0.395841 -0.0771,-0.17515 -0.25923,-0.294253 -0.15063,-0.101587 -0.3573,-0.14012 -0.20668,-0.04204 -0.48692,-0.04204 h -0.81621 v 1.968693 h 0.70061 q 0.32928,0 0.57449,-0.05605 0.24521,-0.05955 0.41686,-0.217187 0.15763,-0.147127 0.2312,-0.336289 0.0771,-0.192666 0.0771,-0.486919 z" />
    </g>
    <path
       id="path850"
       d="m 179.85214,32.397376 v 13.557072 c 0,1.247441 -1.01207,2.259514 -2.25953,2.259514 h -19.58242 c -1.24744,0 -2.25953,-1.012073 -2.25953,-2.259514 V 32.397376 c 0,-1.247439 1.01209,-2.259511 2.25953,-2.259511 h 4.14242 l 0.57901,-1.548707 c 0.32951,-0.88027 1.17213,-1.463977 2.11359,-1.463977 h 5.90768 c 0.94146,0 1.78408,0.583707 2.11358,1.463977 l 0.5837,1.548707 h 4.14244 c 1.24746,0 2.25953,1.012072 2.25953,2.259511 z m -6.40197,6.778539 c 0,-3.116245 -2.53253,-5.648781 -5.64877,-5.648781 -3.11625,0 -5.64879,2.532536 -5.64879,5.648781 0,3.116239 2.53254,5.648779 5.64879,5.648779 3.11624,0 5.64877,-2.53254 5.64877,-5.648779 z m -1.50634,0 c 0,2.283049 -1.85938,4.142436 -4.14243,4.142436 -2.28304,0 -4.14244,-1.859388 -4.14244,-4.142436 0,-2.28305 1.8594,-4.142442 4.14244,-4.142442 2.28305,0 4.14243,1.859392 4.14243,4.142442 z"
       style="fill:#808080;stroke-width:0.047073" />
    <g
       style="font-style:normal;font-weight:normal;font-size:5.64444px;line-height:1.25;font-family:sans-serif;fill:#666666;fill-opacity:1;stroke:none;stroke-width:0.10684"
       id="text854-4"
       aria-label="O tamanho da imagem deve ser de (1280 x 512) pixel">
      <path
         id="path886"
         style="font-size:5.64444px;fill:#666666;fill-opacity:1;stroke-width:0.10684"
         d="m 104.05873,65.04548 q 0.2508,0.275608 0.38309,0.675238 0.13505,0.399631 0.13505,0.906749 0,0.507118 -0.1378,0.909504 -0.13505,0.399631 -0.38034,0.66697 -0.25356,0.278364 -0.60082,0.418924 -0.34451,0.140559 -0.78824,0.140559 -0.43271,0 -0.78824,-0.143315 -0.35278,-0.143316 -0.60082,-0.416168 -0.24805,-0.272851 -0.3831,-0.669726 -0.13229,-0.396874 -0.13229,-0.906748 0,-0.501606 0.13229,-0.89848 0.13229,-0.399631 0.38585,-0.683507 0.24254,-0.270095 0.60083,-0.413411 0.36104,-0.143316 0.78548,-0.143316 0.44097,0 0.79099,0.146072 0.35278,0.143316 0.59807,0.410655 z m -0.0496,1.581987 q 0,-0.799262 -0.35829,-1.231965 -0.35829,-0.43546 -0.97841,-0.43546 -0.62562,0 -0.98391,0.43546 -0.35554,0.432703 -0.35554,1.231965 0,0.80753 0.3638,1.237477 0.36381,0.427192 0.97565,0.427192 0.61185,0 0.9729,-0.427192 0.3638,-0.429947 0.3638,-1.237477 z" />
      <path
         id="path888"
         style="font-size:5.64444px;fill:#666666;fill-opacity:1;stroke-width:0.10684"
         d="m 108.98384,68.650425 q -0.14608,0.03858 -0.31971,0.06339 -0.17088,0.02481 -0.30592,0.02481 -0.47129,0 -0.71658,-0.253559 -0.24529,-0.253559 -0.24529,-0.813042 v -1.637108 h -0.35003 v -0.43546 h 0.35003 v -0.8847 h 0.51814 v 0.8847 h 1.06936 v 0.43546 h -1.06936 v 1.402842 q 0,0.242534 0.011,0.380338 0.011,0.135048 0.0772,0.253559 0.0606,0.110243 0.16537,0.162608 0.10748,0.04961 0.32521,0.04961 0.12678,0 0.26459,-0.03583 0.1378,-0.03859 0.19843,-0.06339 h 0.0276 z" />
      <path
         id="path890"
         style="font-size:5.64444px;fill:#666666;fill-opacity:1;stroke-width:0.10684"
         d="m 112.00449,68.677986 h -0.51538 v -0.327973 q -0.0689,0.04685 -0.18742,0.132292 -0.11575,0.08268 -0.22599,0.132291 -0.12954,0.06339 -0.29766,0.104731 -0.16812,0.0441 -0.39412,0.0441 -0.41617,0 -0.70555,-0.275607 -0.28939,-0.275607 -0.28939,-0.702799 0,-0.350021 0.14883,-0.564995 0.15158,-0.21773 0.42994,-0.341753 0.28112,-0.124024 0.67524,-0.168121 0.39412,-0.0441 0.84612,-0.06615 v -0.07993 q 0,-0.176389 -0.0634,-0.292144 -0.0606,-0.115755 -0.17639,-0.181901 -0.11024,-0.06339 -0.26458,-0.08544 -0.15434,-0.02205 -0.32247,-0.02205 -0.20395,0 -0.45475,0.05512 -0.2508,0.05236 -0.51814,0.15434 h -0.0276 v -0.52641 q 0.15158,-0.04134 0.43822,-0.09095 0.28663,-0.04961 0.56499,-0.04961 0.32522,0 0.565,0.05512 0.24253,0.05237 0.41892,0.181901 0.17363,0.126779 0.26458,0.327972 0.091,0.201194 0.091,0.49885 z m -0.51538,-0.75792 v -0.857139 q -0.23703,0.01378 -0.55949,0.04134 -0.3197,0.02756 -0.50711,0.07993 -0.22325,0.06339 -0.36105,0.198437 -0.1378,0.132292 -0.1378,0.366558 0,0.264583 0.15985,0.399631 0.15985,0.132291 0.48782,0.132291 0.27286,0 0.49885,-0.10473 0.226,-0.107487 0.41893,-0.256315 z" />
      <path
         id="path892"
         style="font-size:5.64444px;fill:#666666;fill-opacity:1;stroke-width:0.10684"
         d="m 117.5001,68.677986 h -0.51814 v -1.752863 q 0,-0.198437 -0.0193,-0.383094 -0.0165,-0.184657 -0.0744,-0.2949 -0.0634,-0.118512 -0.18191,-0.179145 -0.11851,-0.06063 -0.34175,-0.06063 -0.21773,0 -0.43546,0.110243 -0.21773,0.107487 -0.43546,0.275608 0.008,0.06339 0.0138,0.148828 0.006,0.08268 0.006,0.165364 v 1.970593 h -0.51814 v -1.752863 q 0,-0.20395 -0.0193,-0.385851 -0.0165,-0.184656 -0.0744,-0.294899 -0.0634,-0.118512 -0.1819,-0.176389 -0.11852,-0.06063 -0.34176,-0.06063 -0.21222,0 -0.42719,0.104731 -0.21222,0.104731 -0.42443,0.267339 v 2.298566 h -0.51815 v -3.078535 h 0.51815 v 0.341753 q 0.24253,-0.201193 0.48231,-0.314192 0.24253,-0.112999 0.51538,-0.112999 0.3142,0 0.53193,0.132291 0.22048,0.132292 0.32797,0.366558 0.31419,-0.264583 0.57326,-0.380338 0.25907,-0.118511 0.55397,-0.118511 0.50712,0 0.7469,0.30868 0.24253,0.305924 0.24253,0.857139 z" />
      <path
         id="path894"
         style="font-size:5.64444px;fill:#666666;fill-opacity:1;stroke-width:0.10684"
         d="m 120.89008,68.677986 h -0.51539 v -0.327973 q -0.0689,0.04685 -0.18741,0.132292 -0.11576,0.08268 -0.226,0.132291 -0.12954,0.06339 -0.29766,0.104731 -0.16812,0.0441 -0.39412,0.0441 -0.41616,0 -0.70555,-0.275607 -0.28939,-0.275607 -0.28939,-0.702799 0,-0.350021 0.14883,-0.564995 0.15158,-0.21773 0.42995,-0.341753 0.28112,-0.124024 0.67524,-0.168121 0.39411,-0.0441 0.84611,-0.06615 v -0.07993 q 0,-0.176389 -0.0634,-0.292144 -0.0606,-0.115755 -0.17639,-0.181901 -0.11024,-0.06339 -0.26458,-0.08544 -0.15434,-0.02205 -0.32246,-0.02205 -0.20395,0 -0.45475,0.05512 -0.25081,0.05236 -0.51815,0.15434 h -0.0276 v -0.52641 q 0.15159,-0.04134 0.43822,-0.09095 0.28663,-0.04961 0.56499,-0.04961 0.32522,0 0.565,0.05512 0.24253,0.05237 0.41892,0.181901 0.17364,0.126779 0.26459,0.327972 0.0909,0.201194 0.0909,0.49885 z m -0.51539,-0.75792 v -0.857139 q -0.23702,0.01378 -0.55948,0.04134 -0.31971,0.02756 -0.50712,0.07993 -0.22324,0.06339 -0.36105,0.198437 -0.1378,0.132292 -0.1378,0.366558 0,0.264583 0.15985,0.399631 0.15986,0.132291 0.48783,0.132291 0.27285,0 0.49885,-0.10473 0.226,-0.107487 0.41892,-0.256315 z" />
      <path
         id="path896"
         style="font-size:5.64444px;fill:#666666;fill-opacity:1;stroke-width:0.10684"
         d="m 124.46746,68.677986 h -0.51814 v -1.752863 q 0,-0.212218 -0.0248,-0.396875 -0.0248,-0.187413 -0.0909,-0.292144 -0.0689,-0.115755 -0.19843,-0.170876 -0.12954,-0.05788 -0.33625,-0.05788 -0.21221,0 -0.44372,0.104731 -0.23151,0.104731 -0.44373,0.267339 v 2.298566 h -0.51814 v -3.078535 h 0.51814 v 0.341753 q 0.24253,-0.201193 0.5016,-0.314192 0.25908,-0.112999 0.53193,-0.112999 0.49885,0 0.76067,0.300412 0.26183,0.300412 0.26183,0.865407 z" />
      <path
         id="path898"
         style="font-size:5.64444px;fill:#666666;fill-opacity:1;stroke-width:0.10684"
         d="m 128.03933,68.677986 h -0.51814 v -1.752863 q 0,-0.212218 -0.0248,-0.396875 -0.0248,-0.187413 -0.091,-0.292144 -0.0689,-0.115755 -0.19844,-0.170876 -0.12954,-0.05788 -0.33624,-0.05788 -0.21222,0 -0.44373,0.104731 -0.23151,0.104731 -0.44373,0.267339 v 2.298566 h -0.51814 v -4.288451 h 0.51814 v 1.551669 q 0.24254,-0.201193 0.50161,-0.314192 0.25907,-0.112999 0.53192,-0.112999 0.49885,0 0.76068,0.300412 0.26182,0.300412 0.26182,0.865407 z" />
      <path
         id="path900"
         style="font-size:5.64444px;fill:#666666;fill-opacity:1;stroke-width:0.10684"
         d="m 131.66081,67.140097 q 0,0.752408 -0.38585,1.187868 -0.38585,0.435459 -1.03352,0.435459 -0.65319,0 -1.03904,-0.435459 -0.3831,-0.43546 -0.3831,-1.187868 0,-0.752409 0.3831,-1.187868 0.38585,-0.438216 1.03904,-0.438216 0.64767,0 1.03352,0.438216 0.38585,0.435459 0.38585,1.187868 z m -0.53468,0 q 0,-0.598068 -0.23426,-0.887456 -0.23427,-0.292144 -0.65043,-0.292144 -0.42168,0 -0.65595,0.292144 -0.23151,0.289388 -0.23151,0.887456 0,0.578775 0.23427,0.879187 0.23426,0.297656 0.65319,0.297656 0.41341,0 0.64767,-0.2949 0.23702,-0.297656 0.23702,-0.881943 z" />
      <path
         id="path902"
         style="font-size:5.64444px;fill:#666666;fill-opacity:1;stroke-width:0.10684"
         d="m 136.94696,68.677986 h -0.51814 v -0.322461 q -0.22324,0.192926 -0.46578,0.300413 -0.24253,0.107486 -0.52641,0.107486 -0.55121,0 -0.87643,-0.424435 -0.32246,-0.424435 -0.32246,-1.176844 0,-0.391362 0.11025,-0.697287 0.11299,-0.305924 0.30316,-0.520898 0.18742,-0.209461 0.43546,-0.319704 0.25081,-0.110243 0.51815,-0.110243 0.24253,0 0.42994,0.05236 0.18742,0.04961 0.39412,0.157096 v -1.333939 h 0.51814 z m -0.51814,-0.75792 v -1.766644 q -0.20946,-0.09371 -0.37482,-0.129535 -0.16537,-0.03583 -0.36105,-0.03583 -0.43546,0 -0.67799,0.303168 -0.24254,0.303168 -0.24254,0.859895 0,0.548459 0.18741,0.83509 0.18742,0.283876 0.60083,0.283876 0.22048,0 0.44648,-0.09646 0.226,-0.09922 0.42168,-0.253559 z" />
      <path
         id="path904"
         style="font-size:5.64444px;fill:#666666;fill-opacity:1;stroke-width:0.10684"
         d="m 140.35898,68.677986 h -0.51538 v -0.327973 q -0.0689,0.04685 -0.18742,0.132292 -0.11575,0.08268 -0.22599,0.132291 -0.12954,0.06339 -0.29766,0.104731 -0.16812,0.0441 -0.39412,0.0441 -0.41617,0 -0.70555,-0.275607 -0.28939,-0.275607 -0.28939,-0.702799 0,-0.350021 0.14883,-0.564995 0.15158,-0.21773 0.42994,-0.341753 0.28112,-0.124024 0.67524,-0.168121 0.39412,-0.0441 0.84612,-0.06615 v -0.07993 q 0,-0.176389 -0.0634,-0.292144 -0.0606,-0.115755 -0.17639,-0.181901 -0.11024,-0.06339 -0.26458,-0.08544 -0.15434,-0.02205 -0.32247,-0.02205 -0.20394,0 -0.45475,0.05512 -0.2508,0.05236 -0.51814,0.15434 h -0.0276 v -0.52641 q 0.15158,-0.04134 0.43822,-0.09095 0.28663,-0.04961 0.56499,-0.04961 0.32522,0 0.565,0.05512 0.24253,0.05237 0.41892,0.181901 0.17363,0.126779 0.26458,0.327972 0.0909,0.201194 0.0909,0.49885 z m -0.51538,-0.75792 v -0.857139 q -0.23703,0.01378 -0.55949,0.04134 -0.3197,0.02756 -0.50711,0.07993 -0.22325,0.06339 -0.36105,0.198437 -0.1378,0.132292 -0.1378,0.366558 0,0.264583 0.15985,0.399631 0.15985,0.132291 0.48782,0.132291 0.27286,0 0.49885,-0.10473 0.226,-0.107487 0.41893,-0.256315 z" />
      <path
         id="path906"
         style="font-size:5.64444px;fill:#666666;fill-opacity:1;stroke-width:0.10684"
         d="m 143.9033,65.084065 h -0.58429 v -0.537434 h 0.58429 z m -0.0331,3.593921 h -0.51814 v -3.078535 h 0.51814 z" />
      <path
         id="path908"
         style="font-size:5.64444px;fill:#666666;fill-opacity:1;stroke-width:0.10684"
         d="m 149.3934,68.677986 h -0.51815 v -1.752863 q 0,-0.198437 -0.0193,-0.383094 -0.0165,-0.184657 -0.0744,-0.2949 -0.0634,-0.118512 -0.1819,-0.179145 -0.11851,-0.06063 -0.34176,-0.06063 -0.21773,0 -0.43546,0.110243 -0.21773,0.107487 -0.43546,0.275608 0.008,0.06339 0.0138,0.148828 0.006,0.08268 0.006,0.165364 v 1.970593 h -0.51815 v -1.752863 q 0,-0.20395 -0.0193,-0.385851 -0.0165,-0.184656 -0.0744,-0.294899 -0.0634,-0.118512 -0.1819,-0.176389 -0.11851,-0.06063 -0.34176,-0.06063 -0.21221,0 -0.42719,0.104731 -0.21222,0.104731 -0.42443,0.267339 v 2.298566 h -0.51815 v -3.078535 h 0.51815 v 0.341753 q 0.24253,-0.201193 0.48231,-0.314192 0.24253,-0.112999 0.51539,-0.112999 0.31419,0 0.53192,0.132291 0.22048,0.132292 0.32797,0.366558 0.31419,-0.264583 0.57326,-0.380338 0.25908,-0.118511 0.55398,-0.118511 0.50711,0 0.74689,0.30868 0.24254,0.305924 0.24254,0.857139 z" />
      <path
         id="path910"
         style="font-size:5.64444px;fill:#666666;fill-opacity:1;stroke-width:0.10684"
         d="m 152.78337,68.677986 h -0.51539 v -0.327973 q -0.0689,0.04685 -0.18741,0.132292 -0.11576,0.08268 -0.226,0.132291 -0.12953,0.06339 -0.29766,0.104731 -0.16812,0.0441 -0.39411,0.0441 -0.41617,0 -0.70556,-0.275607 -0.28939,-0.275607 -0.28939,-0.702799 0,-0.350021 0.14883,-0.564995 0.15159,-0.21773 0.42995,-0.341753 0.28112,-0.124024 0.67524,-0.168121 0.39412,-0.0441 0.84611,-0.06615 v -0.07993 q 0,-0.176389 -0.0634,-0.292144 -0.0606,-0.115755 -0.17639,-0.181901 -0.11024,-0.06339 -0.26458,-0.08544 -0.15434,-0.02205 -0.32246,-0.02205 -0.20395,0 -0.45475,0.05512 -0.25081,0.05236 -0.51814,0.15434 h -0.0276 v -0.52641 q 0.15159,-0.04134 0.43822,-0.09095 0.28663,-0.04961 0.565,-0.04961 0.32521,0 0.56499,0.05512 0.24254,0.05237 0.41892,0.181901 0.17364,0.126779 0.26459,0.327972 0.0909,0.201194 0.0909,0.49885 z m -0.51539,-0.75792 v -0.857139 q -0.23702,0.01378 -0.55948,0.04134 -0.31971,0.02756 -0.50712,0.07993 -0.22324,0.06339 -0.36104,0.198437 -0.13781,0.132292 -0.13781,0.366558 0,0.264583 0.15985,0.399631 0.15986,0.132291 0.48783,0.132291 0.27285,0 0.49885,-0.10473 0.226,-0.107487 0.41892,-0.256315 z" />
      <path
         id="path912"
         style="font-size:5.64444px;fill:#666666;fill-opacity:1;stroke-width:0.10684"
         d="m 156.28358,68.327965 q 0,0.782725 -0.35553,1.149283 -0.35554,0.366558 -1.09417,0.366558 -0.24529,0 -0.47955,-0.03583 -0.23151,-0.03307 -0.45751,-0.09646 v -0.529166 h 0.0276 q 0.12678,0.04961 0.40239,0.121267 0.2756,0.07441 0.55121,0.07441 0.26459,0 0.43822,-0.06339 0.17363,-0.06339 0.27009,-0.176388 0.0965,-0.107487 0.13781,-0.259071 0.0413,-0.151585 0.0413,-0.338998 v -0.281119 q -0.23427,0.187413 -0.44924,0.281119 -0.21222,0.09095 -0.54295,0.09095 -0.55121,0 -0.87643,-0.396875 -0.32246,-0.399631 -0.32246,-1.124478 0,-0.396875 0.11024,-0.683507 0.113,-0.289387 0.30593,-0.498849 0.17914,-0.195681 0.43546,-0.303168 0.25631,-0.110243 0.50987,-0.110243 0.26734,0 0.44648,0.05512 0.1819,0.05237 0.3831,0.162609 l 0.0331,-0.132292 h 0.48507 z m -0.51814,-0.496094 v -1.678449 q -0.20671,-0.09371 -0.38585,-0.132291 -0.17639,-0.04134 -0.35278,-0.04134 -0.42719,0 -0.67248,0.286632 -0.24529,0.286632 -0.24529,0.832335 0,0.518142 0.1819,0.785481 0.1819,0.267339 0.60358,0.267339 0.226,0 0.45199,-0.08544 0.22876,-0.08819 0.41893,-0.234267 z" />
      <path
         id="path914"
         style="font-size:5.64444px;fill:#666666;fill-opacity:1;stroke-width:0.10684"
         d="m 159.88026,67.192462 h -2.26825 q 0,0.283876 0.0854,0.496093 0.0854,0.209462 0.23427,0.34451 0.14331,0.132291 0.33899,0.198437 0.19844,0.06615 0.43546,0.06615 0.3142,0 0.63114,-0.124023 0.31971,-0.12678 0.45476,-0.248047 h 0.0276 v 0.564995 q -0.26183,0.110243 -0.53468,0.184657 -0.27285,0.07441 -0.57327,0.07441 -0.76618,0 -1.19613,-0.413411 -0.42995,-0.416167 -0.42995,-1.1796 0,-0.755164 0.41066,-1.198892 0.41341,-0.443728 1.08589,-0.443728 0.62287,0 0.95911,0.363802 0.339,0.363801 0.339,1.033528 z m -0.50436,-0.396875 q -0.003,-0.407899 -0.20671,-0.631141 -0.20119,-0.223242 -0.6146,-0.223242 -0.41617,0 -0.66422,0.245291 -0.24529,0.245291 -0.27836,0.609092 z" />
      <path
         id="path916"
         style="font-size:5.64444px;fill:#666666;fill-opacity:1;stroke-width:0.10684"
         d="M 165.15814,68.677986 H 164.64 v -1.752863 q 0,-0.198437 -0.0193,-0.383094 -0.0165,-0.184657 -0.0744,-0.2949 -0.0634,-0.118512 -0.1819,-0.179145 -0.11851,-0.06063 -0.34175,-0.06063 -0.21773,0 -0.43546,0.110243 -0.21773,0.107487 -0.43546,0.275608 0.008,0.06339 0.0138,0.148828 0.006,0.08268 0.006,0.165364 v 1.970593 h -0.51814 v -1.752863 q 0,-0.20395 -0.0193,-0.385851 -0.0165,-0.184656 -0.0744,-0.294899 -0.0634,-0.118512 -0.1819,-0.176389 -0.11851,-0.06063 -0.34175,-0.06063 -0.21222,0 -0.42719,0.104731 -0.21222,0.104731 -0.42444,0.267339 v 2.298566 h -0.51814 v -3.078535 h 0.51814 v 0.341753 q 0.24253,-0.201193 0.48231,-0.314192 0.24254,-0.112999 0.51539,-0.112999 0.31419,0 0.53192,0.132291 0.22049,0.132292 0.32797,0.366558 0.3142,-0.264583 0.57327,-0.380338 0.25907,-0.118511 0.55397,-0.118511 0.50712,0 0.7469,0.30868 0.24253,0.305924 0.24253,0.857139 z" />
      <path
         id="path918"
         style="font-size:5.64444px;fill:#666666;fill-opacity:1;stroke-width:0.10684"
         d="m 170.63722,68.677986 h -0.51814 v -0.322461 q -0.22325,0.192926 -0.46578,0.300413 -0.24254,0.107486 -0.52641,0.107486 -0.55122,0 -0.87643,-0.424435 -0.32246,-0.424435 -0.32246,-1.176844 0,-0.391362 0.11024,-0.697287 0.113,-0.305924 0.30317,-0.520898 0.18741,-0.209461 0.43546,-0.319704 0.2508,-0.110243 0.51814,-0.110243 0.24253,0 0.42995,0.05236 0.18741,0.04961 0.39412,0.157096 v -1.333939 h 0.51814 z m -0.51814,-0.75792 v -1.766644 q -0.20947,-0.09371 -0.37483,-0.129535 -0.16536,-0.03583 -0.36105,-0.03583 -0.43546,0 -0.67799,0.303168 -0.24253,0.303168 -0.24253,0.859895 0,0.548459 0.18741,0.83509 0.18741,0.283876 0.60082,0.283876 0.22049,0 0.44649,-0.09646 0.22599,-0.09922 0.42168,-0.253559 z" />
      <path
         id="path920"
         style="font-size:5.64444px;fill:#666666;fill-opacity:1;stroke-width:0.10684"
         d="m 174.23389,67.192462 h -2.26825 q 0,0.283876 0.0854,0.496093 0.0854,0.209462 0.23427,0.34451 0.14331,0.132291 0.33899,0.198437 0.19844,0.06615 0.43546,0.06615 0.3142,0 0.63114,-0.124023 0.31971,-0.12678 0.45476,-0.248047 h 0.0276 v 0.564995 q -0.26183,0.110243 -0.53468,0.184657 -0.27285,0.07441 -0.57327,0.07441 -0.76618,0 -1.19613,-0.413411 -0.42995,-0.416167 -0.42995,-1.1796 0,-0.755164 0.41066,-1.198892 0.41341,-0.443728 1.08589,-0.443728 0.62287,0 0.95911,0.363802 0.339,0.363801 0.339,1.033528 z m -0.50436,-0.396875 q -0.003,-0.407899 -0.20671,-0.631141 -0.20119,-0.223242 -0.6146,-0.223242 -0.41617,0 -0.66422,0.245291 -0.24529,0.245291 -0.27836,0.609092 z" />
      <path
         id="path922"
         style="font-size:5.64444px;fill:#666666;fill-opacity:1;stroke-width:0.10684"
         d="m 177.68174,65.599451 -1.24575,3.078535 h -0.52089 l -1.23748,-3.078535 h 0.56224 l 0.9536,2.45015 0.94533,-2.45015 z" />
      <path
         id="path924"
         style="font-size:5.64444px;fill:#666666;fill-opacity:1;stroke-width:0.10684"
         d="m 180.89257,67.192462 h -2.26825 q 0,0.283876 0.0854,0.496093 0.0854,0.209462 0.23426,0.34451 0.14332,0.132291 0.339,0.198437 0.19844,0.06615 0.43546,0.06615 0.31419,0 0.63114,-0.124023 0.3197,-0.12678 0.45475,-0.248047 h 0.0276 v 0.564995 q -0.26182,0.110243 -0.53468,0.184657 -0.27285,0.07441 -0.57326,0.07441 -0.76619,0 -1.19614,-0.413411 -0.42994,-0.416167 -0.42994,-1.1796 0,-0.755164 0.41065,-1.198892 0.41341,-0.443728 1.0859,-0.443728 0.62287,0 0.95911,0.363802 0.339,0.363801 0.339,1.033528 z m -0.50437,-0.396875 q -0.003,-0.407899 -0.2067,-0.631141 -0.20119,-0.223242 -0.61461,-0.223242 -0.41616,0 -0.66421,0.245291 -0.24529,0.245291 -0.27836,0.609092 z" />
      <path
         id="path926"
         style="font-size:5.64444px;fill:#666666;fill-opacity:1;stroke-width:0.10684"
         d="m 185.86177,67.79053 q 0,0.42168 -0.35002,0.691775 -0.34727,0.270095 -0.95085,0.270095 -0.34175,0 -0.62838,-0.07993 -0.28388,-0.08268 -0.4768,-0.179145 v -0.581532 h 0.0276 q 0.24529,0.184657 0.5457,0.2949 0.30041,0.107487 0.57602,0.107487 0.34175,0 0.53468,-0.110243 0.19292,-0.110243 0.19292,-0.347265 0,-0.181901 -0.10473,-0.275607 -0.10473,-0.09371 -0.40238,-0.159853 -0.11025,-0.0248 -0.28939,-0.05788 -0.17639,-0.03307 -0.32246,-0.07166 -0.40514,-0.107487 -0.57602,-0.314193 -0.16812,-0.209461 -0.16812,-0.51263 0,-0.190169 0.0772,-0.358289 0.0799,-0.168121 0.23978,-0.300412 0.15434,-0.129536 0.39136,-0.20395 0.23978,-0.07717 0.53468,-0.07717 0.27561,0 0.55672,0.0689 0.28388,0.06615 0.47129,0.162608 v 0.553971 h -0.0276 q -0.19843,-0.146072 -0.48231,-0.24529 -0.28388,-0.101975 -0.55673,-0.101975 -0.28387,0 -0.47955,0.110243 -0.19569,0.107487 -0.19569,0.322461 0,0.190169 0.11852,0.286631 0.11575,0.09646 0.37482,0.157097 0.14332,0.03307 0.31971,0.06614 0.17914,0.03307 0.29765,0.06063 0.36105,0.08268 0.55673,0.283876 0.19568,0.203949 0.19568,0.54019 z" />
      <path
         id="path928"
         style="font-size:5.64444px;fill:#666666;fill-opacity:1;stroke-width:0.10684"
         d="m 189.18284,67.192462 h -2.26825 q 0,0.283876 0.0854,0.496093 0.0854,0.209462 0.23427,0.34451 0.14331,0.132291 0.33899,0.198437 0.19844,0.06615 0.43546,0.06615 0.3142,0 0.63115,-0.124023 0.3197,-0.12678 0.45475,-0.248047 h 0.0276 v 0.564995 q -0.26183,0.110243 -0.53468,0.184657 -0.27285,0.07441 -0.57326,0.07441 -0.76619,0 -1.19614,-0.413411 -0.42995,-0.416167 -0.42995,-1.1796 0,-0.755164 0.41066,-1.198892 0.41341,-0.443728 1.08589,-0.443728 0.62287,0 0.95911,0.363802 0.339,0.363801 0.339,1.033528 z m -0.50436,-0.396875 q -0.003,-0.407899 -0.20671,-0.631141 -0.20119,-0.223242 -0.6146,-0.223242 -0.41617,0 -0.66421,0.245291 -0.24529,0.245291 -0.27837,0.609092 z" />
      <path
         id="path930"
         style="font-size:5.64444px;fill:#666666;fill-opacity:1;stroke-width:0.10684"
         d="m 191.88931,66.164446 h -0.0276 q -0.11576,-0.02756 -0.226,-0.03858 -0.10749,-0.01378 -0.25632,-0.01378 -0.23977,0 -0.46302,0.107487 -0.22324,0.104731 -0.42994,0.272851 v 2.185567 h -0.51815 v -3.078535 h 0.51815 v 0.454752 q 0.30868,-0.248046 0.54294,-0.350021 0.23703,-0.104731 0.48232,-0.104731 0.13504,0 0.19568,0.0083 0.0606,0.0055 0.1819,0.02481 z" />
      <path
         id="path932"
         style="font-size:5.64444px;fill:#666666;fill-opacity:1;stroke-width:0.10684"
         d="m 196.86402,68.677986 h -0.51815 v -0.322461 q -0.22324,0.192926 -0.46577,0.300413 -0.24254,0.107486 -0.52641,0.107486 -0.55122,0 -0.87643,-0.424435 -0.32246,-0.424435 -0.32246,-1.176844 0,-0.391362 0.11024,-0.697287 0.113,-0.305924 0.30317,-0.520898 0.18741,-0.209461 0.43546,-0.319704 0.2508,-0.110243 0.51814,-0.110243 0.24253,0 0.42995,0.05236 0.18741,0.04961 0.39411,0.157096 v -1.333939 h 0.51815 z m -0.51815,-0.75792 v -1.766644 q -0.20946,-0.09371 -0.37482,-0.129535 -0.16537,-0.03583 -0.36105,-0.03583 -0.43546,0 -0.67799,0.303168 -0.24254,0.303168 -0.24254,0.859895 0,0.548459 0.18742,0.83509 0.18741,0.283876 0.60082,0.283876 0.22049,0 0.44649,-0.09646 0.22599,-0.09922 0.42167,-0.253559 z" />
      <path
         id="path934"
         style="font-size:5.64444px;fill:#666666;fill-opacity:1;stroke-width:0.10684"
         d="m 200.4607,67.192462 h -2.26825 q 0,0.283876 0.0854,0.496093 0.0854,0.209462 0.23426,0.34451 0.14332,0.132291 0.339,0.198437 0.19844,0.06615 0.43546,0.06615 0.31419,0 0.63114,-0.124023 0.3197,-0.12678 0.45475,-0.248047 h 0.0276 v 0.564995 q -0.26182,0.110243 -0.53468,0.184657 -0.27285,0.07441 -0.57326,0.07441 -0.76619,0 -1.19613,-0.413411 -0.42995,-0.416167 -0.42995,-1.1796 0,-0.755164 0.41065,-1.198892 0.41341,-0.443728 1.0859,-0.443728 0.62287,0 0.95911,0.363802 0.339,0.363801 0.339,1.033528 z m -0.50436,-0.396875 q -0.003,-0.407899 -0.20671,-0.631141 -0.20119,-0.223242 -0.6146,-0.223242 -0.41617,0 -0.66422,0.245291 -0.24529,0.245291 -0.27836,0.609092 z" />
      <path
         id="path936"
         style="font-size:5.64444px;fill:#666666;fill-opacity:1;stroke-width:0.10684"
         d="m 204.87869,69.813489 h -0.63114 q -0.48783,-0.559483 -0.75793,-1.220941 -0.27009,-0.661458 -0.27009,-1.491036 0,-0.829579 0.27009,-1.491037 0.2701,-0.661457 0.75793,-1.22094 h 0.63114 v 0.02756 q -0.22325,0.201194 -0.4272,0.465777 -0.20119,0.261827 -0.37482,0.611848 -0.16537,0.338997 -0.2701,0.746896 -0.10197,0.407899 -0.10197,0.859896 0,0.471288 0.0992,0.862651 0.10197,0.391362 0.27285,0.74414 0.16536,0.338997 0.37758,0.611848 0.21222,0.275608 0.42444,0.465777 z" />
      <path
         id="path938"
         style="font-style:normal;font-variant:normal;font-weight:bold;font-stretch:normal;font-size:5.64444px;font-family:sans-serif;-inkscape-font-specification:'sans-serif Bold';fill:#1a1a1a"
         d="m 208.76199,68.677986 h -2.73954 v -0.716579 h 0.86541 v -2.169031 h -0.86541 V 65.12265 q 0.19844,0 0.38034,-0.02205 0.1819,-0.02481 0.30317,-0.08268 0.14332,-0.0689 0.21497,-0.179144 0.0717,-0.110243 0.0827,-0.275608 h 0.91226 v 3.39824 h 0.84611 z" />
      <path
         id="path940"
         style="font-style:normal;font-variant:normal;font-weight:bold;font-stretch:normal;font-size:5.64444px;font-family:sans-serif;-inkscape-font-specification:'sans-serif Bold';fill:#1a1a1a"
         d="m 213.03391,68.677986 h -3.22185 v -0.677994 q 0.36931,-0.267339 0.73863,-0.567751 0.37207,-0.300413 0.59531,-0.518142 0.33348,-0.322461 0.47404,-0.56224 0.14056,-0.239778 0.14056,-0.474044 0,-0.28112 -0.1819,-0.432704 -0.17914,-0.15434 -0.51814,-0.15434 -0.25356,0 -0.53468,0.104731 -0.27836,0.10473 -0.51814,0.267339 h -0.0882 V 64.75058 q 0.19568,-0.08544 0.57602,-0.170876 0.38309,-0.08544 0.76618,-0.08544 0.7717,0 1.17685,0.325217 0.40514,0.322461 0.40514,0.915017 0,0.388606 -0.19568,0.738628 -0.19293,0.350021 -0.59256,0.722091 -0.2508,0.23151 -0.50436,0.427192 -0.25356,0.192925 -0.36104,0.270095 h 1.84381 z" />
      <path
         id="path942"
         style="font-style:normal;font-variant:normal;font-weight:bold;font-stretch:normal;font-size:5.64444px;font-family:sans-serif;-inkscape-font-specification:'sans-serif Bold';fill:#1a1a1a"
         d="m 217.05502,67.531459 q 0,0.545703 -0.46578,0.892968 -0.46302,0.347266 -1.2733,0.347266 -0.45476,0 -0.77997,-0.09371 -0.32522,-0.09371 -0.53744,-0.259071 -0.20946,-0.162608 -0.31143,-0.380338 -0.0992,-0.21773 -0.0992,-0.468533 0,-0.30868 0.17914,-0.545702 0.1819,-0.239779 0.62563,-0.418924 v -0.01654 q -0.35829,-0.165365 -0.52641,-0.416167 -0.16812,-0.250803 -0.16812,-0.581532 0,-0.487825 0.452,-0.799262 0.45199,-0.311436 1.17684,-0.311436 0.76068,0 1.19062,0.283876 0.43271,0.281119 0.43271,0.752408 0,0.292144 -0.1819,0.520898 -0.1819,0.228754 -0.55673,0.388606 v 0.01654 q 0.42995,0.162608 0.63665,0.438216 0.20671,0.275607 0.20671,0.650433 z m -1.13826,-1.896179 q 0,-0.209462 -0.16261,-0.333485 -0.15985,-0.124023 -0.42719,-0.124023 -0.0992,0 -0.20395,0.0248 -0.10197,0.02481 -0.18741,0.07166 -0.0799,0.04685 -0.13229,0.124024 -0.0524,0.07441 -0.0524,0.170876 0,0.162609 0.0909,0.253559 0.0937,0.09095 0.30317,0.181901 0.0772,0.03307 0.20946,0.08268 0.13505,0.04685 0.32522,0.107487 0.12678,-0.148828 0.1819,-0.267339 0.0551,-0.118511 0.0551,-0.292144 z m 0.0854,1.943032 q 0,-0.198437 -0.0992,-0.300412 -0.0992,-0.101974 -0.4079,-0.234266 -0.0909,-0.04134 -0.26458,-0.101975 -0.17364,-0.06063 -0.29215,-0.10473 -0.11851,0.107486 -0.21497,0.261827 -0.0937,0.151584 -0.0937,0.341753 0,0.286632 0.20395,0.457508 0.20671,0.168121 0.53744,0.168121 0.0882,0 0.2067,-0.02481 0.11851,-0.02756 0.20395,-0.08268 0.0992,-0.06339 0.15985,-0.148828 0.0606,-0.08544 0.0606,-0.231511 z" />
      <path
         id="path944"
         style="font-style:normal;font-variant:normal;font-weight:bold;font-stretch:normal;font-size:5.64444px;font-family:sans-serif;-inkscape-font-specification:'sans-serif Bold';fill:#1a1a1a"
         d="m 221.03204,66.624711 q 0,0.518142 -0.0937,0.928797 -0.0937,0.407899 -0.29214,0.669726 -0.20395,0.267339 -0.52366,0.405143 -0.3197,0.135047 -0.78823,0.135047 -0.46027,0 -0.78549,-0.137803 -0.32521,-0.137804 -0.52641,-0.407899 -0.20395,-0.270096 -0.2949,-0.669726 -0.0909,-0.402387 -0.0909,-0.920529 0,-0.534679 0.0937,-0.928797 0.0937,-0.394119 0.29766,-0.66697 0.20395,-0.270095 0.52916,-0.405143 0.32522,-0.135048 0.77722,-0.135048 0.47128,0 0.79099,0.14056 0.3197,0.137804 0.52365,0.413411 0.2012,0.270095 0.29215,0.66697 0.0909,0.394119 0.0909,0.912261 z m -1.0666,0 q 0,-0.74414 -0.14608,-1.058333 -0.14607,-0.316948 -0.48506,-0.316948 -0.339,0 -0.48507,0.316948 -0.14608,0.314193 -0.14608,1.063845 0,0.73036 0.14883,1.05282 0.14883,0.322461 0.48232,0.322461 0.33348,0 0.48231,-0.322461 0.14883,-0.32246 0.14883,-1.058332 z" />
      <path
         id="path946"
         style="font-style:normal;font-variant:normal;font-weight:bold;font-stretch:normal;font-size:5.64444px;font-family:sans-serif;-inkscape-font-specification:'sans-serif Bold';fill:#1a1a1a"
         d="m 226.97413,68.677986 h -1.15755 l -0.66146,-0.926041 -0.67799,0.926041 h -1.13551 l 1.22094,-1.546158 -1.20164,-1.548913 h 1.15755 l 0.65043,0.909504 0.65319,-0.909504 h 1.13826 l -1.2044,1.524109 z" />
      <path
         id="path948"
         style="font-style:normal;font-variant:normal;font-weight:bold;font-stretch:normal;font-size:5.64444px;font-family:sans-serif;-inkscape-font-specification:'sans-serif Bold';fill:#1a1a1a"
         d="m 232.62408,67.288925 q 0,0.319704 -0.12127,0.595312 -0.11851,0.272851 -0.34727,0.468532 -0.25356,0.209462 -0.58429,0.311437 -0.32797,0.09922 -0.74965,0.09922 -0.49333,-0.0028 -0.83509,-0.07993 -0.33899,-0.07441 -0.55397,-0.16812 v -0.906749 h 0.11576 q 0.2508,0.148828 0.54019,0.248047 0.28938,0.09922 0.57602,0.09922 0.17363,0 0.37482,-0.03858 0.20395,-0.04134 0.32246,-0.146072 0.0937,-0.08544 0.14056,-0.173633 0.0496,-0.08819 0.0496,-0.272851 0,-0.143316 -0.0661,-0.245291 -0.0634,-0.104731 -0.16537,-0.16812 -0.14883,-0.09095 -0.35829,-0.118512 -0.20946,-0.03032 -0.38034,-0.03032 -0.24804,0 -0.4768,0.0441 -0.22599,0.04134 -0.39687,0.08268 h -0.12127 v -2.315102 h 2.91868 v 0.785481 h -1.92374 v 0.669726 q 0.0854,-0.0055 0.21498,-0.0083 0.13229,-0.0055 0.23151,-0.0055 0.339,0 0.60358,0.06615 0.26734,0.06339 0.46026,0.179145 0.25081,0.151584 0.39137,0.402387 0.14056,0.248047 0.14056,0.625629 z" />
      <path
         id="path950"
         style="font-style:normal;font-variant:normal;font-weight:bold;font-stretch:normal;font-size:5.64444px;font-family:sans-serif;-inkscape-font-specification:'sans-serif Bold';fill:#1a1a1a"
         d="m 236.46605,68.677986 h -2.73954 v -0.716579 h 0.86541 v -2.169031 h -0.86541 V 65.12265 q 0.19844,0 0.38034,-0.02205 0.1819,-0.02481 0.30317,-0.08268 0.14331,-0.0689 0.21497,-0.179144 0.0717,-0.110243 0.0827,-0.275608 h 0.91226 v 3.39824 h 0.84612 z" />
      <path
         id="path952"
         style="font-style:normal;font-variant:normal;font-weight:bold;font-stretch:normal;font-size:5.64444px;font-family:sans-serif;-inkscape-font-specification:'sans-serif Bold';fill:#1a1a1a"
         d="m 240.73797,68.677986 h -3.22186 v -0.677994 q 0.36932,-0.267339 0.73863,-0.567751 0.37207,-0.300413 0.59531,-0.518142 0.33349,-0.322461 0.47405,-0.56224 0.14056,-0.239778 0.14056,-0.474044 0,-0.28112 -0.1819,-0.432704 -0.17915,-0.15434 -0.51814,-0.15434 -0.25356,0 -0.53468,0.104731 -0.27837,0.10473 -0.51814,0.267339 h -0.0882 V 64.75058 q 0.19568,-0.08544 0.57602,-0.170876 0.3831,-0.08544 0.76619,-0.08544 0.7717,0 1.17684,0.325217 0.40515,0.322461 0.40515,0.915017 0,0.388606 -0.19568,0.738628 -0.19293,0.350021 -0.59256,0.722091 -0.2508,0.23151 -0.50436,0.427192 -0.25356,0.192925 -0.36105,0.270095 h 1.84382 z" />
      <path
         id="path954"
         style="font-size:5.64444px;fill:#666666;fill-opacity:1;stroke-width:0.10684"
         d="m 243.08339,67.101512 q 0,0.829578 -0.2701,1.491036 -0.27009,0.661458 -0.75792,1.220941 h -0.63114 v -0.02756 q 0.21222,-0.190169 0.42444,-0.465777 0.21497,-0.272851 0.37758,-0.611848 0.17088,-0.352778 0.27009,-0.74414 0.10198,-0.391363 0.10198,-0.862651 0,-0.451997 -0.10198,-0.859896 -0.10197,-0.407899 -0.27009,-0.746896 -0.17363,-0.350021 -0.37758,-0.611848 -0.2012,-0.264583 -0.42444,-0.465777 v -0.02756 h 0.63114 q 0.48783,0.559483 0.75792,1.22094 0.2701,0.661458 0.2701,1.491037 z" />
      <path
         id="path956"
         style="font-size:5.64444px;fill:#666666;fill-opacity:1;stroke-width:0.10684"
         d="m 248.79121,67.101512 q 0,0.374826 -0.10749,0.686262 -0.10749,0.30868 -0.30317,0.523654 -0.1819,0.20395 -0.42994,0.316949 -0.2453,0.110243 -0.5209,0.110243 -0.23978,0 -0.43546,-0.05237 -0.19293,-0.05237 -0.39412,-0.162608 v 1.289843 h -0.51814 v -4.214038 h 0.51814 v 0.322461 q 0.2067,-0.173633 0.46302,-0.289388 0.25907,-0.118511 0.55121,-0.118511 0.55673,0 0.86541,0.421679 0.31144,0.418924 0.31144,1.16582 z m -0.53468,0.01378 q 0,-0.556727 -0.19017,-0.832334 -0.19017,-0.275608 -0.58429,-0.275608 -0.22324,0 -0.44924,0.09646 -0.226,0.09646 -0.4327,0.253559 v 1.744595 q 0.22048,0.09922 0.37758,0.135047 0.15985,0.03583 0.36105,0.03583 0.4327,0 0.67523,-0.292144 0.24254,-0.292144 0.24254,-0.865407 z" />
      <path
         id="path958"
         style="font-size:5.64444px;fill:#666666;fill-opacity:1;stroke-width:0.10684"
         d="m 250.15547,65.084065 h -0.58429 v -0.537434 h 0.58429 z m -0.0331,3.593921 h -0.51815 v -3.078535 h 0.51815 z" />
      <path
         id="path960"
         style="font-size:5.64444px;fill:#666666;fill-opacity:1;stroke-width:0.10684"
         d="m 253.81829,68.677986 h -0.65319 l -0.87367,-1.182356 -0.87919,1.182356 h -0.60358 l 1.20165,-1.535133 -1.19063,-1.543402 h 0.65319 l 0.86817,1.163064 0.87092,-1.163064 h 0.60633 l -1.20991,1.515841 z" />
      <path
         id="path962"
         style="font-size:5.64444px;fill:#666666;fill-opacity:1;stroke-width:0.10684"
         d="m 257.00431,67.192462 h -2.26824 q 0,0.283876 0.0854,0.496093 0.0854,0.209462 0.23427,0.34451 0.14332,0.132291 0.339,0.198437 0.19843,0.06615 0.43546,0.06615 0.31419,0 0.63114,-0.124023 0.3197,-0.12678 0.45475,-0.248047 h 0.0276 v 0.564995 q -0.26183,0.110243 -0.53468,0.184657 -0.27285,0.07441 -0.57326,0.07441 -0.76619,0 -1.19614,-0.413411 -0.42995,-0.416167 -0.42995,-1.1796 0,-0.755164 0.41066,-1.198892 0.41341,-0.443728 1.08589,-0.443728 0.62288,0 0.95912,0.363802 0.33899,0.363801 0.33899,1.033528 z m -0.50436,-0.396875 q -0.003,-0.407899 -0.2067,-0.631141 -0.2012,-0.223242 -0.61461,-0.223242 -0.41616,0 -0.66421,0.245291 -0.24529,0.245291 -0.27836,0.609092 z" />
      <path
         id="path964"
         style="font-size:5.64444px;fill:#666666;fill-opacity:1;stroke-width:0.10684"
         d="m 258.31345,68.677986 h -0.51814 v -4.288451 h 0.51814 z" />
    </g>
  </g>
</svg>
