<?xml version="1.0" encoding="UTF-8" standalone="no"?>
<svg
   xmlns:dc="http://purl.org/dc/elements/1.1/"
   xmlns:cc="http://creativecommons.org/ns#"
   xmlns:rdf="http://www.w3.org/1999/02/22-rdf-syntax-ns#"
   xmlns:svg="http://www.w3.org/2000/svg"
   xmlns="http://www.w3.org/2000/svg"
   xmlns:sodipodi="http://sodipodi.sourceforge.net/DTD/sodipodi-0.dtd"
   xmlns:inkscape="http://www.inkscape.org/namespaces/inkscape"
   width="275"
   height="81.360336"
   viewBox="0 0 72.760414 21.526588"
   version="1.1"
   id="svg8"
   inkscape:version="1.0 (4035a4fb49, 2020-05-01)"
   sodipodi:docname="img-logo-empresa.svg">
  <defs
     id="defs2" />
  <sodipodi:namedview
     id="base"
     pagecolor="#ffffff"
     bordercolor="#666666"
     borderopacity="1.0"
     inkscape:pageopacity="0.0"
     inkscape:pageshadow="2"
     inkscape:zoom="1.979899"
     inkscape:cx="142.61496"
     inkscape:cy="86.268792"
     inkscape:document-units="px"
     inkscape:current-layer="layer1"
     inkscape:document-rotation="0"
     showgrid="false"
     units="px"
     inkscape:window-width="1344"
     inkscape:window-height="728"
     inkscape:window-x="0"
     inkscape:window-y="0"
     inkscape:window-maximized="0" />
  <metadata
     id="metadata5">
    <rdf:RDF>
      <cc:Work
         rdf:about="">
        <dc:format>image/svg+xml</dc:format>
        <dc:type
           rdf:resource="http://purl.org/dc/dcmitype/StillImage" />
        <dc:title></dc:title>
      </cc:Work>
    </rdf:RDF>
  </metadata>
  <g
     inkscape:label="Layer 1"
     inkscape:groupmode="layer"
     id="layer1"
     transform="translate(2.0010781e-8,-6.7275133)">
    <rect
       style="fill:#cccccc;stroke-width:0.198146;stroke-linecap:square;stroke-linejoin:round;paint-order:markers stroke fill"
       id="rect833"
       width="72.760414"
       height="21.526588"
       x="-2.0010781e-08"
       y="6.7275133" />
    <path
       id="path835"
       d="m 20.907342,13.435226 v 9.351698 c 0,0.860487 -0.718101,1.558617 -1.603218,1.558617 H 5.4096558 c -0.8851071,0 -1.6032178,-0.69813 -1.6032178,-1.558617 v -9.351698 c 0,-0.860488 0.7181107,-1.558616 1.6032178,-1.558616 H 8.3488639 L 8.7596935,10.808308 C 8.9934923,10.201095 9.5913583,9.7984533 10.259363,9.7984533 h 4.191719 c 0.668004,0 1.26587,0.4026417 1.499669,1.0098547 l 0.414156,1.068302 h 2.939217 c 0.885117,0 1.603218,0.698128 1.603218,1.558616 z m -4.542435,4.675851 c 0,-2.149593 -1.796925,-3.896542 -4.008018,-3.896542 -2.211098,0 -4.0080251,1.746949 -4.0080251,3.896542 0,2.149589 1.7969271,3.896539 4.0080251,3.896539 2.211093,0 4.008018,-1.74695 4.008018,-3.896539 z m -1.068809,0 c 0,1.574852 -1.319293,2.857461 -2.939209,2.857461 -1.619903,0 -2.9392159,-1.282609 -2.9392159,-2.857461 0,-1.574854 1.3193129,-2.857467 2.9392159,-2.857467 1.619916,0 2.939209,1.282613 2.939209,2.857467 z"
       style="fill:#808080;stroke-width:0.0329323" />
    <g
       style="font-style:normal;font-weight:normal;font-size:4.93889px;line-height:1.25;font-family:sans-serif;fill:#333333;fill-opacity:1;stroke:none;stroke-width:0.264583"
       id="text947"
       aria-label="CARREGAR LOGO">
      <path
         id="path1024"
         style="font-size:4.93889px;fill:#333333;fill-opacity:1;stroke-width:0.264583"
         d="m 28.512583,15.153323 q -0.132636,0.05788 -0.241156,0.108521 -0.106109,0.05064 -0.279742,0.106109 -0.147106,0.04582 -0.320739,0.07717 -0.171221,0.03376 -0.378616,0.03376 -0.390674,0 -0.711412,-0.108521 -0.318327,-0.110932 -0.55466,-0.344854 -0.231511,-0.229099 -0.361736,-0.581188 -0.130224,-0.3545 -0.130224,-0.822344 0,-0.443728 0.125401,-0.793406 0.125402,-0.349677 0.361735,-0.590834 0.229099,-0.233922 0.552249,-0.356912 0.325562,-0.12299 0.721059,-0.12299 0.289388,0 0.576365,0.06994 0.289388,0.06994 0.641476,0.24598 v 0.566718 h -0.03617 q -0.296623,-0.248391 -0.588422,-0.361735 -0.2918,-0.113344 -0.624596,-0.113344 -0.272508,0 -0.49196,0.08923 -0.217041,0.08682 -0.388262,0.272507 -0.166399,0.180868 -0.26045,0.458198 -0.09164,0.274919 -0.09164,0.636654 0,0.378616 0.101286,0.651123 0.103697,0.272507 0.265272,0.443729 0.16881,0.178456 0.393085,0.265272 0.226688,0.08441 0.477491,0.08441 0.344854,0 0.6463,-0.118167 0.301446,-0.118167 0.564307,-0.3545 h 0.03376 z" />
      <path
         id="path1026"
         style="font-size:4.93889px;fill:#333333;fill-opacity:1;stroke-width:0.264583"
         d="m 32.023825,15.413773 h -0.50884 l -0.352089,-1.000801 h -1.553049 l -0.352089,1.000801 h -0.484725 l 1.307069,-3.590824 h 0.636654 z m -1.008035,-1.410767 -0.629419,-1.762856 -0.63183,1.762856 z" />
      <path
         id="path1028"
         style="font-size:4.93889px;fill:#333333;fill-opacity:1;stroke-width:0.264583"
         d="M 35.53989,15.413773 H 34.920118 L 33.719157,13.986125 H 33.04633 v 1.427648 h -0.477491 v -3.590824 h 1.005624 q 0.325562,0 0.542603,0.04341 0.217041,0.041 0.390674,0.149517 0.195337,0.12299 0.303857,0.311092 0.110932,0.185691 0.110932,0.472668 0,0.388262 -0.195337,0.651123 -0.195337,0.260449 -0.537779,0.393085 z m -1.116555,-2.580378 q 0,-0.15434 -0.05547,-0.272507 -0.05306,-0.120578 -0.178456,-0.202571 -0.103698,-0.06994 -0.24598,-0.09646 -0.142283,-0.02894 -0.335208,-0.02894 H 33.04633 v 1.355301 h 0.482313 q 0.226688,0 0.395497,-0.03858 0.16881,-0.041 0.286977,-0.149517 0.10852,-0.101286 0.159163,-0.231511 0.05306,-0.132636 0.05306,-0.335208 z" />
      <path
         id="path1030"
         style="font-size:4.93889px;fill:#333333;fill-opacity:1;stroke-width:0.264583"
         d="M 38.973963,15.413773 H 38.35419 l -1.20096,-1.427648 h -0.672828 v 1.427648 h -0.47749 v -3.590824 h 1.005623 q 0.325562,0 0.542603,0.04341 0.217041,0.041 0.390674,0.149517 0.195337,0.12299 0.303858,0.311092 0.110932,0.185691 0.110932,0.472668 0,0.388262 -0.195337,0.651123 -0.195337,0.260449 -0.53778,0.393085 z m -1.116556,-2.580378 q 0,-0.15434 -0.05547,-0.272507 -0.05305,-0.120578 -0.178456,-0.202571 -0.103697,-0.06994 -0.24598,-0.09646 -0.142282,-0.02894 -0.335208,-0.02894 h -0.561895 v 1.355301 h 0.482314 q 0.226687,0 0.395497,-0.03858 0.168809,-0.041 0.286976,-0.149517 0.108521,-0.101286 0.159164,-0.231511 0.05305,-0.132636 0.05305,-0.335208 z" />
      <path
         id="path1032"
         style="font-size:4.93889px;fill:#333333;fill-opacity:1;stroke-width:0.264583"
         d="m 41.802731,15.413773 h -2.365748 v -3.590824 h 2.365748 v 0.424436 h -1.888257 v 0.983919 h 1.888257 v 0.424436 h -1.888257 v 1.333597 h 1.888257 z" />
      <path
         id="path1034"
         style="font-size:4.93889px;fill:#333333;fill-opacity:1;stroke-width:0.264583"
         d="m 45.557541,15.1485 q -0.294211,0.135048 -0.643888,0.236334 -0.347266,0.09887 -0.672828,0.09887 -0.419612,0 -0.76929,-0.115755 -0.349677,-0.115755 -0.595657,-0.347266 -0.248391,-0.233922 -0.383439,-0.583599 -0.135048,-0.352089 -0.135048,-0.822345 0,-0.860929 0.501606,-1.357712 0.504018,-0.499195 1.381828,-0.499195 0.306269,0 0.624596,0.07476 0.320739,0.07235 0.689709,0.248391 v 0.566719 h -0.04341 q -0.07476,-0.05788 -0.217041,-0.151929 -0.142282,-0.09405 -0.279742,-0.156752 -0.166398,-0.07476 -0.378616,-0.12299 -0.209806,-0.05064 -0.47749,-0.05064 -0.602892,0 -0.954981,0.388263 -0.349677,0.38585 -0.349677,1.04662 0,0.696943 0.366558,1.085205 0.366559,0.385851 0.998389,0.385851 0.231511,0 0.46061,-0.04582 0.23151,-0.04582 0.405143,-0.118167 v -0.880222 h -0.962215 v -0.419612 h 1.434882 z" />
      <path
         id="path1036"
         style="font-size:4.93889px;fill:#333333;fill-opacity:1;stroke-width:0.264583"
         d="m 49.223123,15.413773 h -0.50884 l -0.352089,-1.000801 h -1.55305 l -0.352088,1.000801 H 45.972331 L 47.2794,11.822949 h 0.636654 z m -1.008035,-1.410767 -0.629419,-1.762856 -0.631831,1.762856 z" />
      <path
         id="path1038"
         style="font-size:4.93889px;fill:#333333;fill-opacity:1;stroke-width:0.264583"
         d="m 52.73919,15.413773 h -0.619773 l -1.20096,-1.427648 H 50.24563 v 1.427648 h -0.477491 v -3.590824 h 1.005624 q 0.325561,0 0.542602,0.04341 0.217042,0.041 0.390674,0.149517 0.195337,0.12299 0.303858,0.311092 0.110932,0.185691 0.110932,0.472668 0,0.388262 -0.195337,0.651123 -0.195337,0.260449 -0.53778,0.393085 z m -1.116555,-2.580378 q 0,-0.15434 -0.05547,-0.272507 -0.05305,-0.120578 -0.178456,-0.202571 -0.103697,-0.06994 -0.245979,-0.09646 -0.142283,-0.02894 -0.335208,-0.02894 H 50.24563 v 1.355301 h 0.482313 q 0.226687,0 0.395497,-0.03858 0.16881,-0.041 0.286977,-0.149517 0.10852,-0.101286 0.159163,-0.231511 0.05306,-0.132636 0.05306,-0.335208 z" />
      <path
         id="path1040"
         style="font-size:4.93889px;fill:#333333;fill-opacity:1;stroke-width:0.264583"
         d="m 57.210234,15.413773 h -2.271696 v -3.590824 h 0.47749 v 3.166388 h 1.794206 z" />
      <path
         id="path1042"
         style="font-size:4.93889px;fill:#333333;fill-opacity:1;stroke-width:0.264583"
         d="m 60.316334,12.235327 q 0.219453,0.241157 0.335208,0.590834 0.118167,0.349677 0.118167,0.793405 0,0.443729 -0.120579,0.795818 -0.118166,0.349677 -0.332796,0.583599 -0.221864,0.243568 -0.525722,0.366558 -0.301446,0.12299 -0.689708,0.12299 -0.378616,0 -0.689708,-0.125401 -0.308681,-0.125402 -0.525722,-0.364147 -0.217041,-0.238745 -0.335208,-0.586011 -0.115755,-0.347266 -0.115755,-0.793406 0,-0.438905 0.115755,-0.786171 0.115756,-0.349677 0.33762,-0.598068 0.212218,-0.236334 0.525721,-0.361735 0.315916,-0.125402 0.687297,-0.125402 0.385851,0 0.69212,0.127813 0.308681,0.125402 0.52331,0.359324 z m -0.04341,1.384239 q 0,-0.699354 -0.313504,-1.07797 -0.313504,-0.381028 -0.856106,-0.381028 -0.547426,0 -0.86093,0.381028 -0.311092,0.378616 -0.311092,1.07797 0,0.70659 0.318327,1.082794 0.318327,0.373793 0.853695,0.373793 0.535368,0 0.851283,-0.373793 0.318327,-0.376204 0.318327,-1.082794 z" />
      <path
         id="path1044"
         style="font-size:4.93889px;fill:#333333;fill-opacity:1;stroke-width:0.264583"
         d="m 64.522106,15.1485 q -0.294211,0.135048 -0.643888,0.236334 -0.347266,0.09887 -0.672827,0.09887 -0.419613,0 -0.76929,-0.115755 -0.349678,-0.115755 -0.595658,-0.347266 -0.248391,-0.233922 -0.383439,-0.583599 -0.135048,-0.352089 -0.135048,-0.822345 0,-0.860929 0.501606,-1.357712 0.504018,-0.499195 1.381829,-0.499195 0.306269,0 0.624596,0.07476 0.320738,0.07235 0.689708,0.248391 v 0.566719 h -0.04341 q -0.07476,-0.05788 -0.217041,-0.151929 -0.142283,-0.09405 -0.279742,-0.156752 -0.166398,-0.07476 -0.378616,-0.12299 -0.209807,-0.05064 -0.477491,-0.05064 -0.602892,0 -0.95498,0.388263 -0.349678,0.38585 -0.349678,1.04662 0,0.696943 0.366559,1.085205 0.366558,0.385851 0.998388,0.385851 0.231511,0 0.46061,-0.04582 0.23151,-0.04582 0.405143,-0.118167 v -0.880222 h -0.962215 v -0.419612 h 1.434882 z" />
      <path
         id="path1046"
         style="font-size:4.93889px;fill:#333333;fill-opacity:1;stroke-width:0.264583"
         d="m 68.03335,12.235327 q 0.219453,0.241157 0.335208,0.590834 0.118167,0.349677 0.118167,0.793405 0,0.443729 -0.120578,0.795818 -0.118167,0.349677 -0.332797,0.583599 -0.221864,0.243568 -0.525721,0.366558 -0.301446,0.12299 -0.689709,0.12299 -0.378616,0 -0.689708,-0.125401 -0.308681,-0.125402 -0.525722,-0.364147 -0.217041,-0.238745 -0.335208,-0.586011 -0.115755,-0.347266 -0.115755,-0.793406 0,-0.438905 0.115755,-0.786171 0.115756,-0.349677 0.33762,-0.598068 0.212218,-0.236334 0.525722,-0.361735 0.315915,-0.125402 0.687296,-0.125402 0.385851,0 0.69212,0.127813 0.308681,0.125402 0.52331,0.359324 z m -0.04341,1.384239 q 0,-0.699354 -0.313504,-1.07797 -0.313503,-0.381028 -0.856106,-0.381028 -0.547426,0 -0.86093,0.381028 -0.311092,0.378616 -0.311092,1.07797 0,0.70659 0.318327,1.082794 0.318327,0.373793 0.853695,0.373793 0.535368,0 0.851283,-0.373793 0.318327,-0.376204 0.318327,-1.082794 z" />
    </g>
    <g
       style="font-style:normal;font-weight:normal;font-size:3.02311px;line-height:1.25;font-family:sans-serif;fill:#4d4d4d;fill-opacity:1;stroke:none;stroke-width:0.161951"
       id="text947-6"
       transform="scale(1.0296427,0.97121066)"
       aria-label="Tamanho máximo 
(275 x 80) pixel ">
      <path
         id="path971"
         style="font-size:3.02311px;text-align:center;text-anchor:middle;fill:#4d4d4d;fill-opacity:1;stroke-width:0.161951"
         d="m 32.119138,19.37587 h -0.7853 v 1.938156 H 31.041564 V 19.37587 h -0.7853 v -0.259799 h 1.862874 z" />
      <path
         id="path973"
         style="font-size:3.02311px;text-align:center;text-anchor:middle;fill:#4d4d4d;fill-opacity:1;stroke-width:0.161951"
         d="m 33.322182,21.314026 h -0.276036 v -0.175659 q -0.0369,0.02509 -0.100377,0.07085 -0.062,0.04428 -0.121042,0.07085 -0.06938,0.03395 -0.159422,0.05609 -0.09004,0.02362 -0.211086,0.02362 -0.222895,0 -0.377889,-0.147613 -0.154993,-0.147613 -0.154993,-0.376413 0,-0.187468 0.07971,-0.302606 0.08119,-0.116614 0.230276,-0.18304 0.150565,-0.06643 0.361651,-0.09004 0.211086,-0.02362 0.453171,-0.03543 v -0.04281 q 0,-0.09447 -0.03395,-0.15647 -0.03247,-0.062 -0.09447,-0.09742 -0.05905,-0.03395 -0.141708,-0.04576 -0.08266,-0.01181 -0.172707,-0.01181 -0.109234,0 -0.243561,0.02952 -0.134328,0.02805 -0.277512,0.08266 h -0.01476 v -0.281941 q 0.08119,-0.02214 0.234705,-0.04871 0.153517,-0.02657 0.302606,-0.02657 0.174183,0 0.302606,0.02952 0.129899,0.02805 0.224372,0.09742 0.093,0.0679 0.141708,0.175659 0.04871,0.107757 0.04871,0.267179 z m -0.276036,-0.405935 v -0.459076 q -0.126947,0.0074 -0.299654,0.02214 -0.171231,0.01476 -0.271607,0.04281 -0.119567,0.03395 -0.193373,0.106281 -0.07381,0.07085 -0.07381,0.196325 0,0.141708 0.08562,0.214038 0.08562,0.07085 0.261275,0.07085 0.146136,0 0.267179,-0.05609 0.121042,-0.05757 0.224371,-0.13728 z" />
      <path
         id="path975"
         style="font-size:3.02311px;text-align:center;text-anchor:middle;fill:#4d4d4d;fill-opacity:1;stroke-width:0.161951"
         d="m 36.265581,21.314026 h -0.277512 v -0.938817 q 0,-0.106282 -0.01033,-0.205182 -0.0089,-0.0989 -0.03986,-0.157946 -0.03395,-0.06347 -0.09742,-0.09595 -0.06347,-0.03247 -0.18304,-0.03247 -0.116614,0 -0.233228,0.05905 -0.116614,0.05757 -0.233228,0.147613 0.0044,0.03395 0.0074,0.07971 0.003,0.04428 0.003,0.08857 v 1.055432 h -0.277512 v -0.938817 q 0,-0.109234 -0.01033,-0.206658 -0.0089,-0.0989 -0.03986,-0.157946 -0.03395,-0.06347 -0.09742,-0.09447 -0.06347,-0.03247 -0.18304,-0.03247 -0.113662,0 -0.2288,0.05609 -0.113662,0.05609 -0.227323,0.143184 v 1.231091 h -0.277513 v -1.648835 h 0.277513 v 0.18304 q 0.129899,-0.107757 0.258322,-0.168279 0.129899,-0.06052 0.276036,-0.06052 0.168278,0 0.284892,0.07085 0.118091,0.07085 0.17566,0.196325 0.168278,-0.141708 0.307034,-0.203705 0.138756,-0.06347 0.296702,-0.06347 0.271608,0 0.400031,0.165326 0.129899,0.163851 0.129899,0.459076 z" />
      <path
         id="path977"
         style="font-size:3.02311px;text-align:center;text-anchor:middle;fill:#4d4d4d;fill-opacity:1;stroke-width:0.161951"
         d="m 38.081218,21.314026 h -0.276036 v -0.175659 q -0.0369,0.02509 -0.100376,0.07085 -0.062,0.04428 -0.121043,0.07085 -0.06938,0.03395 -0.159422,0.05609 -0.09004,0.02362 -0.211086,0.02362 -0.222895,0 -0.377889,-0.147613 -0.154993,-0.147613 -0.154993,-0.376413 0,-0.187468 0.07971,-0.302606 0.08119,-0.116614 0.230276,-0.18304 0.150565,-0.06643 0.361651,-0.09004 0.211086,-0.02362 0.453171,-0.03543 v -0.04281 q 0,-0.09447 -0.03395,-0.15647 -0.03247,-0.062 -0.09447,-0.09742 -0.05904,-0.03395 -0.141708,-0.04576 -0.08266,-0.01181 -0.172707,-0.01181 -0.109233,0 -0.243561,0.02952 -0.134328,0.02805 -0.277512,0.08266 h -0.01476 v -0.281941 q 0.08119,-0.02214 0.234704,-0.04871 0.153517,-0.02657 0.302606,-0.02657 0.174183,0 0.302606,0.02952 0.1299,0.02805 0.224372,0.09742 0.093,0.0679 0.141708,0.175659 0.04871,0.107757 0.04871,0.267179 z m -0.276036,-0.405935 v -0.459076 q -0.126947,0.0074 -0.299654,0.02214 -0.17123,0.01476 -0.271607,0.04281 -0.119566,0.03395 -0.193373,0.106281 -0.07381,0.07085 -0.07381,0.196325 0,0.141708 0.08561,0.214038 0.08562,0.07085 0.261275,0.07085 0.146136,0 0.267179,-0.05609 0.121042,-0.05757 0.224371,-0.13728 z" />
      <path
         id="path979"
         style="font-size:3.02311px;text-align:center;text-anchor:middle;fill:#4d4d4d;fill-opacity:1;stroke-width:0.161951"
         d="M 39.997232,21.314026 H 39.71972 v -0.938817 q 0,-0.113662 -0.01329,-0.212563 -0.01328,-0.100377 -0.04871,-0.156469 -0.0369,-0.062 -0.106281,-0.09152 -0.06938,-0.031 -0.180088,-0.031 -0.113662,0 -0.237656,0.05609 -0.123995,0.05609 -0.237657,0.143184 v 1.231091 h -0.277512 v -1.648835 h 0.277512 v 0.18304 q 0.129899,-0.107757 0.268655,-0.168279 0.138756,-0.06052 0.284893,-0.06052 0.267179,0 0.407411,0.160898 0.140232,0.160898 0.140232,0.463504 z" />
      <path
         id="path981"
         style="font-size:3.02311px;text-align:center;text-anchor:middle;fill:#4d4d4d;fill-opacity:1;stroke-width:0.161951"
         d="m 41.910295,21.314026 h -0.277512 v -0.938817 q 0,-0.113662 -0.01329,-0.212563 -0.01329,-0.100377 -0.04871,-0.156469 -0.0369,-0.062 -0.106281,-0.09152 -0.06938,-0.031 -0.180088,-0.031 -0.113662,0 -0.237656,0.05609 -0.123995,0.05609 -0.237657,0.143184 v 1.231091 h -0.277512 v -2.296855 h 0.277512 v 0.83106 q 0.129899,-0.107757 0.268655,-0.168279 0.138756,-0.06052 0.284893,-0.06052 0.267179,0 0.407411,0.160898 0.140233,0.160898 0.140233,0.463504 z" />
      <path
         id="path983"
         style="font-size:3.02311px;text-align:center;text-anchor:middle;fill:#4d4d4d;fill-opacity:1;stroke-width:0.161951"
         d="m 43.849926,20.490347 q 0,0.402982 -0.206658,0.636211 -0.206658,0.233228 -0.553548,0.233228 -0.349842,0 -0.5565,-0.233228 -0.205182,-0.233229 -0.205182,-0.636211 0,-0.402983 0.205182,-0.636212 0.206658,-0.234704 0.5565,-0.234704 0.34689,0 0.553548,0.234704 0.206658,0.233229 0.206658,0.636212 z m -0.286369,0 q 0,-0.32032 -0.125471,-0.475314 -0.125471,-0.156469 -0.348366,-0.156469 -0.225847,0 -0.351318,0.156469 -0.123995,0.154994 -0.123995,0.475314 0,0.309986 0.125471,0.470884 0.125471,0.159422 0.349842,0.159422 0.221419,0 0.34689,-0.157946 0.126947,-0.159421 0.126947,-0.47236 z" />
      <path
         id="path985"
         style="font-size:3.02311px;text-align:center;text-anchor:middle;fill:#4d4d4d;fill-opacity:1;stroke-width:0.161951"
         d="m 47.749856,21.314026 h -0.277512 v -0.938817 q 0,-0.106282 -0.01033,-0.205182 -0.0089,-0.0989 -0.03985,-0.157946 -0.03395,-0.06347 -0.09743,-0.09595 -0.06347,-0.03247 -0.183039,-0.03247 -0.116615,0 -0.233229,0.05905 -0.116614,0.05757 -0.233228,0.147613 0.0044,0.03395 0.0074,0.07971 0.003,0.04428 0.003,0.08857 v 1.055432 h -0.277512 v -0.938817 q 0,-0.109234 -0.01033,-0.206658 -0.0089,-0.0989 -0.03985,-0.157946 -0.03395,-0.06347 -0.09743,-0.09447 -0.06347,-0.03247 -0.18304,-0.03247 -0.113661,0 -0.228799,0.05609 -0.113662,0.05609 -0.227324,0.143184 v 1.231091 h -0.277512 v -1.648835 h 0.277512 v 0.18304 q 0.129899,-0.107757 0.258322,-0.168279 0.129899,-0.06052 0.276036,-0.06052 0.168279,0 0.284893,0.07085 0.11809,0.07085 0.175659,0.196325 0.168279,-0.141708 0.307035,-0.203705 0.138756,-0.06347 0.296701,-0.06347 0.271608,0 0.400031,0.165326 0.129899,0.163851 0.129899,0.459076 z" />
      <path
         id="path987"
         style="font-size:3.02311px;text-align:center;text-anchor:middle;fill:#4d4d4d;fill-opacity:1;stroke-width:0.161951"
         d="m 49.565493,21.314026 h -0.276036 v -0.175659 q -0.0369,0.02509 -0.100377,0.07085 -0.062,0.04428 -0.121042,0.07085 -0.06938,0.03395 -0.159422,0.05609 -0.09004,0.02362 -0.211086,0.02362 -0.222896,0 -0.377889,-0.147613 -0.154994,-0.147613 -0.154994,-0.376413 0,-0.187468 0.07971,-0.302606 0.08119,-0.116614 0.230276,-0.18304 0.150565,-0.06643 0.361652,-0.09004 0.211086,-0.02362 0.453171,-0.03543 v -0.04281 q 0,-0.09447 -0.03395,-0.15647 -0.03247,-0.062 -0.09447,-0.09742 -0.05904,-0.03395 -0.141709,-0.04576 -0.08266,-0.01181 -0.172707,-0.01181 -0.109233,0 -0.243561,0.02952 -0.134327,0.02805 -0.277512,0.08266 h -0.01476 v -0.281941 q 0.08119,-0.02214 0.234704,-0.04871 0.153518,-0.02657 0.302607,-0.02657 0.174183,0 0.302606,0.02952 0.129899,0.02805 0.224371,0.09742 0.093,0.0679 0.141709,0.175659 0.04871,0.107757 0.04871,0.267179 z m -0.276036,-0.405935 v -0.459076 q -0.126947,0.0074 -0.299654,0.02214 -0.171231,0.01476 -0.271608,0.04281 -0.119566,0.03395 -0.193372,0.106281 -0.07381,0.07085 -0.07381,0.196325 0,0.141708 0.08562,0.214038 0.08562,0.07085 0.261274,0.07085 0.146137,0 0.267179,-0.05609 0.121043,-0.05757 0.224372,-0.13728 z m 0.100377,-2.068055 -0.402983,0.552071 h -0.219943 l 0.264226,-0.552071 z" />
      <path
         id="path989"
         style="font-size:3.02311px;text-align:center;text-anchor:middle;fill:#4d4d4d;fill-opacity:1;stroke-width:0.161951"
         d="m 51.53022,21.314026 h -0.349843 l -0.467932,-0.633259 -0.470885,0.633259 h -0.323272 l 0.643592,-0.822203 -0.637688,-0.826632 h 0.349843 l 0.46498,0.622926 0.466456,-0.622926 h 0.324749 l -0.648021,0.81187 z" />
      <path
         id="path991"
         style="font-size:3.02311px;text-align:center;text-anchor:middle;fill:#4d4d4d;fill-opacity:1;stroke-width:0.161951"
         d="M 52.190048,19.389155 H 51.877109 V 19.10131 h 0.312939 z m -0.01771,1.924871 h -0.277512 v -1.648835 h 0.277512 z" />
      <path
         id="path993"
         style="font-size:3.02311px;text-align:center;text-anchor:middle;fill:#4d4d4d;fill-opacity:1;stroke-width:0.161951"
         d="m 55.130495,21.314026 h -0.277512 v -0.938817 q 0,-0.106282 -0.01033,-0.205182 -0.0089,-0.0989 -0.03985,-0.157946 -0.03395,-0.06347 -0.09742,-0.09595 -0.06347,-0.03247 -0.18304,-0.03247 -0.116614,0 -0.233229,0.05905 -0.116614,0.05757 -0.233228,0.147613 0.0044,0.03395 0.0074,0.07971 0.003,0.04428 0.003,0.08857 v 1.055432 h -0.277512 v -0.938817 q 0,-0.109234 -0.01033,-0.206658 -0.0089,-0.0989 -0.03986,-0.157946 -0.03395,-0.06347 -0.09743,-0.09447 -0.06347,-0.03247 -0.18304,-0.03247 -0.113661,0 -0.228799,0.05609 -0.113662,0.05609 -0.227324,0.143184 v 1.231091 h -0.277512 v -1.648835 h 0.277512 v 0.18304 q 0.129899,-0.107757 0.258322,-0.168279 0.1299,-0.06052 0.276036,-0.06052 0.168279,0 0.284893,0.07085 0.11809,0.07085 0.175659,0.196325 0.168279,-0.141708 0.307035,-0.203705 0.138756,-0.06347 0.296701,-0.06347 0.271608,0 0.400031,0.165326 0.129899,0.163851 0.129899,0.459076 z" />
      <path
         id="path995"
         style="font-size:3.02311px;text-align:center;text-anchor:middle;fill:#4d4d4d;fill-opacity:1;stroke-width:0.161951"
         d="m 57.070127,20.490347 q 0,0.402982 -0.206657,0.636211 -0.206658,0.233228 -0.553548,0.233228 -0.349843,0 -0.556501,-0.233228 -0.205181,-0.233229 -0.205181,-0.636211 0,-0.402983 0.205181,-0.636212 0.206658,-0.234704 0.556501,-0.234704 0.34689,0 0.553548,0.234704 0.206657,0.233229 0.206657,0.636212 z m -0.286368,0 q 0,-0.32032 -0.125471,-0.475314 -0.125471,-0.156469 -0.348366,-0.156469 -0.225848,0 -0.351319,0.156469 -0.123995,0.154994 -0.123995,0.475314 0,0.309986 0.125471,0.470884 0.125471,0.159422 0.349843,0.159422 0.221419,0 0.34689,-0.157946 0.126947,-0.159421 0.126947,-0.47236 z" />
      <path
         id="path997"
         style="text-align:center;text-anchor:middle;fill:#4d4d4d;stroke-width:0.161951"
         d="m 33.20114,25.701078 h -0.338034 q -0.261274,-0.299654 -0.405935,-0.653925 -0.14466,-0.35427 -0.14466,-0.798585 0,-0.444314 0.14466,-0.798585 0.144661,-0.354271 0.405935,-0.653925 h 0.338034 v 0.01476 q -0.119567,0.107757 -0.2288,0.249465 -0.107758,0.140232 -0.200754,0.327701 -0.08857,0.181563 -0.14466,0.40003 -0.05462,0.218467 -0.05462,0.460552 0,0.252418 0.05314,0.462028 0.05462,0.20961 0.146136,0.398555 0.08857,0.181563 0.20223,0.3277 0.113662,0.147613 0.227324,0.249466 z" />
      <path
         id="path999"
         style="text-align:center;text-anchor:middle;fill:#4d4d4d;stroke-width:0.161951"
         d="m 35.146676,25.092913 h -1.487937 v -0.30851 q 0.154994,-0.132852 0.309987,-0.265703 0.15647,-0.132852 0.290797,-0.264227 0.283417,-0.27456 0.388222,-0.435458 0.104805,-0.162374 0.104805,-0.349842 0,-0.171231 -0.113662,-0.26718 -0.112186,-0.09742 -0.314415,-0.09742 -0.134328,0 -0.290797,0.04724 -0.15647,0.04724 -0.305559,0.144661 h -0.01476 v -0.309987 q 0.104805,-0.05166 0.278988,-0.09447 0.175659,-0.04281 0.339509,-0.04281 0.338034,0 0.52993,0.16385 0.191897,0.162374 0.191897,0.441362 0,0.125471 -0.03247,0.234705 -0.031,0.107757 -0.093,0.205181 -0.05757,0.09152 -0.135804,0.180088 -0.07676,0.08857 -0.187468,0.196325 -0.157946,0.154993 -0.326224,0.30113 -0.168279,0.144661 -0.314415,0.268655 h 1.182378 z" />
      <path
         id="path1001"
         style="text-align:center;text-anchor:middle;fill:#4d4d4d;stroke-width:0.161951"
         d="m 37.077451,23.224135 -0.99491,1.868778 H 35.76665 l 1.058384,-1.939632 h -1.251757 v -0.258322 h 1.504174 z" />
      <path
         id="path1003"
         style="text-align:center;text-anchor:middle;fill:#4d4d4d;stroke-width:0.161951"
         d="m 38.978704,24.394705 q 0,0.153517 -0.05609,0.293749 -0.05609,0.140232 -0.153517,0.236181 -0.106282,0.103329 -0.253894,0.159422 -0.146137,0.05462 -0.33951,0.05462 -0.180087,0 -0.34689,-0.03838 -0.166802,-0.0369 -0.28194,-0.09004 v -0.311463 h 0.02067 q 0.121042,0.07676 0.283416,0.131376 0.162374,0.05314 0.318844,0.05314 0.104805,0 0.202229,-0.02952 0.0989,-0.02952 0.17566,-0.103329 0.06495,-0.06347 0.09742,-0.152042 0.03395,-0.08857 0.03395,-0.205181 0,-0.113662 -0.03986,-0.191897 -0.03838,-0.07823 -0.107757,-0.125471 -0.07676,-0.05609 -0.187468,-0.07823 -0.109234,-0.02362 -0.245037,-0.02362 -0.1299,0 -0.250942,0.01771 -0.119566,0.01771 -0.206658,0.03543 v -1.13219 h 1.322611 v 0.258322 h -1.037718 v 0.584547 q 0.06347,-0.0059 0.129899,-0.0089 0.06643,-0.003 0.115138,-0.003 0.178611,0 0.312939,0.031 0.134328,0.02952 0.246513,0.106281 0.118091,0.08119 0.18304,0.20961 0.06495,0.128423 0.06495,0.321796 z" />
      <path
         id="path1005"
         style="text-align:center;text-anchor:middle;fill:#4d4d4d;stroke-width:0.161951"
         d="m 41.959007,25.092913 h -0.349843 l -0.467932,-0.633259 -0.470885,0.633259 h -0.323272 l 0.643592,-0.822203 -0.637688,-0.826632 h 0.349843 l 0.46498,0.622926 0.466456,-0.622926 h 0.324749 l -0.648021,0.811871 z" />
      <path
         id="path1007"
         style="text-align:center;text-anchor:middle;fill:#4d4d4d;stroke-width:0.161951"
         d="m 44.852217,24.48032 q 0,0.284893 -0.222895,0.473837 -0.221419,0.188945 -0.557976,0.188945 -0.357223,0 -0.569786,-0.184516 -0.211086,-0.184516 -0.211086,-0.472361 0,-0.18304 0.106281,-0.330653 0.106281,-0.149089 0.299654,-0.23618 v -0.0089 q -0.177135,-0.09447 -0.262751,-0.206658 -0.08414,-0.112186 -0.08414,-0.280464 0,-0.24799 0.203706,-0.413316 0.203705,-0.165327 0.518121,-0.165327 0.329176,0 0.525501,0.157946 0.196325,0.157946 0.196325,0.401507 0,0.149089 -0.093,0.293749 -0.093,0.143185 -0.273084,0.224372 v 0.0089 q 0.206658,0.08857 0.315892,0.218467 0.109233,0.129899 0.109233,0.330652 z m -0.349842,-1.073145 q 0,-0.157945 -0.122519,-0.250942 -0.121042,-0.09447 -0.309987,-0.09447 -0.185992,0 -0.305558,0.08857 -0.11809,0.08857 -0.11809,0.239133 0,0.106281 0.05905,0.184516 0.06052,0.07676 0.181564,0.13728 0.05462,0.02657 0.156469,0.06938 0.103329,0.04281 0.200754,0.07085 0.146136,-0.09742 0.202229,-0.20223 0.05609,-0.104805 0.05609,-0.242085 z m 0.04576,1.101192 q 0,-0.135804 -0.06052,-0.216991 -0.05904,-0.08266 -0.233229,-0.165326 -0.06938,-0.03247 -0.152041,-0.06052 -0.08266,-0.02805 -0.219943,-0.07823 -0.132851,0.07233 -0.214038,0.196325 -0.07971,0.123995 -0.07971,0.280465 0,0.199277 0.13728,0.329176 0.13728,0.1299 0.348366,0.1299 0.215514,0 0.343938,-0.11071 0.129899,-0.11071 0.129899,-0.304082 z" />
      <path
         id="path1009"
         style="text-align:center;text-anchor:middle;fill:#4d4d4d;stroke-width:0.161951"
         d="m 46.757898,23.993198 q 0,0.591927 -0.185992,0.869439 -0.184516,0.276036 -0.574214,0.276036 -0.395602,0 -0.578642,-0.280464 -0.181564,-0.280464 -0.181564,-0.862059 0,-0.586023 0.184516,-0.865011 0.184516,-0.280464 0.57569,-0.280464 0.395602,0 0.577166,0.284893 0.18304,0.283416 0.18304,0.85763 z m -0.388222,0.670162 q 0.05166,-0.119566 0.06938,-0.280464 0.01919,-0.162374 0.01919,-0.389698 0,-0.224371 -0.01919,-0.389698 -0.01771,-0.165326 -0.07085,-0.280464 -0.05166,-0.113662 -0.141708,-0.171231 -0.08857,-0.05757 -0.2288,-0.05757 -0.138756,0 -0.230276,0.05757 -0.09004,0.05757 -0.143184,0.174183 -0.05019,0.109234 -0.06938,0.284893 -0.01771,0.175659 -0.01771,0.385269 0,0.230276 0.01624,0.38527 0.01624,0.154993 0.06938,0.277512 0.04871,0.115138 0.13728,0.175659 0.09004,0.06052 0.237656,0.06052 0.138756,0 0.230276,-0.05757 0.09152,-0.05757 0.141708,-0.174183 z" />
      <path
         id="path1011"
         style="text-align:center;text-anchor:middle;fill:#4d4d4d;stroke-width:0.161951"
         d="m 48.065747,24.248568 q 0,0.444315 -0.14466,0.798585 -0.144661,0.354271 -0.405936,0.653925 h -0.338033 v -0.01476 q 0.113662,-0.101853 0.227324,-0.249466 0.115138,-0.146137 0.202229,-0.3277 0.09152,-0.188945 0.144661,-0.398555 0.05462,-0.20961 0.05462,-0.462028 0,-0.242085 -0.05462,-0.460552 -0.05462,-0.218467 -0.144661,-0.40003 -0.093,-0.187469 -0.202229,-0.327701 -0.107758,-0.141708 -0.227324,-0.249465 v -0.01476 h 0.338033 q 0.261275,0.299654 0.405936,0.653925 0.14466,0.354271 0.14466,0.798585 z" />
      <path
         id="path1013"
         style="text-align:center;text-anchor:middle;fill:#4d4d4d;stroke-width:0.161951"
         d="m 51.122808,24.248568 q 0,0.200754 -0.05757,0.367556 -0.05757,0.165326 -0.162374,0.280464 -0.09742,0.109234 -0.230276,0.169755 -0.131375,0.05905 -0.278988,0.05905 -0.128423,0 -0.233228,-0.02805 -0.103329,-0.02805 -0.211087,-0.08709 v 0.690828 h -0.277512 v -2.257 h 0.277512 v 0.172707 q 0.11071,-0.093 0.24799,-0.154993 0.138756,-0.06347 0.295225,-0.06347 0.298178,0 0.463505,0.225848 0.166802,0.224371 0.166802,0.624402 z m -0.286369,0.0074 q 0,-0.298178 -0.101853,-0.445791 -0.101852,-0.147613 -0.312939,-0.147613 -0.119566,0 -0.240609,0.05166 -0.121042,0.05166 -0.231752,0.135804 v 0.934389 q 0.118091,0.05314 0.20223,0.07233 0.08561,0.01919 0.193373,0.01919 0.231752,0 0.361651,-0.156469 0.129899,-0.15647 0.129899,-0.463504 z" />
      <path
         id="path1015"
         style="text-align:center;text-anchor:middle;fill:#4d4d4d;stroke-width:0.161951"
         d="m 51.853491,23.168043 h -0.312939 v -0.287845 h 0.312939 z m -0.01771,1.92487 h -0.277512 v -1.648835 h 0.277512 z" />
      <path
         id="path1017"
         style="text-align:center;text-anchor:middle;fill:#4d4d4d;stroke-width:0.161951"
         d="m 53.815266,25.092913 h -0.349842 l -0.467933,-0.633259 -0.470885,0.633259 h -0.323272 l 0.643592,-0.822203 -0.637687,-0.826632 h 0.349842 l 0.46498,0.622926 0.466457,-0.622926 h 0.324748 l -0.64802,0.811871 z" />
      <path
         id="path1019"
         style="text-align:center;text-anchor:middle;fill:#4d4d4d;stroke-width:0.161951"
         d="m 55.521669,24.29728 h -1.214853 q 0,0.152042 0.04576,0.265703 0.04576,0.112186 0.125471,0.184516 0.07676,0.07085 0.181563,0.106282 0.106282,0.03543 0.233229,0.03543 0.168278,0 0.338033,-0.06643 0.171231,-0.0679 0.243561,-0.132852 h 0.01476 v 0.302607 q -0.140232,0.05905 -0.286369,0.0989 -0.146136,0.03986 -0.307034,0.03986 -0.410364,0 -0.64064,-0.22142 -0.230276,-0.222895 -0.230276,-0.631782 0,-0.404459 0.219943,-0.642116 0.22142,-0.237657 0.581595,-0.237657 0.333605,0 0.513692,0.194849 0.181564,0.194849 0.181564,0.553548 z m -0.270131,-0.212562 q -0.0015,-0.218467 -0.11071,-0.338033 -0.107757,-0.119567 -0.329177,-0.119567 -0.222895,0 -0.355746,0.131376 -0.131376,0.131375 -0.149089,0.326224 z" />
      <path
         id="path1021"
         style="text-align:center;text-anchor:middle;fill:#4d4d4d;stroke-width:0.161951"
         d="M 56.22283,25.092913 H 55.945318 V 22.796058 H 56.22283 Z" />
    </g>
  </g>
</svg>
