<?xml version="1.0" encoding="UTF-8" standalone="no"?>
<svg
   sodipodi:docname="logo-comprovante.svg"
   inkscape:version="1.1.2 (b8e25be833, 2022-02-05)"
   id="svg841"
   version="1.1"
   viewBox="0 0 80.874247 53.186329"
   height="53.186329mm"
   width="80.874245mm"
   xmlns:inkscape="http://www.inkscape.org/namespaces/inkscape"
   xmlns:sodipodi="http://sodipodi.sourceforge.net/DTD/sodipodi-0.dtd"
   xmlns="http://www.w3.org/2000/svg"
   xmlns:svg="http://www.w3.org/2000/svg"
   xmlns:rdf="http://www.w3.org/1999/02/22-rdf-syntax-ns#"
   xmlns:cc="http://creativecommons.org/ns#"
   xmlns:dc="http://purl.org/dc/elements/1.1/">
  <defs
     id="defs835">
    <inkscape:path-effect
       effect="skeletal"
       id="path-effect4723"
       is_visible="true"
       lpeversion="1"
       pattern="m 51.373636,-42.656828 c 0,-2.755661 2.00585,-4.992139 4.477348,-4.992139 2.471498,0 4.477351,2.236478 4.477351,4.992139 0,2.75566 -2.005853,4.992138 -4.477351,4.992138 -2.471498,0 -4.477348,-2.236478 -4.477348,-4.992138 z"
       copytype="single_stretched"
       prop_scale="0.17373447"
       scale_y_rel="false"
       spacing="0"
       normal_offset="0"
       tang_offset="0"
       prop_units="false"
       vertical_pattern="false"
       hide_knot="false"
       fuse_tolerance="0" />
    <inkscape:path-effect
       effect="skeletal"
       id="path-effect4717"
       is_visible="true"
       lpeversion="1"
       pattern="m 22.06906,-38.630956 c 0,-2.462673 1.99869,-4.461364 4.46136,-4.461364 2.462677,0 4.461368,1.998691 4.461368,4.461364 0,2.462674 -1.998691,4.461365 -4.461368,4.461365 -2.46267,0 -4.46136,-1.998691 -4.46136,-4.461365 z"
       copytype="single_stretched"
       prop_scale="0.209872"
       scale_y_rel="false"
       spacing="0"
       normal_offset="0"
       tang_offset="0"
       prop_units="false"
       vertical_pattern="false"
       hide_knot="false"
       fuse_tolerance="0" />
    <inkscape:path-effect
       effect="skeletal"
       id="path-effect4709"
       is_visible="true"
       lpeversion="1"
       pattern="m 45.483176,-60.155723 c 0,-2.462673 1.99869,-4.461364 4.46136,-4.461364 2.462677,0 4.461368,1.998691 4.461368,4.461364 0,2.462674 -1.998691,4.461365 -4.461368,4.461365 -2.46267,0 -4.46136,-1.998691 -4.46136,-4.461365 z"
       copytype="single_stretched"
       prop_scale="0.08164325"
       scale_y_rel="false"
       spacing="0"
       normal_offset="0"
       tang_offset="0"
       prop_units="false"
       vertical_pattern="false"
       hide_knot="false"
       fuse_tolerance="0" />
    <inkscape:path-effect
       effect="skeletal"
       id="path-effect4703"
       is_visible="true"
       lpeversion="1"
       pattern="m 25.830794,-37.488319 c 0,-2.462673 1.99869,-4.461364 4.46136,-4.461364 2.462677,0 4.461368,1.998691 4.461368,4.461364 0,2.462674 -1.998691,4.461365 -4.461368,4.461365 -2.46267,0 -4.46136,-1.998691 -4.46136,-4.461365 z"
       copytype="single_stretched"
       prop_scale="0.209872"
       scale_y_rel="false"
       spacing="0"
       normal_offset="0"
       tang_offset="0"
       prop_units="false"
       vertical_pattern="false"
       hide_knot="false"
       fuse_tolerance="0" />
    <inkscape:path-effect
       effect="skeletal"
       id="path-effect4656"
       is_visible="true"
       lpeversion="1"
       pattern="m -2.8851221,19.544222 c 0,-2.755661 2.00585324,-4.992139 4.4773512,-4.992139 2.4714982,0 4.4773516,2.236478 4.4773516,4.992139 0,2.75566 -2.0058534,4.992138 -4.4773516,4.992138 -2.47149796,0 -4.4773512,-2.236478 -4.4773512,-4.992138 z"
       copytype="single_stretched"
       prop_scale="0.17373447"
       scale_y_rel="false"
       spacing="0"
       normal_offset="0"
       tang_offset="0"
       prop_units="false"
       vertical_pattern="false"
       hide_knot="false"
       fuse_tolerance="0" />
    <inkscape:path-effect
       effect="skeletal"
       id="path-effect4475"
       is_visible="true"
       lpeversion="1"
       pattern="m -1.7145885,14.158062 c 0,-2.755661 2.13095933,-4.9921395 4.7566057,-4.9921395 2.6256467,0 4.7566061,2.2364785 4.7566061,4.9921395 0,2.75566 -2.1309594,4.992138 -4.7566061,4.992138 -2.62564637,0 -4.7566057,-2.236478 -4.7566057,-4.992138 z"
       copytype="single_stretched"
       prop_scale="0.17373447"
       scale_y_rel="false"
       spacing="0"
       normal_offset="0"
       tang_offset="0"
       prop_units="false"
       vertical_pattern="false"
       hide_knot="false"
       fuse_tolerance="0" />
    <inkscape:path-effect
       effect="skeletal"
       id="path-effect4469"
       is_visible="true"
       lpeversion="1"
       pattern="m 3.7587047,9.5278527 c 0,-2.7556604 1.847385,-4.9921384 4.1236272,-4.9921384 2.2762421,0 4.1236271,2.236478 4.1236271,4.9921384 0,2.7556603 -1.847385,4.9921383 -4.1236271,4.9921383 -2.2762422,0 -4.1236272,-2.236478 -4.1236272,-4.9921383 z"
       copytype="single_stretched"
       prop_scale="0.17373447"
       scale_y_rel="false"
       spacing="0"
       normal_offset="0"
       tang_offset="0"
       prop_units="false"
       vertical_pattern="false"
       hide_knot="false"
       fuse_tolerance="0" />
    <inkscape:path-effect
       effect="skeletal"
       id="path-effect4326"
       is_visible="true"
       lpeversion="1"
       pattern="M 1.642802,4.9921384 C 1.642802,2.236478 3.8198263,0 6.5022312,0 9.1846362,0 11.36166,2.236478 11.36166,4.9921384 c 0,2.7556604 -2.1770238,4.9921384 -4.8594288,4.9921384 -2.6824049,0 -4.8594292,-2.236478 -4.8594292,-4.9921384 z"
       copytype="single_stretched"
       prop_scale="0.17373447"
       scale_y_rel="false"
       spacing="0"
       normal_offset="0"
       tang_offset="0"
       prop_units="false"
       vertical_pattern="false"
       hide_knot="false"
       fuse_tolerance="0" />
    <inkscape:path-effect
       effect="skeletal"
       id="path-effect3078"
       is_visible="true"
       lpeversion="1"
       pattern="m -53.363733,-2.0081415 c 0,-2.4626737 1.998691,-4.461365 4.461364,-4.461365 2.462674,0 4.461365,1.9986913 4.461365,4.461365 0,2.46267331 -1.998691,4.4613647 -4.461365,4.4613647 -2.462673,0 -4.461364,-1.99869139 -4.461364,-4.4613647 z"
       copytype="single_stretched"
       prop_scale="0.32475962"
       scale_y_rel="false"
       spacing="0"
       normal_offset="0"
       tang_offset="0"
       prop_units="false"
       vertical_pattern="false"
       hide_knot="false"
       fuse_tolerance="0" />
    <inkscape:path-effect
       effect="skeletal"
       id="path-effect2897"
       is_visible="true"
       lpeversion="1"
       pattern="m -8.77558,2.045327 c 0,-2.46267335 1.9986918,-4.4613648 4.4613651,-4.4613648 2.4626734,0 4.46136471,1.99869145 4.46136471,4.4613648 0,2.4626733 -1.99869131,4.4613647 -4.46136471,4.4613647 -2.4626733,0 -4.4613651,-1.9986914 -4.4613651,-4.4613647 z"
       copytype="single_stretched"
       prop_scale="0.2468333"
       scale_y_rel="false"
       spacing="0"
       normal_offset="0"
       tang_offset="0"
       prop_units="false"
       vertical_pattern="false"
       hide_knot="false"
       fuse_tolerance="0" />
    <inkscape:path-effect
       effect="skeletal"
       id="path-effect2723"
       is_visible="true"
       lpeversion="1"
       pattern="m -8.77558,2.045327 c 0,-2.46267335 1.9986918,-4.4613648 4.4613651,-4.4613648 2.4626734,0 4.46136471,1.99869145 4.46136471,4.4613648 0,2.4626733 -1.99869131,4.4613647 -4.46136471,4.4613647 -2.4626733,0 -4.4613651,-1.9986914 -4.4613651,-4.4613647 z"
       copytype="single_stretched"
       prop_scale="0.08164325"
       scale_y_rel="false"
       spacing="0"
       normal_offset="0"
       tang_offset="0"
       prop_units="false"
       vertical_pattern="false"
       hide_knot="false"
       fuse_tolerance="0" />
    <inkscape:path-effect
       effect="skeletal"
       id="path-effect2477"
       is_visible="true"
       lpeversion="1"
       pattern="m -8.77558,2.045327 c 0,-2.46267335 1.9986918,-4.4613648 4.4613651,-4.4613648 2.4626734,0 4.46136471,1.99869145 4.46136471,4.4613648 0,2.4626733 -1.99869131,4.4613647 -4.46136471,4.4613647 -2.4626733,0 -4.4613651,-1.9986914 -4.4613651,-4.4613647 z"
       copytype="single_stretched"
       prop_scale="0.209872"
       scale_y_rel="false"
       spacing="0"
       normal_offset="0"
       tang_offset="0"
       prop_units="false"
       vertical_pattern="false"
       hide_knot="false"
       fuse_tolerance="0" />
    <inkscape:path-effect
       effect="skeletal"
       id="path-effect2341"
       is_visible="true"
       lpeversion="1"
       pattern="m -8.77558,2.045327 c 0,-2.46267335 1.9986918,-4.4613648 4.4613651,-4.4613648 2.4626734,0 4.46136471,1.99869145 4.46136471,4.4613648 0,2.4626733 -1.99869131,4.4613647 -4.46136471,4.4613647 -2.4626733,0 -4.4613651,-1.9986914 -4.4613651,-4.4613647 z"
       copytype="single_stretched"
       prop_scale="0.209872"
       scale_y_rel="false"
       spacing="0"
       normal_offset="0"
       tang_offset="0"
       prop_units="false"
       vertical_pattern="false"
       hide_knot="false"
       fuse_tolerance="0" />
  </defs>
  <sodipodi:namedview
     inkscape:window-maximized="1"
     inkscape:window-y="-9"
     inkscape:window-x="-9"
     inkscape:window-height="991"
     inkscape:window-width="1920"
     showgrid="false"
     inkscape:document-rotation="0"
     inkscape:current-layer="layer3"
     inkscape:document-units="mm"
     inkscape:cy="32.072343"
     inkscape:cx="181.82746"
     inkscape:zoom="1.979899"
     inkscape:pageshadow="2"
     inkscape:pageopacity="0.0"
     borderopacity="1.0"
     bordercolor="#666666"
     pagecolor="#ffffff"
     id="base"
     inkscape:pagecheckerboard="0" />
  <metadata
     id="metadata838">
    <rdf:RDF>
      <cc:Work
         rdf:about="">
        <dc:format>image/svg+xml</dc:format>
        <dc:type
           rdf:resource="http://purl.org/dc/dcmitype/StillImage" />
        <dc:title />
      </cc:Work>
    </rdf:RDF>
  </metadata>
  <g
     transform="translate(0.68140831,-87.642324)"
     id="layer1"
     inkscape:groupmode="layer"
     inkscape:label="Layer 1"
     style="display:none">
    <g
       style="opacity:0.998"
       transform="rotate(-88.309187)"
       id="g1542">
      <path
         id="path1544"
         d="m -138.30078,35.140625 v 2.142578 44.806641 h 61.921874 V 35.140625 Z m 4.28711,4.287109 h 53.349608 v 38.375 h -53.349608 z"
         style="color:#000000;font-style:normal;font-variant:normal;font-weight:normal;font-stretch:normal;font-size:medium;line-height:normal;font-family:sans-serif;font-variant-ligatures:normal;font-variant-position:normal;font-variant-caps:normal;font-variant-numeric:normal;font-variant-alternates:normal;font-variant-east-asian:normal;font-feature-settings:normal;font-variation-settings:normal;text-indent:0;text-align:start;text-decoration:none;text-decoration-line:none;text-decoration-style:solid;text-decoration-color:#000000;letter-spacing:normal;word-spacing:normal;text-transform:none;writing-mode:lr-tb;direction:ltr;text-orientation:mixed;dominant-baseline:auto;baseline-shift:baseline;text-anchor:start;white-space:normal;shape-padding:0;shape-margin:0;inline-size:0;clip-rule:nonzero;display:inline;overflow:visible;visibility:visible;isolation:auto;mix-blend-mode:normal;color-interpolation:sRGB;color-interpolation-filters:linearRGB;solid-color:#000000;solid-opacity:1;vector-effect:none;fill:#1a1a1a;fill-opacity:0.996078;fill-rule:nonzero;stroke:none;stroke-width:4.286;stroke-linecap:square;stroke-linejoin:miter;stroke-miterlimit:4;stroke-dasharray:none;stroke-dashoffset:0;stroke-opacity:1;paint-order:markers stroke fill;color-rendering:auto;image-rendering:auto;shape-rendering:auto;text-rendering:auto;enable-background:accumulate;stop-color:#000000;stop-opacity:1" />
      <path
         sodipodi:nodetypes="cccccc"
         id="path1546"
         d="m -135.28905,38.394685 54.624988,1.033049 2.904361,41.398732 -57.529349,-0.776165 -1.98072,0.153004 z"
         style="color:#000000;font-style:normal;font-variant:normal;font-weight:normal;font-stretch:normal;font-size:medium;line-height:normal;font-family:sans-serif;font-variant-ligatures:normal;font-variant-position:normal;font-variant-caps:normal;font-variant-numeric:normal;font-variant-alternates:normal;font-variant-east-asian:normal;font-feature-settings:normal;font-variation-settings:normal;text-indent:0;text-align:start;text-decoration:none;text-decoration-line:none;text-decoration-style:solid;text-decoration-color:#000000;letter-spacing:normal;word-spacing:normal;text-transform:none;writing-mode:lr-tb;direction:ltr;text-orientation:mixed;dominant-baseline:auto;baseline-shift:baseline;text-anchor:start;white-space:normal;shape-padding:0;shape-margin:0;inline-size:0;clip-rule:nonzero;display:inline;overflow:visible;visibility:visible;isolation:auto;mix-blend-mode:normal;color-interpolation:sRGB;color-interpolation-filters:linearRGB;solid-color:#000000;solid-opacity:1;vector-effect:none;fill:#ffffff;fill-opacity:1;fill-rule:nonzero;stroke:none;stroke-width:4.286;stroke-linecap:square;stroke-linejoin:miter;stroke-miterlimit:4;stroke-dasharray:none;stroke-dashoffset:0;stroke-opacity:1;paint-order:markers stroke fill;color-rendering:auto;image-rendering:auto;shape-rendering:auto;text-rendering:auto;enable-background:accumulate;stop-color:#000000;stop-opacity:1" />
    </g>
  </g>
  <g
     transform="translate(64.112516,-58.116971)"
     inkscape:label="Layer 2"
     id="layer2"
     inkscape:groupmode="layer"
     style="display:none">
    <g
       style="opacity:0.998"
       transform="rotate(77.731299)"
       id="g1535">
      <path
         sodipodi:nodetypes="ccccccccccc"
         id="path1537"
         d="m 41.496094,18.201172 v 2.164062 44.699219 H 104.65234 V 18.201172 Z m 4.330078,4.330078 h 54.496098 l -5.708706,35.994667 -48.787392,2.208458 z"
         style="color:#000000;font-style:normal;font-variant:normal;font-weight:normal;font-stretch:normal;font-size:medium;line-height:normal;font-family:sans-serif;font-variant-ligatures:normal;font-variant-position:normal;font-variant-caps:normal;font-variant-numeric:normal;font-variant-alternates:normal;font-variant-east-asian:normal;font-feature-settings:normal;font-variation-settings:normal;text-indent:0;text-align:start;text-decoration:none;text-decoration-line:none;text-decoration-style:solid;text-decoration-color:#000000;letter-spacing:normal;word-spacing:normal;text-transform:none;writing-mode:lr-tb;direction:ltr;text-orientation:mixed;dominant-baseline:auto;baseline-shift:baseline;text-anchor:start;white-space:normal;shape-padding:0;shape-margin:0;inline-size:0;clip-rule:nonzero;display:inline;overflow:visible;visibility:visible;isolation:auto;mix-blend-mode:normal;color-interpolation:sRGB;color-interpolation-filters:linearRGB;solid-color:#000000;solid-opacity:1;vector-effect:none;fill:#1a1a1a;fill-opacity:1;fill-rule:nonzero;stroke:none;stroke-width:4.33;stroke-linecap:square;stroke-linejoin:miter;stroke-miterlimit:4;stroke-dasharray:none;stroke-dashoffset:0;stroke-opacity:1;paint-order:markers stroke fill;color-rendering:auto;image-rendering:auto;shape-rendering:auto;text-rendering:auto;enable-background:accumulate;stop-color:#000000;stop-opacity:1" />
      <path
         sodipodi:nodetypes="ccccc"
         id="path1539"
         d="M 43.661587,20.365294 103.49811,19.714987 100.64376,61.144952 41.961843,64.36794 Z"
         style="color:#000000;font-style:normal;font-variant:normal;font-weight:normal;font-stretch:normal;font-size:medium;line-height:normal;font-family:sans-serif;font-variant-ligatures:normal;font-variant-position:normal;font-variant-caps:normal;font-variant-numeric:normal;font-variant-alternates:normal;font-variant-east-asian:normal;font-feature-settings:normal;font-variation-settings:normal;text-indent:0;text-align:start;text-decoration:none;text-decoration-line:none;text-decoration-style:solid;text-decoration-color:#000000;letter-spacing:normal;word-spacing:normal;text-transform:none;writing-mode:lr-tb;direction:ltr;text-orientation:mixed;dominant-baseline:auto;baseline-shift:baseline;text-anchor:start;white-space:normal;shape-padding:0;shape-margin:0;inline-size:0;clip-rule:nonzero;display:inline;overflow:visible;visibility:visible;isolation:auto;mix-blend-mode:normal;color-interpolation:sRGB;color-interpolation-filters:linearRGB;solid-color:#000000;solid-opacity:1;vector-effect:none;fill:#ffffff;fill-opacity:1;fill-rule:nonzero;stroke:none;stroke-width:4.33;stroke-linecap:square;stroke-linejoin:miter;stroke-miterlimit:4;stroke-dasharray:none;stroke-dashoffset:0;stroke-opacity:1;paint-order:markers stroke fill;color-rendering:auto;image-rendering:auto;shape-rendering:auto;text-rendering:auto;enable-background:accumulate;stop-color:#000000;stop-opacity:1" />
    </g>
    <rect
       transform="matrix(0.16138438,0.98689163,-0.98086937,0.19466708,0,0)"
       ry="3.0090005"
       y="22.30707"
       x="50.473225"
       height="10.030002"
       width="10.355387"
       id="rect1438"
       style="opacity:0.998;fill:#1a1a1a;fill-opacity:1;stroke:#171612;stroke-width:0;stroke-linecap:square;stroke-miterlimit:4;stroke-dasharray:none;stroke-opacity:0.996078;paint-order:markers stroke fill" />
    <rect
       style="opacity:0.998;fill:#1a1a1a;fill-opacity:1;stroke:#1a1a1a;stroke-width:0.845905;stroke-linecap:square;stroke-miterlimit:4;stroke-dasharray:none;stroke-opacity:0.996078;paint-order:markers stroke fill"
       id="rect1436-6"
       width="8.9187212"
       height="0.18734919"
       x="-102.38039"
       y="14.091124"
       ry="0"
       transform="matrix(0.04667636,-0.99891006,0.99981547,0.01921012,0,0)" />
    <rect
       transform="matrix(0.98472498,-0.17411697,0.17739266,0.98414015,0,0)"
       ry="0"
       y="70.320541"
       x="-52.541012"
       height="0.40146923"
       width="28.171444"
       id="rect1522"
       style="opacity:0.998;fill:#1a1a1a;fill-opacity:1;stroke:#1a1a1a;stroke-width:2.20077;stroke-linecap:square;stroke-miterlimit:4;stroke-dasharray:none;stroke-opacity:0.996078;paint-order:markers stroke fill" />
    <rect
       style="opacity:0.998;fill:#1a1a1a;fill-opacity:1;stroke:#1a1a1a;stroke-width:2.20077;stroke-linecap:square;stroke-miterlimit:4;stroke-dasharray:none;stroke-opacity:0.996078;paint-order:markers stroke fill"
       id="rect1524"
       width="28.171444"
       height="0.40146923"
       x="-52.464344"
       y="76.287148"
       ry="0"
       transform="matrix(0.98472498,-0.17411697,0.17739266,0.98414015,0,0)" />
    <rect
       transform="matrix(0.04667636,-0.99891006,0.99981547,0.01921012,0,0)"
       ry="0"
       y="12.016582"
       x="-102.31995"
       height="0.18734919"
       width="8.9187212"
       id="rect1526"
       style="opacity:0.998;fill:#1a1a1a;fill-opacity:1;stroke:#1a1a1a;stroke-width:0.845905;stroke-linecap:square;stroke-miterlimit:4;stroke-dasharray:none;stroke-opacity:0.996078;paint-order:markers stroke fill" />
    <rect
       style="opacity:0.998;fill:#1a1a1a;fill-opacity:1;stroke:#1a1a1a;stroke-width:0.845905;stroke-linecap:square;stroke-miterlimit:4;stroke-dasharray:none;stroke-opacity:0.996078;paint-order:markers stroke fill"
       id="rect1528"
       width="8.9187212"
       height="0.18734919"
       x="-102.32761"
       y="9.8783884"
       ry="0"
       transform="matrix(0.04667636,-0.99891006,0.99981547,0.01921012,0,0)" />
    <rect
       transform="matrix(0.04667636,-0.99891006,0.99981547,0.01921012,0,0)"
       ry="0"
       y="7.706811"
       x="-102.33591"
       height="0.18734919"
       width="8.9187212"
       id="rect1530"
       style="opacity:0.998;fill:#1a1a1a;fill-opacity:1;stroke:#1a1a1a;stroke-width:0.845905;stroke-linecap:square;stroke-miterlimit:4;stroke-dasharray:none;stroke-opacity:0.996078;paint-order:markers stroke fill" />
    <rect
       transform="matrix(0.98472498,-0.17411697,0.17739266,0.98414015,0,0)"
       ry="0"
       y="82.526627"
       x="-52.502689"
       height="0.40146923"
       width="28.171444"
       id="rect1532"
       style="opacity:0.998;fill:#1a1a1a;fill-opacity:1;stroke:#1a1a1a;stroke-width:2.20077;stroke-linecap:square;stroke-miterlimit:4;stroke-dasharray:none;stroke-opacity:0.996078;paint-order:markers stroke fill" />
  </g>
  <g
     inkscape:groupmode="layer"
     id="layer3"
     inkscape:label="Layer 3"
     transform="translate(10.649582,-11.521468)">
    <path
       style="fill:#ffffff;stroke:none;stroke-width:0.236452px;stroke-linecap:butt;stroke-linejoin:miter;stroke-opacity:1"
       d="m 26.047568,13.034101 43.878887,0.43358 c 0,0 -1.256637,17.880695 -16.213469,39.513522 L 9.1770772,48.82944 c 0,0 13.5965958,-13.896172 16.8704908,-35.795339 z"
       id="path4091" />
    <path
       style="fill:#000000;stroke:none;stroke-width:0.236452px;stroke-linecap:butt;stroke-linejoin:miter;stroke-opacity:1"
       d="m 48.439664,43.287192 c -0.01938,0.522131 -14.64824,0.382238 -32.591145,-0.297283 -2.203719,-0.08346 -4.357684,-0.171177 -6.4405288,-0.261677 -1.8078094,0.528943 -3.5588549,1.03553 -5.2428218,1.516908 -4.9072508,2.540096 -8.7039806,6.691586 -10.9169498,9.20398 -2.3865775,2.709492 -3.7217396,4.375623 -3.8816406,4.261293 -0.159902,-0.114329 0.8668484,-1.990626 3.0812757,-4.944615 2.0732131,-2.765612 5.7843206,-7.183942 11.0627291,-10.109754 1.8097217,-0.55318 3.7066819,-1.126846 5.6735905,-1.715635 2.0955947,0.0646 4.2647567,0.137337 6.4853077,0.218092 18.136546,0.659574 32.789561,1.606602 32.770183,2.128691 z"
       id="path2475"
       inkscape:path-effect="#path-effect2477"
       inkscape:original-d="M 48.439664,43.287192 9.296134,41.834327 c 0,0 -7.853595,-1.01337 -19.929554,15.876083"
       sodipodi:nodetypes="ccc" />
    <path
       style="fill:#000000;stroke:none;stroke-width:0.236452px;stroke-linecap:butt;stroke-linejoin:miter;stroke-opacity:1"
       d="m 53.715358,52.981366 c -0.0035,0.20103 -4.332758,0.289107 -9.663547,0.196599 -5.33079,-0.09251 -9.654396,-0.330741 -9.650907,-0.531771 0.0035,-0.201031 4.332757,-0.289107 9.663546,-0.1966 5.330789,0.09251 9.654397,0.330742 9.650908,0.531772 z"
       id="path2721"
       inkscape:path-effect="#path-effect2723"
       inkscape:original-d="M 53.715358,52.981366 34.400911,52.646194"
       sodipodi:nodetypes="cc" />
    <path
       style="fill:#000000;stroke:none;stroke-width:0.236452px;stroke-linecap:butt;stroke-linejoin:miter;stroke-opacity:1"
       d="m 53.765232,52.882904 c -0.41936,-0.253796 2.485632,-5.85624 6.859207,-13.356528 0,0 10e-7,-2e-6 10e-7,-2e-6 0.919498,-1.845758 1.863717,-3.8242 2.77949,-5.903971 1.022783,-2.322795 1.900343,-4.522701 2.664145,-6.649259 0,0 0,-1e-6 1e-6,-1e-6 2.787182,-7.768024 3.383789,-13.703693 3.86119,-13.681993 0.477401,0.0217 0.689473,6.274247 -1.896617,14.34833 -1e-6,0 -1e-6,2e-6 -1e-6,2e-6 -0.709317,2.21628 -1.581036,4.519281 -2.631895,6.903506 -0.943659,2.141004 -1.946916,4.154949 -2.948927,6.009366 0,0 -10e-7,2e-6 -10e-7,2e-6 -4.643998,7.399726 -8.267072,12.584442 -8.686593,12.330548 z"
       id="path2895"
       inkscape:path-effect="#path-effect2897"
       inkscape:original-d="m 53.765213,52.88293 c 0,0 15.319581,-21.013382 16.164053,-39.591778"
       sodipodi:nodetypes="cc" />
    <path
       style="fill:#000000;stroke:none;stroke-width:0.236452px;stroke-linecap:butt;stroke-linejoin:miter;stroke-opacity:1"
       d="M 9.1770823,48.829435 C 8.83005,48.591192 11.511106,44.016004 16.050319,36.938402 c 1e-6,-1e-6 1e-6,-1e-6 2e-6,-2e-6 1.72881,-3.230665 3.633411,-7.180403 5.147938,-11.577964 1.58255,-4.174052 2.97511,-8.921715 3.436398,-13.838967 -0.02608,-1.64e-4 2.06586,0.01383 2.039777,0.01367 23.894845,0.16975 43.273005,0.956445 43.254833,1.756015 -0.01817,0.79957 -18.79251,0.719162 -41.907015,-0.179483 -0.02505,-9.74e-4 -1.949633,-0.07659 -1.974685,-0.07757 0.0191,4.823713 -0.976752,9.321807 -2.320806,13.240747 -1.735849,4.5898 -3.887147,8.589499 -5.875592,11.798916 0,0 -10e-7,2e-6 -10e-7,2e-6 -5.017925,6.843287 -8.3269008,10.994017 -8.6740857,10.755669 z"
       id="path3074"
       inkscape:path-effect="#path-effect3078"
       inkscape:original-d="m 9.1770594,48.829462 c 0,0 15.3195806,-17.97328 16.1640526,-36.551677 l 44.588155,1.013368"
       sodipodi:nodetypes="ccc" />
    <path
       style="fill:#ffffff;stroke:none;stroke-width:0.236452px;stroke-linecap:butt;stroke-linejoin:miter;stroke-opacity:1"
       d="m -10.63342,57.71041 47.845757,6.997015 c 0,0 2.399737,-19.546516 11.227327,-21.420233 L 9.2550837,42.751365 c 0,0 -9.56484372,-0.153177 -19.8885037,14.959045 z"
       id="path3709" />
    <path
       style="fill:#000000;stroke:none;stroke-width:0.236452px;stroke-linecap:butt;stroke-linejoin:miter;stroke-opacity:1"
       d="m -10.63342,57.71041 c 0.06926,-0.512184 18.8143201,1.764222 41.84164,5.081262 0.134694,0.0194 5.096631,0.738269 5.231326,0.757671 0.773598,-3.457443 1.512213,-6.708851 2.246881,-9.840584 0.964637,-2.687016 2.038656,-5.091667 3.546904,-7.209771 0,0 2e-6,-2e-6 2e-6,-2e-6 0.6777,-0.955086 1.453557,-1.816106 2.389872,-2.487899 0.865438,-0.626265 1.881606,-1.005169 2.923844,-1.031906 1.78014,-0.03907 3.39773,0.555657 4.503705,1.612572 1.087309,1.101816 1.581793,2.478513 1.806509,3.555449 0.05615,3.10263 0.0134,4.819837 -0.139124,4.83418 0,0 0,0 0,0 0,0 0,0 0,0 0,0 -10e-7,0 -10e-7,0 0,0 0,0 0,0 0,0 -1e-6,0 -1e-6,0 0,0 0,0 0,0 -0.0028,1.3e-5 -0.0028,-2.1e-5 -0.0027,-1.9e-5 4.3e-5,2e-6 7.8e-5,3.5e-5 -0.0027,-1.9e-4 0,0 0,0 0,0 0,0 0,0 0,0 0,0 -10e-7,0 -10e-7,0 0,0 -1e-6,0 -1e-6,0 0,0 0,0 0,0 0,0 0,0 0,0 -0.154692,-0.02603 -0.401363,-1.748362 -0.703197,-4.700789 -0.295216,-0.942642 -0.808618,-2.104266 -1.72401,-2.86605 -0.87783,-0.788652 -2.206842,-1.157674 -3.695014,-1.091145 -0.711921,0.02991 -1.441086,0.358696 -2.108023,0.857839 -0.74304,0.561572 -1.369437,1.323617 -1.971662,2.207201 0,0 -2e-6,2e-6 -2e-6,2e-6 -1.332446,1.962757 -2.264368,4.21892 -3.165172,6.831253 -0.975461,3.33002 -2.016746,6.80361 -3.133247,10.487937 0.151393,0.01898 -5.491357,-0.690797 -5.339957,-0.671857 C 8.339918,61.056263 -10.702683,58.222594 -10.63342,57.71041 Z"
       id="path2339"
       inkscape:path-effect="#path-effect2341"
       inkscape:original-d="m -10.63342,57.71041 47.459359,6.417992 c 0,0 3.580953,-20.245971 10.742809,-20.477217 7.451849,-0.24061 6.146643,9.330178 6.146643,9.330178"
       sodipodi:nodetypes="ccsc" />
    <path
       style="fill:#000000;stroke:none;stroke-width:0.261043px;stroke-linecap:butt;stroke-linejoin:miter;stroke-opacity:1"
       d="m 30.603839,20.674248 c 0.0096,-0.423301 5.482459,-0.652398 12.701002,-0.564952 0,0 10e-7,0 10e-7,0 0.943364,0.0053 1.914399,0.01441 2.908773,0.02689 2.630611,0.03303 5.273146,0.0876 7.422042,0.146844 4.862395,0.132845 8.139265,0.235684 8.161749,0.563988 0.02248,0.328305 -3.297481,0.801752 -8.157611,0.960977 -2.235028,0.07345 -4.7367,0.09669 -7.452022,0.0626 -0.996458,-0.01251 -1.971843,-0.03211 -2.915937,-0.05725 0,0 -10e-7,0 -10e-7,0 -7.219744,-0.239329 -12.677577,-0.715789 -12.667996,-1.1391 z"
       id="path4324"
       inkscape:path-effect="#path-effect4326"
       inkscape:original-d="m 30.603803,20.674247 c 0,0 23.388659,0.707315 31.193596,0.172776"
       sodipodi:nodetypes="cc" />
    <path
       style="fill:#000000;stroke:none;stroke-width:0.240469px;stroke-linecap:butt;stroke-linejoin:miter;stroke-opacity:1"
       d="m 28.334549,25.209963 c 0.01129,-0.423309 4.659078,-0.65239 10.785486,-0.564874 0,0 10e-7,0 10e-7,0 0.799554,0.0053 1.622429,0.01439 2.464976,0.02686 2.23135,0.03301 4.472032,0.08757 6.294305,0.146819 4.126558,0.132479 6.899066,0.235979 6.925538,0.563973 0.02647,0.327993 -2.796656,0.802057 -6.920655,0.960953 -1.898528,0.07347 -4.023714,0.0967 -6.329642,0.06258 -0.845322,-0.01251 -1.672675,-0.03209 -2.473411,-0.0572 0,0 -1e-6,0 -1e-6,0 C 32.953318,26.109765 28.32326,25.633285 28.334549,25.209963 Z"
       id="path4465"
       inkscape:path-effect="#path-effect4469"
       inkscape:original-d="m 28.334507,25.209961 c 0,0 19.847209,0.707315 26.470344,0.172776"
       sodipodi:nodetypes="cc" />
    <path
       style="fill:#000000;stroke:none;stroke-width:0.258267px;stroke-linecap:butt;stroke-linejoin:miter;stroke-opacity:1"
       d="m 26.633658,29.840173 c 0.0171,-0.380243 4.353191,-0.509207 10.358385,-0.355839 0,0 10e-7,0 10e-7,0 1.559271,0.01348 3.189967,0.03519 4.925039,0.05813 8.404975,0.111106 15.21371,-0.0069 15.250087,0.470481 0.03638,0.477369 -6.818594,1.376117 -15.283998,1.264091 -1.732948,-0.02293 -3.401662,-0.07809 -4.951159,-0.152024 0,0 -10e-7,0 -10e-7,0 -6.006615,-0.38688 -10.315457,-0.904558 -10.298354,-1.28484 z"
       id="path4471"
       inkscape:path-effect="#path-effect4475"
       inkscape:original-d="m 26.63361,29.84017 c 0,0 17.318615,1.179785 30.533552,0.172776"
       sodipodi:nodetypes="cc" />
    <path
       style="fill:#000000;stroke:none;stroke-width:0.250571px;stroke-linecap:butt;stroke-linejoin:miter;stroke-opacity:1"
       d="m 23.79884,35.226334 c 0.0017,-0.02465 0.02026,-0.04725 0.05517,-0.06906 0,0 0,0 0,0 0.0337,-0.021 0.08267,-0.04072 0.146256,-0.05918 l 0,0 0,0 0,0 c 0.126861,-0.03685 0.312343,-0.06884 0.551029,-0.09635 0,0 0,0 0,0 l 0,0 c 0.475773,-0.05482 1.1688,-0.09235 2.032923,-0.116153 l 0,0 c 1.708462,-0.04707 4.167887,-0.04132 6.962216,-0.01533 1.46741,0.01346 3.002064,0.03516 4.634894,0.05809 7.911951,0.111132 14.319795,-0.0064 14.358427,0.470752 0.03863,0.477192 -6.413067,1.376206 -14.382793,1.264312 -1.631041,-0.0229 -3.201468,-0.07803 -4.659708,-0.151955 -2.833712,-0.143212 -5.243613,-0.367299 -6.969168,-0.605442 l 0,0 c -0.862028,-0.118966 -1.543483,-0.240303 -2.012068,-0.356354 l 0,0 c 0,0 -10e-7,0 -10e-7,0 -0.234152,-0.05799 -0.413963,-0.114395 -0.535156,-0.168317 l 0,0 0,0 0,0 c -0.06062,-0.02698 -0.106468,-0.05329 -0.136993,-0.07883 0,0 0,0 0,0 -0.0316,-0.0265 -0.04677,-0.05152 -0.04503,-0.07618 z"
       id="path4652"
       inkscape:path-effect="#path-effect4656"
       inkscape:original-d="m 23.798789,35.22633 c 0,0 16.30186,1.179785 28.740964,0.172776"
       sodipodi:nodetypes="cc" />
  </g>
</svg>
