<?xml version="1.0" encoding="UTF-8" standalone="no"?>
<svg
   xmlns:dc="http://purl.org/dc/elements/1.1/"
   xmlns:cc="http://creativecommons.org/ns#"
   xmlns:rdf="http://www.w3.org/1999/02/22-rdf-syntax-ns#"
   xmlns:svg="http://www.w3.org/2000/svg"
   xmlns="http://www.w3.org/2000/svg"
   xmlns:sodipodi="http://sodipodi.sourceforge.net/DTD/sodipodi-0.dtd"
   xmlns:inkscape="http://www.inkscape.org/namespaces/inkscape"
   width="47.625mm"
   height="10.583333mm"
   viewBox="0 0 47.625 10.583333"
   version="1.1"
   id="svg873"
   sodipodi:docname="logo_padrao.svg"
   inkscape:version="1.0 (4035a4fb49, 2020-05-01)">
  <defs
     id="defs867" />
  <sodipodi:namedview
     id="base"
     pagecolor="#ffffff"
     bordercolor="#666666"
     borderopacity="1.0"
     inkscape:pageopacity="0.0"
     inkscape:pageshadow="2"
     inkscape:zoom="2.8"
     inkscape:cx="127.73364"
     inkscape:cy="37.135173"
     inkscape:document-units="mm"
     inkscape:current-layer="text1440"
     inkscape:document-rotation="0"
     showgrid="false"
     inkscape:window-width="1360"
     inkscape:window-height="705"
     inkscape:window-x="-8"
     inkscape:window-y="-8"
     inkscape:window-maximized="1" />
  <metadata
     id="metadata870">
    <rdf:RDF>
      <cc:Work
         rdf:about="">
        <dc:format>image/svg+xml</dc:format>
        <dc:type
           rdf:resource="http://purl.org/dc/dcmitype/StillImage" />
      </cc:Work>
    </rdf:RDF>
  </metadata>
  <g
     inkscape:label="Layer 1"
     inkscape:groupmode="layer"
     id="layer1"
     transform="translate(-42.333332,-83.154762)">
    <rect
       style="opacity:0.998;fill:#b3b3b3;stroke-width:0.357713;stroke-linecap:round;stroke-linejoin:round;paint-order:markers stroke fill"
       id="rect1436"
       width="47.625"
       height="10.583333"
       x="42.333332"
       y="83.154762" />
    <g
       style="font-style:normal;font-weight:normal;font-size:4.91985px;line-height:1.25;font-family:sans-serif;letter-spacing:-0.0123279px;word-spacing:-0.0277377px;fill:#4d4d4d;fill-opacity:1;stroke:none;stroke-width:0.122996"
       id="text1440"
       transform="scale(1.1713445,0.8537198)"
       aria-label="Logo da loja 
virtual">
      <path
         id="path835"
         style="font-style:normal;font-variant:normal;font-weight:normal;font-stretch:normal;font-size:4.91985px;font-family:Antonio;-inkscape-font-specification:'Antonio, Normal';font-variant-ligatures:normal;font-variant-caps:normal;font-variant-numeric:normal;font-variant-east-asian:normal;fill:#4d4d4d;stroke-width:0.122996"
         d="m 52.071028,98.833295 h 0.49727 v 3.817205 h 0.780738 v 0.41079 h -1.278008 z" />
      <path
         id="path837"
         style="font-style:normal;font-variant:normal;font-weight:normal;font-stretch:normal;font-size:4.91985px;font-family:Antonio;-inkscape-font-specification:'Antonio, Normal';font-variant-ligatures:normal;font-variant-caps:normal;font-variant-numeric:normal;font-variant-east-asian:normal;fill:#4d4d4d;stroke-width:0.122996"
         d="m 53.721072,100.59416 q 0,-0.87683 0.403581,-1.093034 0.163354,-0.08648 0.379559,-0.08648 0.564533,0 0.720681,0.454029 0.09609,0.285867 0.09609,0.725487 v 1.2756 q 0,0.75912 -0.204193,0.99695 -0.204193,0.23782 -0.590959,0.23782 -0.564533,0 -0.718279,-0.48045 -0.08648,-0.27626 -0.08648,-0.75432 z m 1.105044,-0.0985 q 0,-0.51409 -0.146538,-0.624594 -0.06006,-0.04564 -0.156148,-0.04564 -0.194584,0 -0.252238,0.175368 -0.05525,0.17536 -0.05525,0.49487 v 1.51102 q 0,0.53091 0.148941,0.64141 0.06006,0.0456 0.148941,0.0456 0.0048,0 0.0096,0 0.189779,0 0.245032,-0.17776 0.05765,-0.18017 0.05765,-0.50929 z" />
      <path
         id="path839"
         style="font-style:normal;font-variant:normal;font-weight:normal;font-stretch:normal;font-size:4.91985px;font-family:Antonio;-inkscape-font-specification:'Antonio, Normal';font-variant-ligatures:normal;font-variant-caps:normal;font-variant-numeric:normal;font-variant-east-asian:normal;fill:#4d4d4d;stroke-width:0.122996"
         d="m 56.57225,99.414644 q 0.33872,0 0.439616,0.307491 v -0.26425 h 0.492465 v 3.267085 q 0,0.64381 -0.485259,0.82398 -0.168158,0.0625 -0.389167,0.0625 -0.442018,0 -0.732693,-0.23062 l 0.177768,-0.33632 q 0.261848,0.17777 0.554925,0.17777 0.194584,0 0.288272,-0.12251 0.09369,-0.12252 0.09369,-0.32911 v -0.34353 q -0.06486,0.16816 -0.180171,0.23302 -0.120113,0.0649 -0.297881,0.0649 -0.360341,0 -0.494868,-0.30509 -0.134527,-0.30508 -0.134527,-0.81917 v -1.03298 q 0,-1.153086 0.667831,-1.153086 z m 0.439616,1.081026 q 0,-0.35074 -0.06486,-0.509285 -0.06246,-0.160953 -0.223411,-0.160953 -0.15855,0 -0.223411,0.09129 -0.06486,0.09129 -0.08408,0.228211 -0.01682,0.13693 -0.01682,0.34593 v 1.12186 q 0,0.38196 0.06967,0.55252 0.06967,0.16816 0.261847,0.16816 0.100895,0 0.15855,-0.0576 0.120113,-0.11771 0.122516,-0.66783 z" />
      <path
         id="path841"
         style="font-style:normal;font-variant:normal;font-weight:normal;font-stretch:normal;font-size:4.91985px;font-family:Antonio;-inkscape-font-specification:'Antonio, Normal';font-variant-ligatures:normal;font-variant-caps:normal;font-variant-numeric:normal;font-variant-east-asian:normal;fill:#4d4d4d;stroke-width:0.122996"
         d="m 58.126203,100.59416 q 0,-0.87683 0.403581,-1.093034 0.163354,-0.08648 0.379559,-0.08648 0.564533,0 0.720681,0.454029 0.09609,0.285867 0.09609,0.725487 v 1.2756 q 0,0.75912 -0.204193,0.99695 -0.204193,0.23782 -0.590959,0.23782 -0.564533,0 -0.718279,-0.48045 -0.08648,-0.27626 -0.08648,-0.75432 z m 1.105044,-0.0985 q 0,-0.51409 -0.146539,-0.624594 -0.06006,-0.04564 -0.156147,-0.04564 -0.194584,0 -0.252239,0.175368 -0.05525,0.17536 -0.05525,0.49487 v 1.51102 q 0,0.53091 0.148941,0.64141 0.06006,0.0456 0.148941,0.0456 0.0048,0 0.0096,0 0.189779,0 0.245031,-0.17776 0.05766,-0.18017 0.05766,-0.50929 z" />
      <path
         id="path843"
         style="font-style:normal;font-variant:normal;font-weight:normal;font-stretch:normal;font-size:4.91985px;font-family:Antonio;-inkscape-font-specification:'Antonio, Normal';font-variant-ligatures:normal;font-variant-caps:normal;font-variant-numeric:normal;font-variant-east-asian:normal;fill:#4d4d4d;stroke-width:0.122996"
         d="m 62.594882,98.787652 h 0.494868 v 4.273638 h -0.494868 v -0.30269 q -0.134527,0.33392 -0.49727,0.33392 -0.49727,0 -0.583751,-0.65582 -0.02883,-0.21861 -0.02883,-0.5285 v -1.36209 q 0,-0.651012 0.2114,-0.920066 0.168159,-0.2114 0.47565,-0.2114 0.134527,0 0.247434,0.07928 0.115309,0.07927 0.175365,0.204193 z m 0.0024,1.751258 q 0,-0.37956 -0.06486,-0.545319 -0.06246,-0.165756 -0.245031,-0.165756 -0.180171,0 -0.245032,0.168159 -0.06246,0.165756 -0.06246,0.554926 v 1.45577 q 0,0.5285 0.139332,0.63901 0.05765,0.0456 0.163354,0.0456 0.1057,0 0.172964,-0.0576 0.141734,-0.12012 0.141734,-0.64862 z" />
      <path
         id="path845"
         style="font-style:normal;font-variant:normal;font-weight:normal;font-stretch:normal;font-size:4.91985px;font-family:Antonio;-inkscape-font-specification:'Antonio, Normal';font-variant-ligatures:normal;font-variant-caps:normal;font-variant-numeric:normal;font-variant-east-asian:normal;fill:#4d4d4d;stroke-width:0.122996"
         d="m 64.840688,101.07461 q -0.302686,0.13693 -0.403581,0.2114 -0.100896,0.0745 -0.153746,0.17537 -0.05045,0.0985 -0.05045,0.32671 v 0.33391 q 0,0.3147 0.05525,0.44442 0.05525,0.12732 0.189779,0.12732 0.134527,0 0.230618,-0.0769 0.09609,-0.0793 0.132125,-0.17056 z m -1.059401,-0.57414 q 0,-0.653417 0.204193,-0.869621 0.204193,-0.216205 0.581349,-0.216205 0.377157,0 0.545316,0.182573 0.170561,0.182572 0.208997,0.586153 0.01682,0.17296 0.01682,0.4252 v 2.45272 H 64.84309 V 102.749 q -0.03844,0.12972 -0.168159,0.23782 -0.129722,0.1057 -0.321904,0.1057 -0.612579,0 -0.617383,-0.9561 v -0.35073 q 0,-0.3099 0.168159,-0.5285 0.170561,-0.22101 0.936885,-0.50208 v -0.27866 q 0,-0.46364 -0.06726,-0.557329 -0.06726,-0.09369 -0.230618,-0.09369 -0.160953,0 -0.216205,0.141734 -0.05525,0.141734 -0.05525,0.511684 v 0.12492 h -0.490063 z" />
      <path
         id="path847"
         style="font-style:normal;font-variant:normal;font-weight:normal;font-stretch:normal;font-size:4.91985px;font-family:Antonio;-inkscape-font-specification:'Antonio, Normal';font-variant-ligatures:normal;font-variant-caps:normal;font-variant-numeric:normal;font-variant-east-asian:normal;fill:#4d4d4d;stroke-width:0.122996"
         d="m 67.176152,98.787652 h 0.492465 v 4.273638 h -0.492465 z" />
      <path
         id="path849"
         style="font-style:normal;font-variant:normal;font-weight:normal;font-stretch:normal;font-size:4.91985px;font-family:Antonio;-inkscape-font-specification:'Antonio, Normal';font-variant-ligatures:normal;font-variant-caps:normal;font-variant-numeric:normal;font-variant-east-asian:normal;fill:#4d4d4d;stroke-width:0.122996"
         d="m 68.307304,100.59416 q 0,-0.87683 0.403581,-1.093034 0.163355,-0.08648 0.379559,-0.08648 0.564534,0 0.720681,0.454029 0.09609,0.285867 0.09609,0.725487 v 1.2756 q 0,0.75912 -0.204193,0.99695 -0.204193,0.23782 -0.590959,0.23782 -0.564533,0 -0.718278,-0.48045 -0.08648,-0.27626 -0.08648,-0.75432 z m 1.105044,-0.0985 q 0,-0.51409 -0.146538,-0.624594 -0.06006,-0.04564 -0.156148,-0.04564 -0.194584,0 -0.252238,0.175368 -0.05525,0.17536 -0.05525,0.49487 v 1.51102 q 0,0.53091 0.14894,0.64141 0.06006,0.0456 0.148941,0.0456 0.0048,0 0.0096,0 0.18978,0 0.245032,-0.17776 0.05765,-0.18017 0.05765,-0.50929 z" />
      <path
         id="path851"
         style="font-style:normal;font-variant:normal;font-weight:normal;font-stretch:normal;font-size:4.91985px;font-family:Antonio;-inkscape-font-specification:'Antonio, Normal';font-variant-ligatures:normal;font-variant-caps:normal;font-variant-numeric:normal;font-variant-east-asian:normal;fill:#4d4d4d;stroke-width:0.122996"
         d="m 70.389756,103.19582 q 0.03363,0.005 0.06967,0.005 0.03603,0 0.05525,-0.002 0.120114,-0.012 0.120114,-0.16095 v -3.579385 h 0.492465 v 3.555365 q 0,0.28106 -0.117711,0.41078 -0.115309,0.12973 -0.281066,0.13934 -0.05285,0.005 -0.184974,0.005 -0.129723,0 -0.168159,-0.0264 v -0.34592 z m 0.240227,-4.521075 h 0.494868 v 0.451627 h -0.494868 z" />
      <path
         id="path853"
         style="font-style:normal;font-variant:normal;font-weight:normal;font-stretch:normal;font-size:4.91985px;font-family:Antonio;-inkscape-font-specification:'Antonio, Normal';font-variant-ligatures:normal;font-variant-caps:normal;font-variant-numeric:normal;font-variant-east-asian:normal;fill:#4d4d4d;stroke-width:0.122996"
         d="m 72.870985,101.07461 q -0.302686,0.13693 -0.403581,0.2114 -0.100895,0.0745 -0.153745,0.17537 -0.05045,0.0985 -0.05045,0.32671 v 0.33391 q 0,0.3147 0.05525,0.44442 0.05525,0.12732 0.18978,0.12732 0.134527,0 0.230618,-0.0769 0.09609,-0.0793 0.132124,-0.17056 z m -1.059401,-0.57414 q 0,-0.653417 0.204193,-0.869621 0.204193,-0.216205 0.58135,-0.216205 0.377156,0 0.545315,0.182573 0.170561,0.182572 0.208997,0.586153 0.01682,0.17296 0.01682,0.4252 v 2.45272 H 72.873388 V 102.749 q -0.03844,0.12972 -0.168159,0.23782 -0.129723,0.1057 -0.321904,0.1057 -0.612579,0 -0.617384,-0.9561 v -0.35073 q 0,-0.3099 0.168159,-0.5285 0.170561,-0.22101 0.936885,-0.50208 v -0.27866 q 0,-0.46364 -0.06726,-0.557329 -0.06726,-0.09369 -0.230618,-0.09369 -0.160952,0 -0.216204,0.141734 -0.05525,0.141734 -0.05525,0.511684 v 0.12492 h -0.490063 z" />
      <path
         id="path855"
         style="font-style:normal;font-variant:normal;font-weight:normal;font-stretch:normal;font-size:4.91985px;font-family:Antonio;-inkscape-font-specification:'Antonio, Normal';font-variant-ligatures:normal;font-variant-caps:normal;font-variant-numeric:normal;font-variant-east-asian:normal;fill:#4d4d4d;stroke-width:0.122996"
         d="m 52.976684,104.60887 h 0.456432 l -0.516488,3.60341 H 52.33768 l -0.511683,-3.60341 h 0.458833 l 0.259446,2.02992 0.08408,0.80476 h 0.04564 l 0.06967,-0.80716 z" />
      <path
         id="path857"
         style="font-style:normal;font-variant:normal;font-weight:normal;font-stretch:normal;font-size:4.91985px;font-family:Antonio;-inkscape-font-specification:'Antonio, Normal';font-variant-ligatures:normal;font-variant-caps:normal;font-variant-numeric:normal;font-variant-east-asian:normal;fill:#4d4d4d;stroke-width:0.122996"
         d="m 53.879621,104.60887 h 0.492466 v 3.60341 h -0.492466 z m 0,-0.78314 h 0.494868 v 0.45163 h -0.494868 z" />
      <path
         id="path859"
         style="font-style:normal;font-variant:normal;font-weight:normal;font-stretch:normal;font-size:4.91985px;font-family:Antonio;-inkscape-font-specification:'Antonio, Normal';font-variant-ligatures:normal;font-variant-caps:normal;font-variant-numeric:normal;font-variant-east-asian:normal;fill:#4d4d4d;stroke-width:0.122996"
         d="m 56.178278,104.56563 q 0.0096,0 0.0096,0.31229 l -0.0024,0.1057 q -0.432409,0 -0.619786,0.30029 v 2.92837 h -0.494868 v -3.60341 h 0.494868 v 0.40118 q 0.06246,-0.2114 0.218606,-0.32671 0.15855,-0.11771 0.393973,-0.11771 z" />
      <path
         id="path861"
         style="font-style:normal;font-variant:normal;font-weight:normal;font-stretch:normal;font-size:4.91985px;font-family:Antonio;-inkscape-font-specification:'Antonio, Normal';font-variant-ligatures:normal;font-variant-caps:normal;font-variant-numeric:normal;font-variant-east-asian:normal;fill:#4d4d4d;stroke-width:0.122996"
         d="m 56.711265,103.98428 h 0.492466 v 0.65342 h 0.389168 v 0.36514 h -0.389168 v 2.63049 q 0,0.13933 0.06486,0.17536 0.06486,0.0336 0.329111,0.0336 v 0.39157 h -0.33872 q -0.341122,0 -0.44442,-0.12252 -0.103298,-0.12492 -0.103298,-0.43481 v -2.67373 h -0.329111 v -0.36514 h 0.329111 z" />
      <path
         id="path863"
         style="font-style:normal;font-variant:normal;font-weight:normal;font-stretch:normal;font-size:4.91985px;font-family:Antonio;-inkscape-font-specification:'Antonio, Normal';font-variant-ligatures:normal;font-variant-caps:normal;font-variant-numeric:normal;font-variant-east-asian:normal;fill:#4d4d4d;stroke-width:0.122996"
         d="m 59.20931,104.60887 h 0.494868 v 3.60341 H 59.20931 v -0.36755 q -0.05766,0.18257 -0.199389,0.30028 -0.139331,0.11531 -0.377156,0.11531 -0.235423,0 -0.405984,-0.19458 -0.168159,-0.19699 -0.168159,-0.60297 v -2.8539 h 0.492466 v 2.79864 q 0,0.42521 0.309893,0.42521 0.172963,0 0.259445,-0.12012 0.08888,-0.12011 0.08888,-0.3171 z" />
      <path
         id="path865"
         style="font-style:normal;font-variant:normal;font-weight:normal;font-stretch:normal;font-size:4.91985px;font-family:Antonio;-inkscape-font-specification:'Antonio, Normal';font-variant-ligatures:normal;font-variant-caps:normal;font-variant-numeric:normal;font-variant-east-asian:normal;fill:#4d4d4d;stroke-width:0.122996"
         d="m 61.450312,106.2256 q -0.302686,0.13693 -0.403581,0.2114 -0.100896,0.0745 -0.153746,0.17536 -0.05045,0.0985 -0.05045,0.32671 v 0.33392 q 0,0.3147 0.05525,0.44442 0.05525,0.12732 0.189779,0.12732 0.134527,0 0.230618,-0.0769 0.09609,-0.0793 0.132125,-0.17057 z m -1.059401,-0.57414 q 0,-0.65342 0.204193,-0.86963 0.204193,-0.2162 0.581349,-0.2162 0.377157,0 0.545316,0.18257 0.170561,0.18257 0.208997,0.58616 0.01682,0.17296 0.01682,0.4252 v 2.45272 h -0.494868 v -0.3123 q -0.03844,0.12972 -0.168159,0.23783 -0.129722,0.1057 -0.321904,0.1057 -0.612579,0 -0.617383,-0.95611 v -0.35073 q 0,-0.30989 0.168159,-0.5285 0.170561,-0.22101 0.936885,-0.50207 v -0.27867 q 0,-0.46364 -0.06726,-0.55732 -0.06726,-0.0937 -0.230617,-0.0937 -0.160953,0 -0.216205,0.14173 -0.05525,0.14174 -0.05525,0.51168 v 0.12492 h -0.490063 z" />
      <path
         id="path867"
         style="font-style:normal;font-variant:normal;font-weight:normal;font-stretch:normal;font-size:4.91985px;font-family:Antonio;-inkscape-font-specification:'Antonio, Normal';font-variant-ligatures:normal;font-variant-caps:normal;font-variant-numeric:normal;font-variant-east-asian:normal;fill:#4d4d4d;stroke-width:0.122996"
         d="m 62.615097,103.93864 h 0.492465 v 4.27364 h -0.492465 z" />
    </g>
    <path
       sodipodi:nodetypes="sccccscsssccccccccccc"
       id="path1448"
       d="m 58.038285,93.765505 -15.704953,-0.02741 c 0.01317,-3.885571 0.03396,-7.050192 0,-10.583336 4.709628,0.01696 11.007125,-0.03472 15.71664,0.007 -0.01286,3.534523 0.03445,7.069392 -0.01169,10.603711 z M 46.293162,84.644621 c -0.853081,0 -1.544634,0.691553 -1.544634,1.544637 0,0.853084 0.691553,1.544637 1.544634,1.544637 0.853078,0 1.544633,-0.691553 1.544633,-1.544637 0,-0.853084 -0.691555,-1.544637 -1.544633,-1.544637 z m -1.323973,7.281856 h 10.591775 v -3.089276 l -2.413905,-2.413899 c -0.129252,-0.129256 -0.338827,-0.129256 -0.468106,0 l -3.737848,3.737871 -1.531257,-1.531259 c -0.129252,-0.129246 -0.338826,-0.129246 -0.468106,0 l -1.972553,1.972591 z"
       style="fill:#666666;stroke-width:0.0275829" />
  </g>
</svg>
