<?xml version="1.0" encoding="UTF-8" standalone="no"?>
<svg
   xmlns:dc="http://purl.org/dc/elements/1.1/"
   xmlns:cc="http://creativecommons.org/ns#"
   xmlns:rdf="http://www.w3.org/1999/02/22-rdf-syntax-ns#"
   xmlns:svg="http://www.w3.org/2000/svg"
   xmlns="http://www.w3.org/2000/svg"
   xmlns:sodipodi="http://sodipodi.sourceforge.net/DTD/sodipodi-0.dtd"
   xmlns:inkscape="http://www.inkscape.org/namespaces/inkscape"
   width="1101.4286"
   height="399.63461"
   viewBox="0 0 291.41964 105.73668"
   version="1.1"
   id="svg8"
   inkscape:version="1.0 (4035a4fb49, 2020-05-01)"
   sodipodi:docname="sembanner.svg">
  <defs
     id="defs2" />
  <sodipodi:namedview
     id="base"
     pagecolor="#ffffff"
     bordercolor="#666666"
     borderopacity="1.0"
     inkscape:pageopacity="0.0"
     inkscape:pageshadow="2"
     inkscape:zoom="0.51115434"
     inkscape:cx="348.22285"
     inkscape:cy="152.57539"
     inkscape:document-units="mm"
     inkscape:current-layer="layer2"
     inkscape:document-rotation="0"
     showgrid="false"
     units="px"
     inkscape:window-width="1360"
     inkscape:window-height="705"
     inkscape:window-x="-8"
     inkscape:window-y="-8"
     inkscape:window-maximized="1" />
  <metadata
     id="metadata5">
    <rdf:RDF>
      <cc:Work
         rdf:about="">
        <dc:format>image/svg+xml</dc:format>
        <dc:type
           rdf:resource="http://purl.org/dc/dcmitype/StillImage" />
        <dc:title />
      </cc:Work>
    </rdf:RDF>
  </metadata>
  <g
     inkscape:label="Layer 1"
     inkscape:groupmode="layer"
     id="layer1"
     transform="translate(0.75595242,0.75595242)">
    <rect
       style="opacity:0.998;fill:#cccccc;stroke-width:1.19998;stroke-linecap:square;paint-order:markers stroke fill"
       id="rect833"
       width="291.41965"
       height="105.73666"
       x="-0.75595242"
       y="-0.75595242" />
  </g>
  <g
     inkscape:groupmode="layer"
     id="layer2"
     inkscape:label="Layer 2"
     transform="translate(0.75595242,0.75595242)">
    <g
       transform="translate(15.822773,-1.4518121)"
       id="g1142">
      <path
         d="m 121.27129,26.09045 c -1.52053,0 -2.75425,1.233365 -2.75425,2.753893 v 20.19721 c 0,0.412722 0.0934,0.802913 0.25627,1.154427 l 7.82543,-6.564839 c -0.1798,-0.613865 -0.27806,-1.262321 -0.27806,-1.933773 0,-3.798453 3.08697,-6.885436 6.88543,-6.885435 1.09617,0 2.13213,0.258298 3.0527,0.715364 l 2.49446,-2.092662 h -18.05568 c -0.18936,0 -0.34415,-0.1548 -0.34415,-0.34415 V 31.02489 c 0,-0.189348 0.15479,-0.344148 0.34415,-0.344148 h 7.91823 l 1.7327,-2.59922 c 0.0631,-0.09754 0.17209,-0.155025 0.28685,-0.155025 h 14.50557 c 0.0548,0 0.10808,0.0054 0.1603,0.01477 l 1.52001,-1.275354 c -0.46534,-0.359559 -1.04705,-0.575456 -1.68031,-0.575456 z m 0,1.836047 h 6.08219 c 0.18935,0 0.34414,0.154799 0.34414,0.344148 v 1.147749 c 0,0.189349 -0.15479,0.344149 -0.34414,0.344149 h -6.65589 c -0.18936,0 -0.34415,-0.1548 -0.34415,-0.344149 v -0.574051 c 0,-0.50493 0.41292,-0.917846 0.91785,-0.917846 z m 26.62355,1.072521 -1.83606,1.542517 v 2.54895 c 0,0.18935 -0.15479,0.34415 -0.34414,0.34415 h -3.0998 l -4.31961,3.628502 c 1.11538,1.223929 1.79632,2.850583 1.79632,4.634231 0,3.798453 -3.08698,6.885436 -6.88544,6.885436 -2.21215,0 -4.1814,-1.048258 -5.4417,-2.67304 l -6.9568,5.844201 c 0.15109,0.0257 0.30529,0.04183 0.46368,0.04183 h 23.86965 c 1.52052,0 2.7539,-1.233717 2.7539,-2.754245 z m -14.68873,7.648962 c -2.78286,0 -5.04939,2.266534 -5.04939,5.049388 0,0.201834 0.0134,0.400466 0.0365,0.596197 l 1.38398,-1.161107 c 0.27242,-1.758015 1.7955,-3.107532 3.62885,-3.107532 0.024,0 0.0475,0.002 0.071,0.0038 l 1.38819,-1.164621 c -0.46233,-0.140002 -0.95196,-0.216191 -1.45921,-0.216191 z m 3.68054,1.598762 -7.71541,6.481174 c 0.92246,1.224769 2.38802,2.018843 4.03487,2.018843 2.78285,0 5.04939,-2.266533 5.04939,-5.049391 0,-1.333005 -0.52114,-2.546938 -1.36885,-3.450626 z"
         style="fill:#666666;stroke-width:0.0573783"
         id="path835" />
      <g
         aria-label="NENHUM BANNER FOI ADICIONADO AINDA"
         transform="matrix(0.81236836,0,0,0.89270422,8.892109,12.026881)"
         id="text848"
         style="font-style:normal;font-weight:normal;font-size:8.20964px;line-height:1.25;font-family:sans-serif;fill:#666666;fill-opacity:1;stroke:none;stroke-width:0.205241">
        <path
           d="m 63.387133,49.536656 q 0.07389,0 0.123144,0.0082 0.04926,0.0041 0.0862,0.02463 0.04105,0.01642 0.07799,0.05336 0.03694,0.03284 0.0821,0.09031 l 3.115558,3.969361 q -0.01642,-0.143669 -0.02463,-0.279128 -0.0041,-0.139564 -0.0041,-0.258604 v -3.608136 h 0.972842 v 5.935569 h -0.57057 q -0.131354,0 -0.217555,-0.04105 -0.0862,-0.04105 -0.168298,-0.147774 L 63.75657,51.330453 q 0.01232,0.131354 0.01642,0.262709 0.0082,0.127249 0.0082,0.233974 v 3.64508 h -0.972842 v -5.935569 h 0.57878 z"
           style="font-style:normal;font-variant:normal;font-weight:bold;font-stretch:normal;font-family:Lato;-inkscape-font-specification:'Lato Bold';fill:#666666;stroke-width:0.205241"
           id="path841" />
        <path
           d="m 72.757282,49.536656 v 0.878431 h -2.63119 v 1.646033 h 2.072934 v 0.849698 h -2.072934 v 1.678871 h 2.63119 v 0.882536 h -3.743596 v -5.935569 z"
           style="font-style:normal;font-variant:normal;font-weight:bold;font-stretch:normal;font-family:Lato;-inkscape-font-specification:'Lato Bold';fill:#666666;stroke-width:0.205241"
           id="path843" />
        <path
           d="m 74.29056,49.536656 q 0.07389,0 0.123144,0.0082 0.04926,0.0041 0.0862,0.02463 0.04105,0.01642 0.07799,0.05336 0.03694,0.03284 0.0821,0.09031 l 3.115559,3.969361 q -0.01642,-0.143669 -0.02463,-0.279128 -0.0041,-0.139564 -0.0041,-0.258604 v -3.608136 h 0.972842 v 5.935569 h -0.57057 q -0.131354,0 -0.217555,-0.04105 -0.0862,-0.04105 -0.168298,-0.147774 l -3.103244,-3.952941 q 0.01232,0.131354 0.01642,0.262709 0.0082,0.127249 0.0082,0.233974 v 3.64508 H 73.71178 v -5.935569 h 0.57878 z"
           style="font-style:normal;font-variant:normal;font-weight:bold;font-stretch:normal;font-family:Lato;-inkscape-font-specification:'Lato Bold';fill:#666666;stroke-width:0.205241"
           id="path845" />
        <path
           d="M 84.924994,55.472225 H 83.812588 V 52.877979 H 81.02952 v 2.594246 h -1.112406 v -5.935569 h 1.112406 v 2.553198 h 2.783068 v -2.553198 h 1.112406 z"
           style="font-style:normal;font-variant:normal;font-weight:bold;font-stretch:normal;font-family:Lato;-inkscape-font-specification:'Lato Bold';fill:#666666;stroke-width:0.205241"
           id="path847" />
        <path
           d="m 88.511453,54.581479 q 0.320176,0 0.57057,-0.106725 0.254498,-0.106725 0.426901,-0.299652 0.176507,-0.192926 0.266813,-0.467949 0.09441,-0.275023 0.09441,-0.615723 v -3.554774 h 1.104196 v 3.554774 q 0,0.529521 -0.172402,0.981052 -0.168298,0.447425 -0.488474,0.775811 -0.320175,0.32428 -0.77581,0.508997 -0.455635,0.180612 -1.026205,0.180612 -0.57057,0 -1.026205,-0.180612 -0.455635,-0.184717 -0.775811,-0.508997 -0.316071,-0.328386 -0.488474,-0.775811 -0.168297,-0.451531 -0.168297,-0.981052 v -3.554774 h 1.104196 v 3.550669 q 0,0.3407 0.09031,0.615723 0.09441,0.275023 0.266813,0.472054 0.172403,0.192927 0.422797,0.299652 0.254499,0.106725 0.574675,0.106725 z"
           style="font-style:normal;font-variant:normal;font-weight:bold;font-stretch:normal;font-family:Lato;-inkscape-font-specification:'Lato Bold';fill:#666666;stroke-width:0.205241"
           id="path849" />
        <path
           d="m 95.083397,53.009333 q 0.06978,0.131355 0.127249,0.275023 0.06157,0.139564 0.11904,0.283233 0.05747,-0.147774 0.11904,-0.291442 0.06157,-0.143669 0.131354,-0.275023 l 1.756863,-3.287961 q 0.03284,-0.06157 0.06568,-0.09852 0.03694,-0.03694 0.07799,-0.05336 0.04515,-0.01642 0.09852,-0.02052 0.05336,-0.0041 0.12725,-0.0041 h 0.833278 v 5.935569 h -0.972842 v -3.833901 q 0,-0.106726 0.0041,-0.233975 0.0082,-0.12725 0.02052,-0.258604 l -1.793807,3.365952 q -0.06157,0.114935 -0.160087,0.180612 -0.09852,0.06157 -0.22987,0.06157 h -0.151879 q -0.131354,0 -0.22987,-0.06157 -0.09852,-0.06568 -0.160088,-0.180612 l -1.818435,-3.378266 q 0.01642,0.135459 0.02052,0.266813 0.0082,0.127249 0.0082,0.23808 v 3.833901 h -0.972842 v -5.935569 h 0.833278 q 0.07389,0 0.12725,0.0041 0.05336,0.0041 0.09441,0.02052 0.04515,0.01642 0.0821,0.05336 0.03694,0.03694 0.06978,0.09852 l 1.773282,3.29617 z"
           style="font-style:normal;font-variant:normal;font-weight:bold;font-stretch:normal;font-family:Lato;-inkscape-font-specification:'Lato Bold';fill:#666666;stroke-width:0.205241"
           id="path851" />
        <path
           d="m 101.32311,55.472225 v -5.935569 h 2.0483 q 0.58289,0 0.99337,0.11083 0.41459,0.11083 0.67729,0.316071 0.26682,0.205241 0.38996,0.496683 0.12315,0.291442 0.12315,0.656771 0,0.209346 -0.0616,0.402273 -0.0616,0.188821 -0.19293,0.357119 -0.12725,0.164193 -0.32839,0.299652 -0.19703,0.135459 -0.47205,0.22987 1.22323,0.275023 1.22323,1.321752 0,0.377643 -0.14366,0.697819 -0.14367,0.320176 -0.4187,0.554151 -0.27502,0.22987 -0.67729,0.361224 -0.40227,0.131354 -0.91948,0.131354 z m 1.10419,-2.602456 v 1.740444 h 1.12062 q 0.30786,0 0.5131,-0.07389 0.20935,-0.07389 0.33249,-0.197031 0.12725,-0.123145 0.18062,-0.287337 0.0575,-0.164193 0.0575,-0.34891 0,-0.192927 -0.0616,-0.344805 -0.0616,-0.155983 -0.19293,-0.262708 -0.13135,-0.110831 -0.33659,-0.168298 -0.20524,-0.05747 -0.49668,-0.05747 z m 0,-0.763496 h 0.88254 q 0.56236,0 0.8538,-0.205241 0.29145,-0.205241 0.29145,-0.652666 0,-0.463845 -0.26271,-0.660876 -0.26271,-0.197032 -0.82097,-0.197032 h -0.94411 z"
           style="font-style:normal;font-variant:normal;font-weight:bold;font-stretch:normal;font-family:Lato;-inkscape-font-specification:'Lato Bold';fill:#666666;stroke-width:0.205241"
           id="path853" />
        <path
           d="m 111.89584,55.472225 h -0.8538 q -0.14367,0 -0.23808,-0.06978 -0.0903,-0.07389 -0.13136,-0.180612 l -0.44332,-1.210922 h -2.45878 l -0.44332,1.210922 q -0.0328,0.09441 -0.13136,0.172403 -0.0944,0.07799 -0.23397,0.07799 h -0.85791 l 2.33154,-5.935569 h 1.12882 z m -3.84211,-2.241231 h 1.89232 l -0.72245,-1.974419 q -0.0493,-0.131354 -0.11083,-0.307861 -0.0575,-0.180612 -0.11493,-0.389958 -0.0575,0.209346 -0.11494,0.389958 -0.0534,0.180612 -0.10672,0.316071 z"
           style="font-style:normal;font-variant:normal;font-weight:bold;font-stretch:normal;font-family:Lato;-inkscape-font-specification:'Lato Bold';fill:#666666;stroke-width:0.205241"
           id="path855" />
        <path
           d="m 113.09393,49.536656 q 0.0739,0 0.12315,0.0082 0.0493,0.0041 0.0862,0.02463 0.041,0.01642 0.078,0.05336 0.037,0.03284 0.0821,0.09031 l 3.11556,3.969361 q -0.0164,-0.143669 -0.0246,-0.279128 -0.004,-0.139564 -0.004,-0.258604 v -3.608136 h 0.97285 v 5.935569 h -0.57057 q -0.13136,0 -0.21756,-0.04105 -0.0862,-0.04105 -0.1683,-0.147774 l -3.10324,-3.952941 q 0.0123,0.131354 0.0164,0.262709 0.008,0.127249 0.008,0.233974 v 3.64508 h -0.97284 v -5.935569 h 0.57877 z"
           style="font-style:normal;font-variant:normal;font-weight:bold;font-stretch:normal;font-family:Lato;-inkscape-font-specification:'Lato Bold';fill:#666666;stroke-width:0.205241"
           id="path857" />
        <path
           d="m 119.29927,49.536656 q 0.0739,0 0.12314,0.0082 0.0493,0.0041 0.0862,0.02463 0.041,0.01642 0.078,0.05336 0.0369,0.03284 0.0821,0.09031 l 3.11556,3.969361 q -0.0164,-0.143669 -0.0246,-0.279128 -0.004,-0.139564 -0.004,-0.258604 v -3.608136 h 0.97284 v 5.935569 h -0.57057 q -0.13136,0 -0.21756,-0.04105 -0.0862,-0.04105 -0.16829,-0.147774 l -3.10325,-3.952941 q 0.0123,0.131354 0.0164,0.262709 0.008,0.127249 0.008,0.233974 v 3.64508 h -0.97284 v -5.935569 h 0.57878 z"
           style="font-style:normal;font-variant:normal;font-weight:bold;font-stretch:normal;font-family:Lato;-inkscape-font-specification:'Lato Bold';fill:#666666;stroke-width:0.205241"
           id="path859" />
        <path
           d="m 128.66942,49.536656 v 0.878431 h -2.63119 v 1.646033 h 2.07293 v 0.849698 h -2.07293 v 1.678871 h 2.63119 v 0.882536 h -3.7436 v -5.935569 z"
           style="font-style:normal;font-variant:normal;font-weight:bold;font-stretch:normal;font-family:Lato;-inkscape-font-specification:'Lato Bold';fill:#666666;stroke-width:0.205241"
           id="path861" />
        <path
           d="m 130.76505,53.153002 v 2.319223 h -1.10419 v -5.935569 h 1.81022 q 0.60751,0 1.03852,0.127249 0.43511,0.123145 0.71013,0.34891 0.27913,0.225765 0.40638,0.541836 0.13136,0.311966 0.13136,0.68961 0,0.299652 -0.0903,0.566465 -0.0862,0.266813 -0.2545,0.484369 -0.16419,0.217555 -0.41048,0.381748 -0.24219,0.164193 -0.55415,0.262708 0.20934,0.11904 0.36122,0.3407 l 1.48595,2.191974 h -0.99337 q -0.14367,0 -0.24629,-0.05747 -0.0985,-0.05747 -0.1683,-0.164193 l -1.24786,-1.900532 q -0.0698,-0.106725 -0.15598,-0.151878 -0.0821,-0.04515 -0.24629,-0.04515 z m 0,-0.79223 h 0.68961 q 0.31197,0 0.54184,-0.07799 0.23397,-0.07799 0.38175,-0.21345 0.15187,-0.139564 0.22576,-0.328386 0.0739,-0.188822 0.0739,-0.414587 0,-0.45153 -0.29965,-0.693714 -0.29555,-0.242185 -0.90717,-0.242185 h -0.70603 z"
           style="font-style:normal;font-variant:normal;font-weight:bold;font-stretch:normal;font-family:Lato;-inkscape-font-specification:'Lato Bold';fill:#666666;stroke-width:0.205241"
           id="path863" />
        <path
           d="m 140.32646,49.536656 v 0.878431 h -2.63119 v 1.756863 h 2.22071 v 0.882536 h -2.22071 v 2.417739 h -1.1124 v -5.935569 z"
           style="font-style:normal;font-variant:normal;font-weight:bold;font-stretch:normal;font-family:Lato;-inkscape-font-specification:'Lato Bold';fill:#666666;stroke-width:0.205241"
           id="path865" />
        <path
           d="m 146.87814,52.50444 q 0,0.652667 -0.21755,1.210922 -0.21756,0.554151 -0.61162,0.960528 -0.39406,0.406377 -0.94822,0.636247 -0.55415,0.225765 -1.22734,0.225765 -0.67319,0 -1.23144,-0.225765 -0.55415,-0.22987 -0.95232,-0.636247 -0.39406,-0.406377 -0.61162,-0.960528 -0.21755,-0.558255 -0.21755,-1.210922 0,-0.652666 0.21755,-1.206817 0.21756,-0.558255 0.61162,-0.964632 0.39817,-0.406377 0.95232,-0.632142 0.55825,-0.22987 1.23144,-0.22987 0.67319,0 1.22734,0.22987 0.55416,0.229869 0.94822,0.636247 0.39406,0.402272 0.61162,0.960527 0.21755,0.554151 0.21755,1.206817 z m -1.13293,0 q 0,-0.488473 -0.13135,-0.874326 -0.12725,-0.389958 -0.36944,-0.660876 -0.24218,-0.270918 -0.59109,-0.414587 -0.34481,-0.143669 -0.77992,-0.143669 -0.43511,0 -0.78402,0.143669 -0.34891,0.143669 -0.5952,0.414587 -0.24218,0.270918 -0.37353,0.660876 -0.13136,0.385853 -0.13136,0.874326 0,0.488474 0.13136,0.878432 0.13135,0.385853 0.37353,0.656771 0.24629,0.266813 0.5952,0.410482 0.34891,0.143669 0.78402,0.143669 0.43511,0 0.77992,-0.143669 0.34891,-0.143669 0.59109,-0.410482 0.24219,-0.270918 0.36944,-0.656771 0.13135,-0.389958 0.13135,-0.878432 z"
           style="font-style:normal;font-variant:normal;font-weight:bold;font-stretch:normal;font-family:Lato;-inkscape-font-specification:'Lato Bold';fill:#666666;stroke-width:0.205241"
           id="path867" />
        <path
           d="m 148.98661,55.472225 h -1.1083 v -5.935569 h 1.1083 z"
           style="font-style:normal;font-variant:normal;font-weight:bold;font-stretch:normal;font-family:Lato;-inkscape-font-specification:'Lato Bold';fill:#666666;stroke-width:0.205241"
           id="path869" />
        <path
           d="m 157.12903,55.472225 h -0.8538 q -0.14367,0 -0.23808,-0.06978 -0.0903,-0.07389 -0.13135,-0.180612 l -0.44332,-1.210922 h -2.45879 l -0.44332,1.210922 q -0.0328,0.09441 -0.13136,0.172403 -0.0944,0.07799 -0.23397,0.07799 h -0.85791 l 2.33154,-5.935569 h 1.12883 z m -3.84211,-2.241231 h 1.89232 l -0.72244,-1.974419 q -0.0493,-0.131354 -0.11083,-0.307861 -0.0575,-0.180612 -0.11494,-0.389958 -0.0575,0.209346 -0.11493,0.389958 -0.0534,0.180612 -0.10673,0.316071 z"
           style="font-style:normal;font-variant:normal;font-weight:bold;font-stretch:normal;font-family:Lato;-inkscape-font-specification:'Lato Bold';fill:#666666;stroke-width:0.205241"
           id="path871" />
        <path
           d="m 163.01894,52.50444 q 0,0.652667 -0.21756,1.198608 -0.21755,0.545941 -0.61162,0.940004 -0.39406,0.394062 -0.94821,0.611618 -0.55415,0.217555 -1.22734,0.217555 h -2.26586 v -5.935569 h 2.26586 q 0.67319,0 1.22734,0.22166 0.55415,0.217556 0.94821,0.611618 0.39407,0.389958 0.61162,0.935899 0.21756,0.545941 0.21756,1.198607 z m -1.12883,0 q 0,-0.488473 -0.13135,-0.874326 -0.13136,-0.389958 -0.37354,-0.656771 -0.24219,-0.270918 -0.5911,-0.414587 -0.3448,-0.143669 -0.77991,-0.143669 h -1.15346 v 4.178707 h 1.15346 q 0.43511,0 0.77991,-0.143669 0.34891,-0.143669 0.5911,-0.410482 0.24218,-0.270918 0.37354,-0.656771 0.13135,-0.389958 0.13135,-0.878432 z"
           style="font-style:normal;font-variant:normal;font-weight:bold;font-stretch:normal;font-family:Lato;-inkscape-font-specification:'Lato Bold';fill:#666666;stroke-width:0.205241"
           id="path873" />
        <path
           d="m 165.1333,55.472225 h -1.1083 v -5.935569 h 1.1083 z"
           style="font-style:normal;font-variant:normal;font-weight:bold;font-stretch:normal;font-family:Lato;-inkscape-font-specification:'Lato Bold';fill:#666666;stroke-width:0.205241"
           id="path875" />
        <path
           d="m 170.55128,54.072482 q 0.0903,0 0.15598,0.06978 l 0.43511,0.472054 q -0.36122,0.447425 -0.89074,0.685505 -0.52542,0.238079 -1.26429,0.238079 -0.66087,0 -1.1904,-0.225765 -0.52541,-0.225765 -0.89895,-0.628037 -0.37354,-0.402273 -0.57468,-0.960528 -0.19703,-0.558256 -0.19703,-1.219132 0,-0.669085 0.22166,-1.223236 0.22166,-0.558255 0.62394,-0.960528 0.40227,-0.402272 0.96052,-0.623932 0.56236,-0.225765 1.23966,-0.225765 0.66088,0 1.15345,0.21345 0.49669,0.209346 0.8497,0.558256 l -0.36943,0.513102 q -0.0328,0.04926 -0.0862,0.0862 -0.0493,0.03694 -0.13957,0.03694 -0.0944,0 -0.19292,-0.07389 -0.0985,-0.07389 -0.2504,-0.160088 -0.15188,-0.0862 -0.38585,-0.160088 -0.22987,-0.07389 -0.58699,-0.07389 -0.41869,0 -0.77171,0.147774 -0.34891,0.143669 -0.6034,0.414587 -0.2504,0.270918 -0.39407,0.660876 -0.13956,0.385853 -0.13956,0.870221 0,0.500789 0.13956,0.890746 0.14367,0.389958 0.38586,0.656772 0.24218,0.266813 0.57057,0.410482 0.32838,0.139563 0.70602,0.139563 0.22577,0 0.40638,-0.02463 0.18472,-0.02463 0.3366,-0.07799 0.15598,-0.05336 0.29144,-0.135459 0.13956,-0.0862 0.27502,-0.209346 0.0411,-0.03694 0.0862,-0.05747 0.0452,-0.02463 0.0985,-0.02463 z"
           style="font-style:normal;font-variant:normal;font-weight:bold;font-stretch:normal;font-family:Lato;-inkscape-font-specification:'Lato Bold';fill:#666666;stroke-width:0.205241"
           id="path877" />
        <path
           d="m 173.21467,55.472225 h -1.10831 v -5.935569 h 1.10831 z"
           style="font-style:normal;font-variant:normal;font-weight:bold;font-stretch:normal;font-family:Lato;-inkscape-font-specification:'Lato Bold';fill:#666666;stroke-width:0.205241"
           id="path879" />
        <path
           d="m 180.24583,52.50444 q 0,0.652667 -0.21755,1.210922 -0.21756,0.554151 -0.61162,0.960528 -0.39406,0.406377 -0.94821,0.636247 -0.55415,0.225765 -1.22735,0.225765 -0.67319,0 -1.23144,-0.225765 -0.55415,-0.22987 -0.95232,-0.636247 -0.39406,-0.406377 -0.61162,-0.960528 -0.21755,-0.558255 -0.21755,-1.210922 0,-0.652666 0.21755,-1.206817 0.21756,-0.558255 0.61162,-0.964632 0.39817,-0.406377 0.95232,-0.632142 0.55825,-0.22987 1.23144,-0.22987 0.6732,0 1.22735,0.22987 0.55415,0.229869 0.94821,0.636247 0.39406,0.402272 0.61162,0.960527 0.21755,0.554151 0.21755,1.206817 z m -1.13293,0 q 0,-0.488473 -0.13135,-0.874326 -0.12725,-0.389958 -0.36944,-0.660876 -0.24218,-0.270918 -0.59109,-0.414587 -0.3448,-0.143669 -0.77992,-0.143669 -0.43511,0 -0.78402,0.143669 -0.34891,0.143669 -0.59519,0.414587 -0.24219,0.270918 -0.37354,0.660876 -0.13136,0.385853 -0.13136,0.874326 0,0.488474 0.13136,0.878432 0.13135,0.385853 0.37354,0.656771 0.24628,0.266813 0.59519,0.410482 0.34891,0.143669 0.78402,0.143669 0.43512,0 0.77992,-0.143669 0.34891,-0.143669 0.59109,-0.410482 0.24219,-0.270918 0.36944,-0.656771 0.13135,-0.389958 0.13135,-0.878432 z"
           style="font-style:normal;font-variant:normal;font-weight:bold;font-stretch:normal;font-family:Lato;-inkscape-font-specification:'Lato Bold';fill:#666666;stroke-width:0.205241"
           id="path881" />
        <path
           d="m 181.68933,49.536656 q 0.0739,0 0.12314,0.0082 0.0493,0.0041 0.0862,0.02463 0.041,0.01642 0.078,0.05336 0.0369,0.03284 0.0821,0.09031 l 3.11556,3.969361 q -0.0164,-0.143669 -0.0246,-0.279128 -0.004,-0.139564 -0.004,-0.258604 v -3.608136 h 0.97285 v 5.935569 h -0.57057 q -0.13136,0 -0.21756,-0.04105 -0.0862,-0.04105 -0.1683,-0.147774 l -3.10324,-3.952941 q 0.0123,0.131354 0.0164,0.262709 0.008,0.127249 0.008,0.233974 v 3.64508 h -0.97284 v -5.935569 h 0.57878 z"
           style="font-style:normal;font-variant:normal;font-weight:bold;font-stretch:normal;font-family:Lato;-inkscape-font-specification:'Lato Bold';fill:#666666;stroke-width:0.205241"
           id="path883" />
        <path
           d="m 192.5331,55.472225 h -0.8538 q -0.14367,0 -0.23808,-0.06978 -0.0903,-0.07389 -0.13135,-0.180612 l -0.44333,-1.210922 h -2.45878 l -0.44332,1.210922 q -0.0328,0.09441 -0.13136,0.172403 -0.0944,0.07799 -0.23397,0.07799 h -0.85791 l 2.33154,-5.935569 h 1.12882 z m -3.84211,-2.241231 h 1.89232 l -0.72245,-1.974419 q -0.0493,-0.131354 -0.11083,-0.307861 -0.0575,-0.180612 -0.11493,-0.389958 -0.0575,0.209346 -0.11494,0.389958 -0.0534,0.180612 -0.10672,0.316071 z"
           style="font-style:normal;font-variant:normal;font-weight:bold;font-stretch:normal;font-family:Lato;-inkscape-font-specification:'Lato Bold';fill:#666666;stroke-width:0.205241"
           id="path885" />
        <path
           d="m 198.42301,52.50444 q 0,0.652667 -0.21755,1.198608 -0.21756,0.545941 -0.61162,0.940004 -0.39406,0.394062 -0.94822,0.611618 -0.55415,0.217555 -1.22734,0.217555 h -2.26586 v -5.935569 h 2.26586 q 0.67319,0 1.22734,0.22166 0.55416,0.217556 0.94822,0.611618 0.39406,0.389958 0.61162,0.935899 0.21755,0.545941 0.21755,1.198607 z m -1.12882,0 q 0,-0.488473 -0.13136,-0.874326 -0.13135,-0.389958 -0.37354,-0.656771 -0.24218,-0.270918 -0.59109,-0.414587 -0.34481,-0.143669 -0.77992,-0.143669 h -1.15345 v 4.178707 h 1.15345 q 0.43511,0 0.77992,-0.143669 0.34891,-0.143669 0.59109,-0.410482 0.24219,-0.270918 0.37354,-0.656771 0.13136,-0.389958 0.13136,-0.878432 z"
           style="font-style:normal;font-variant:normal;font-weight:bold;font-stretch:normal;font-family:Lato;-inkscape-font-specification:'Lato Bold';fill:#666666;stroke-width:0.205241"
           id="path887" />
        <path
           d="m 204.987,52.50444 q 0,0.652667 -0.21756,1.210922 -0.21755,0.554151 -0.61162,0.960528 -0.39406,0.406377 -0.94821,0.636247 -0.55415,0.225765 -1.22734,0.225765 -0.67319,0 -1.23145,-0.225765 -0.55415,-0.22987 -0.95231,-0.636247 -0.39407,-0.406377 -0.61162,-0.960528 -0.21756,-0.558255 -0.21756,-1.210922 0,-0.652666 0.21756,-1.206817 0.21755,-0.558255 0.61162,-0.964632 0.39816,-0.406377 0.95231,-0.632142 0.55826,-0.22987 1.23145,-0.22987 0.67319,0 1.22734,0.22987 0.55415,0.229869 0.94821,0.636247 0.39407,0.402272 0.61162,0.960527 0.21756,0.554151 0.21756,1.206817 z m -1.13293,0 q 0,-0.488473 -0.13136,-0.874326 -0.12725,-0.389958 -0.36943,-0.660876 -0.24218,-0.270918 -0.59109,-0.414587 -0.34481,-0.143669 -0.77992,-0.143669 -0.43511,0 -0.78402,0.143669 -0.34891,0.143669 -0.5952,0.414587 -0.24218,0.270918 -0.37354,0.660876 -0.13135,0.385853 -0.13135,0.874326 0,0.488474 0.13135,0.878432 0.13136,0.385853 0.37354,0.656771 0.24629,0.266813 0.5952,0.410482 0.34891,0.143669 0.78402,0.143669 0.43511,0 0.77992,-0.143669 0.34891,-0.143669 0.59109,-0.410482 0.24218,-0.270918 0.36943,-0.656771 0.13136,-0.389958 0.13136,-0.878432 z"
           style="font-style:normal;font-variant:normal;font-weight:bold;font-stretch:normal;font-family:Lato;-inkscape-font-specification:'Lato Bold';fill:#666666;stroke-width:0.205241"
           id="path889" />
        <path
           d="m 212.65635,55.472225 h -0.85381 q -0.14366,0 -0.23808,-0.06978 -0.0903,-0.07389 -0.13135,-0.180612 l -0.44332,-1.210922 H 208.531 l -0.44332,1.210922 q -0.0328,0.09441 -0.13135,0.172403 -0.0944,0.07799 -0.23398,0.07799 h -0.8579 l 2.33153,-5.935569 h 1.12883 z m -3.84211,-2.241231 h 1.89232 l -0.72245,-1.974419 q -0.0493,-0.131354 -0.11083,-0.307861 -0.0575,-0.180612 -0.11494,-0.389958 -0.0575,0.209346 -0.11493,0.389958 -0.0534,0.180612 -0.10673,0.316071 z"
           style="font-style:normal;font-variant:normal;font-weight:bold;font-stretch:normal;font-family:Lato;-inkscape-font-specification:'Lato Bold';fill:#666666;stroke-width:0.205241"
           id="path891" />
        <path
           d="m 214.51941,55.472225 h -1.1083 v -5.935569 h 1.1083 z"
           style="font-style:normal;font-variant:normal;font-weight:bold;font-stretch:normal;font-family:Lato;-inkscape-font-specification:'Lato Bold';fill:#666666;stroke-width:0.205241"
           id="path893" />
        <path
           d="m 216.43598,49.536656 q 0.0739,0 0.12314,0.0082 0.0493,0.0041 0.0862,0.02463 0.0411,0.01642 0.078,0.05336 0.0369,0.03284 0.0821,0.09031 l 3.11556,3.969361 q -0.0164,-0.143669 -0.0246,-0.279128 -0.004,-0.139564 -0.004,-0.258604 v -3.608136 h 0.97285 v 5.935569 h -0.57057 q -0.13136,0 -0.21756,-0.04105 -0.0862,-0.04105 -0.1683,-0.147774 l -3.10324,-3.952941 q 0.0123,0.131354 0.0164,0.262709 0.008,0.127249 0.008,0.233974 v 3.64508 h -0.97284 v -5.935569 h 0.57878 z"
           style="font-style:normal;font-variant:normal;font-weight:bold;font-stretch:normal;font-family:Lato;-inkscape-font-specification:'Lato Bold';fill:#666666;stroke-width:0.205241"
           id="path895" />
        <path
           d="m 227.33312,52.50444 q 0,0.652667 -0.21755,1.198608 -0.21756,0.545941 -0.61162,0.940004 -0.39406,0.394062 -0.94821,0.611618 -0.55416,0.217555 -1.22735,0.217555 h -2.26586 v -5.935569 h 2.26586 q 0.67319,0 1.22735,0.22166 0.55415,0.217556 0.94821,0.611618 0.39406,0.389958 0.61162,0.935899 0.21755,0.545941 0.21755,1.198607 z m -1.12882,0 q 0,-0.488473 -0.13136,-0.874326 -0.13135,-0.389958 -0.37354,-0.656771 -0.24218,-0.270918 -0.59109,-0.414587 -0.3448,-0.143669 -0.77992,-0.143669 h -1.15345 v 4.178707 h 1.15345 q 0.43512,0 0.77992,-0.143669 0.34891,-0.143669 0.59109,-0.410482 0.24219,-0.270918 0.37354,-0.656771 0.13136,-0.389958 0.13136,-0.878432 z"
           style="font-style:normal;font-variant:normal;font-weight:bold;font-stretch:normal;font-family:Lato;-inkscape-font-specification:'Lato Bold';fill:#666666;stroke-width:0.205241"
           id="path897" />
        <path
           d="m 233.21251,55.472225 h -0.8538 q -0.14367,0 -0.23808,-0.06978 -0.0903,-0.07389 -0.13135,-0.180612 l -0.44332,-1.210922 h -2.45879 l -0.44332,1.210922 q -0.0328,0.09441 -0.13135,0.172403 -0.0944,0.07799 -0.23398,0.07799 h -0.85791 l 2.33154,-5.935569 h 1.12883 z m -3.84211,-2.241231 h 1.89232 l -0.72244,-1.974419 q -0.0493,-0.131354 -0.11083,-0.307861 -0.0575,-0.180612 -0.11494,-0.389958 -0.0575,0.209346 -0.11493,0.389958 -0.0534,0.180612 -0.10673,0.316071 z"
           style="font-style:normal;font-variant:normal;font-weight:bold;font-stretch:normal;font-family:Lato;-inkscape-font-specification:'Lato Bold';fill:#666666;stroke-width:0.205241"
           id="path899" />
      </g>
      <g
         aria-label="CLIQUE ABAIXO PARA ADICIONAR UM NOVO"
         id="text852"
         style="font-style:normal;font-weight:normal;font-size:4.22208px;line-height:1.25;font-family:sans-serif;fill:#4d4d4d;fill-opacity:1;stroke:none;stroke-width:0.105552"
         transform="matrix(0.85158948,0,0,0.85158948,8.892109,12.026881)">
        <path
           d="m 103.09516,64.638748 q -0.11339,0.04948 -0.20616,0.09277 -0.0907,0.04329 -0.23914,0.09071 -0.12575,0.03917 -0.27419,0.06597 -0.14637,0.02886 -0.32366,0.02886 -0.33397,0 -0.60816,-0.09277 -0.27213,-0.09483 -0.47416,-0.294804 -0.19791,-0.195848 -0.30924,-0.496836 -0.11132,-0.30305 -0.11132,-0.702993 0,-0.379328 0.1072,-0.678254 0.1072,-0.298927 0.30924,-0.505083 0.19584,-0.199972 0.47209,-0.305111 0.27831,-0.10514 0.61641,-0.10514 0.24739,0 0.49271,0.05978 0.24739,0.05979 0.54838,0.21028 V 62.4906 h -0.0309 q -0.25358,-0.212341 -0.50303,-0.309235 -0.24944,-0.09689 -0.53394,-0.09689 -0.23296,0 -0.42056,0.07628 -0.18554,0.07422 -0.33191,0.232956 -0.14225,0.154618 -0.22265,0.391697 -0.0783,0.235018 -0.0783,0.544253 0,0.323665 0.0866,0.556622 0.0886,0.232956 0.22677,0.379327 0.14431,0.152556 0.33603,0.226772 0.19379,0.07215 0.40819,0.07215 0.29481,0 0.5525,-0.101017 0.2577,-0.101016 0.48241,-0.303049 h 0.0289 z"
           style="fill:#4d4d4d;stroke-width:0.105552"
           id="path902" />
        <path
           d="m 105.61851,64.861397 h -1.94199 V 61.79173 h 0.40819 v 2.706832 h 1.5338 z"
           style="fill:#4d4d4d;stroke-width:0.105552"
           id="path904" />
        <path
           d="m 107.10902,64.861397 h -1.2122 v -0.313358 h 0.40201 v -2.442951 h -0.40201 V 61.79173 h 1.2122 v 0.313358 h -0.402 v 2.442951 h 0.402 z"
           style="fill:#4d4d4d;stroke-width:0.105552"
           id="path906" />
        <path
           d="m 110.54565,65.613867 q -0.1237,0.03092 -0.24533,0.04329 -0.11957,0.01443 -0.24532,0.01443 -0.35872,0 -0.57724,-0.19791 -0.21647,-0.195849 -0.23502,-0.562807 -0.0495,0.0082 -0.0969,0.01031 -0.0454,0.0041 -0.0887,0.0041 -0.32367,0 -0.58961,-0.107201 -0.26388,-0.107201 -0.44942,-0.311296 -0.18554,-0.204095 -0.28656,-0.50096 -0.099,-0.296865 -0.099,-0.678254 0,-0.375204 0.099,-0.672069 0.099,-0.298927 0.28862,-0.511268 0.18142,-0.202033 0.44942,-0.309234 0.27007,-0.107201 0.58755,-0.107201 0.32985,0 0.59167,0.109262 0.26388,0.107202 0.44736,0.307173 0.1876,0.206157 0.28655,0.505083 0.10102,0.298927 0.10102,0.678254 0,0.562807 -0.23089,0.948319 -0.22884,0.385512 -0.61641,0.540129 0.008,0.235019 0.11132,0.364897 0.10308,0.129878 0.37521,0.129878 0.0845,0 0.19997,-0.0268 0.11751,-0.02474 0.16698,-0.04535 h 0.0557 z m -0.48653,-2.286273 q 0,-0.597853 -0.268,-0.921518 -0.26801,-0.325727 -0.73186,-0.325727 -0.46797,0 -0.73598,0.325727 -0.26594,0.323665 -0.26594,0.921518 0,0.604038 0.27213,0.925642 0.27212,0.319542 0.72979,0.319542 0.45767,0 0.72773,-0.319542 0.27213,-0.321604 0.27213,-0.925642 z"
           style="fill:#4d4d4d;stroke-width:0.105552"
           id="path908" />
        <path
           d="m 113.44214,63.628582 q 0,0.333973 -0.0742,0.583423 -0.0722,0.247387 -0.23915,0.412312 -0.15874,0.156679 -0.37108,0.228834 -0.21234,0.07215 -0.49477,0.07215 -0.28862,0 -0.50302,-0.07628 -0.21441,-0.07628 -0.36078,-0.22471 -0.16698,-0.169048 -0.2412,-0.408189 -0.0721,-0.239142 -0.0721,-0.587546 V 61.79173 h 0.40819 v 1.857468 q 0,0.249449 0.033,0.393758 0.035,0.14431 0.11545,0.261819 0.0907,0.134001 0.24532,0.202033 0.15668,0.06803 0.37521,0.06803 0.22059,0 0.3752,-0.06597 0.15462,-0.06803 0.24739,-0.204095 0.0804,-0.117509 0.11339,-0.268003 0.035,-0.152556 0.035,-0.377266 V 61.79173 h 0.40819 z"
           style="fill:#4d4d4d;stroke-width:0.105552"
           id="path910" />
        <path
           d="m 116.24587,64.861397 h -2.0224 V 61.79173 h 2.0224 v 0.362835 h -1.61421 v 0.841118 h 1.61421 v 0.362835 h -1.61421 v 1.140044 h 1.61421 z"
           style="fill:#4d4d4d;stroke-width:0.105552"
           id="path912" />
        <path
           d="m 120.79986,64.861397 h -0.43499 l -0.30099,-0.855549 h -1.32765 l -0.30098,0.855549 h -0.41438 l 1.11737,-3.069667 h 0.54425 z m -0.86173,-1.206014 -0.53807,-1.507003 -0.54013,1.507003 z"
           style="fill:#4d4d4d;stroke-width:0.105552"
           id="path914" />
        <path
           d="m 123.58091,63.917201 q 0,0.228834 -0.0866,0.404066 -0.0866,0.175233 -0.23295,0.288619 -0.17318,0.136063 -0.38139,0.193787 -0.20616,0.05772 -0.5257,0.05772 h -1.08851 V 61.79173 h 0.90915 q 0.33604,0 0.50302,0.02474 0.16699,0.02474 0.31955,0.103078 0.16904,0.08865 0.24532,0.228833 0.0763,0.138125 0.0763,0.331912 0,0.218526 -0.11133,0.373143 -0.11132,0.152555 -0.29686,0.245326 v 0.01649 q 0.3113,0.06391 0.49065,0.274188 0.17936,0.208218 0.17936,0.52776 z m -0.6865,-1.383308 q 0,-0.111325 -0.0371,-0.187603 -0.0371,-0.07628 -0.11957,-0.123693 -0.0969,-0.05566 -0.23502,-0.06803 -0.13812,-0.01443 -0.34222,-0.01443 h -0.48653 v 0.886472 h 0.52776 q 0.19173,0 0.30511,-0.01855 0.11339,-0.02062 0.21028,-0.08246 0.0969,-0.06185 0.13607,-0.15874 0.0412,-0.09896 0.0412,-0.232956 z m 0.26182,1.399801 q 0,-0.185541 -0.0557,-0.294804 -0.0557,-0.109263 -0.20203,-0.18554 -0.0989,-0.05154 -0.2412,-0.06597 -0.14019,-0.01649 -0.34222,-0.01649 h -0.64115 v 1.142106 h 0.54013 q 0.268,0 0.43911,-0.0268 0.17111,-0.02886 0.28038,-0.103078 0.11544,-0.0804 0.16905,-0.183479 0.0536,-0.103078 0.0536,-0.265941 z"
           style="fill:#4d4d4d;stroke-width:0.105552"
           id="path916" />
        <path
           d="m 126.58048,64.861397 h -0.43499 l -0.30099,-0.855549 h -1.32764 l -0.30099,0.855549 h -0.41438 l 1.11737,-3.069667 h 0.54425 z m -0.86173,-1.206014 -0.53807,-1.507003 -0.54013,1.507003 z"
           style="fill:#4d4d4d;stroke-width:0.105552"
           id="path918" />
        <path
           d="m 128.12871,64.861397 h -1.2122 v -0.313358 h 0.40201 v -2.442951 h -0.40201 V 61.79173 h 1.2122 v 0.313358 h -0.402 v 2.442951 h 0.402 z"
           style="fill:#4d4d4d;stroke-width:0.105552"
           id="path920" />
        <path
           d="m 131.16952,61.79173 -1.05964,1.51731 1.05758,1.552357 h -0.4721 l -0.83699,-1.263738 -0.85761,1.263738 h -0.4453 l 1.06995,-1.533803 -1.04521,-1.535864 h 0.47003 l 0.82669,1.247245 0.84524,-1.247245 z"
           style="fill:#4d4d4d;stroke-width:0.105552"
           id="path922" />
        <path
           d="m 133.99386,62.144257 q 0.1876,0.206157 0.28656,0.505083 0.10101,0.298927 0.10101,0.678254 0,0.379328 -0.10307,0.680316 -0.10102,0.298926 -0.2845,0.498898 -0.18966,0.208218 -0.44942,0.313358 -0.2577,0.105139 -0.58961,0.105139 -0.32366,0 -0.5896,-0.107201 -0.26388,-0.107201 -0.44943,-0.311296 -0.18554,-0.204095 -0.28655,-0.50096 -0.099,-0.296865 -0.099,-0.678254 0,-0.375204 0.099,-0.672069 0.0989,-0.298927 0.28862,-0.511268 0.18141,-0.202033 0.44942,-0.309234 0.27006,-0.107201 0.58754,-0.107201 0.32985,0 0.59167,0.109262 0.26388,0.107202 0.44736,0.307173 z m -0.0371,1.183337 q 0,-0.597853 -0.268,-0.921518 -0.268,-0.325727 -0.73186,-0.325727 -0.46797,0 -0.73597,0.325727 -0.26595,0.323665 -0.26595,0.921518 0,0.604038 0.27213,0.925642 0.27213,0.319542 0.72979,0.319542 0.45767,0 0.72774,-0.319542 0.27212,-0.321604 0.27212,-0.925642 z"
           style="fill:#4d4d4d;stroke-width:0.105552"
           id="path924" />
        <path
           d="m 138.52105,62.719433 q 0,0.204095 -0.0721,0.379328 -0.0701,0.173171 -0.19791,0.300988 -0.15874,0.15874 -0.37521,0.239141 -0.21646,0.07834 -0.54631,0.07834 h -0.40819 v 1.144167 h -0.40819 V 61.79173 h 0.83287 q 0.27625,0 0.46798,0.04742 0.19172,0.04535 0.34015,0.144309 0.17524,0.117509 0.27007,0.292742 0.0969,0.175233 0.0969,0.443236 z m -0.42468,0.01031 q 0,-0.15874 -0.0557,-0.276249 -0.0557,-0.117509 -0.16905,-0.191726 -0.099,-0.06391 -0.22677,-0.09071 -0.12576,-0.02886 -0.31955,-0.02886 h -0.40406 v 1.226629 h 0.34428 q 0.24739,0 0.402,-0.04329 0.15462,-0.04536 0.25151,-0.142248 0.0969,-0.09895 0.13607,-0.208218 0.0412,-0.109263 0.0412,-0.245326 z"
           style="fill:#4d4d4d;stroke-width:0.105552"
           id="path926" />
        <path
           d="m 141.3825,64.861397 h -0.43499 l -0.30099,-0.855549 h -1.32765 l -0.30098,0.855549 h -0.41438 l 1.11737,-3.069667 h 0.54425 z m -0.86173,-1.206014 -0.53807,-1.507003 -0.54013,1.507003 z"
           style="fill:#4d4d4d;stroke-width:0.105552"
           id="path928" />
        <path
           d="m 144.38826,64.861397 h -0.52982 l -1.02666,-1.220445 h -0.57518 v 1.220445 h -0.40819 V 61.79173 h 0.85967 q 0.27832,0 0.46386,0.03711 0.18554,0.03505 0.33397,0.127817 0.16699,0.10514 0.25976,0.265942 0.0948,0.15874 0.0948,0.404066 0,0.331911 -0.16699,0.556622 -0.16699,0.222649 -0.45973,0.336035 z m -0.95451,-2.205872 q 0,-0.13194 -0.0474,-0.232957 -0.0454,-0.103078 -0.15256,-0.173171 -0.0886,-0.05979 -0.21028,-0.08246 -0.12163,-0.02474 -0.28655,-0.02474 h -0.48035 v 1.158598 h 0.41231 q 0.19379,0 0.3381,-0.03299 0.14431,-0.03505 0.24533,-0.127817 0.0928,-0.08659 0.13606,-0.19791 0.0454,-0.113386 0.0454,-0.286557 z"
           style="fill:#4d4d4d;stroke-width:0.105552"
           id="path930" />
        <path
           d="m 147.20435,64.861397 h -0.43499 l -0.30099,-0.855549 h -1.32764 l -0.30099,0.855549 h -0.41437 l 1.11736,-3.069667 h 0.54426 z m -0.86173,-1.206014 -0.53807,-1.507003 -0.54013,1.507003 z"
           style="fill:#4d4d4d;stroke-width:0.105552"
           id="path932" />
        <path
           d="m 151.57487,64.861397 h -0.43499 l -0.30099,-0.855549 h -1.32765 l -0.30099,0.855549 h -0.41437 l 1.11737,-3.069667 h 0.54425 z m -0.86174,-1.206014 -0.53806,-1.507003 -0.54013,1.507003 z"
           style="fill:#4d4d4d;stroke-width:0.105552"
           id="path934" />
        <path
           d="m 154.63423,63.329656 q 0,0.418497 -0.18348,0.758655 -0.18142,0.340158 -0.48447,0.52776 -0.21028,0.129878 -0.47004,0.187602 -0.25769,0.05772 -0.68031,0.05772 h -0.77515 V 61.79173 h 0.7669 q 0.44942,0 0.7133,0.06597 0.26594,0.06391 0.44942,0.177294 0.31336,0.195849 0.48859,0.521576 0.17524,0.325727 0.17524,0.773086 z m -0.42675,-0.0062 q 0,-0.360773 -0.12575,-0.608161 -0.12576,-0.247387 -0.37521,-0.389635 -0.18141,-0.103078 -0.38551,-0.142248 -0.20409,-0.04123 -0.48859,-0.04123 h -0.38345 v 2.368735 h 0.38345 q 0.2948,0 0.51333,-0.04329 0.22059,-0.04329 0.40407,-0.160802 0.22883,-0.14637 0.34221,-0.385512 0.11545,-0.239141 0.11545,-0.597853 z"
           style="fill:#4d4d4d;stroke-width:0.105552"
           id="path936" />
        <path
           d="m 156.38037,64.861397 h -1.2122 v -0.313358 h 0.402 v -2.442951 h -0.402 V 61.79173 h 1.2122 v 0.313358 h -0.40201 v 2.442951 h 0.40201 z"
           style="fill:#4d4d4d;stroke-width:0.105552"
           id="path938" />
        <path
           d="m 159.45003,64.638748 q -0.11338,0.04948 -0.20615,0.09277 -0.0907,0.04329 -0.23914,0.09071 -0.12576,0.03917 -0.27419,0.06597 -0.14637,0.02886 -0.32367,0.02886 -0.33397,0 -0.60816,-0.09277 -0.27212,-0.09483 -0.47416,-0.294804 -0.19791,-0.195848 -0.30923,-0.496836 -0.11133,-0.30305 -0.11133,-0.702993 0,-0.379328 0.1072,-0.678254 0.10721,-0.298927 0.30924,-0.505083 0.19585,-0.199972 0.4721,-0.305111 0.27831,-0.10514 0.6164,-0.10514 0.24739,0 0.49272,0.05978 0.24738,0.05979 0.54837,0.21028 V 62.4906 h -0.0309 q -0.25357,-0.212341 -0.50302,-0.309235 -0.24945,-0.09689 -0.53395,-0.09689 -0.23295,0 -0.42056,0.07628 -0.18554,0.07422 -0.33191,0.232956 -0.14224,0.154618 -0.22265,0.391697 -0.0783,0.235018 -0.0783,0.544253 0,0.323665 0.0866,0.556622 0.0887,0.232956 0.22677,0.379327 0.14431,0.152556 0.33604,0.226772 0.19378,0.07215 0.40819,0.07215 0.2948,0 0.5525,-0.101017 0.25769,-0.101016 0.4824,-0.303049 h 0.0289 z"
           style="fill:#4d4d4d;stroke-width:0.105552"
           id="path940" />
        <path
           d="m 161.11372,64.861397 h -1.2122 v -0.313358 h 0.402 v -2.442951 h -0.402 V 61.79173 h 1.2122 v 0.313358 h -0.40201 v 2.442951 h 0.40201 z"
           style="fill:#4d4d4d;stroke-width:0.105552"
           id="path942" />
        <path
           d="m 164.10092,62.144257 q 0.1876,0.206157 0.28656,0.505083 0.10101,0.298927 0.10101,0.678254 0,0.379328 -0.10307,0.680316 -0.10102,0.298926 -0.2845,0.498898 -0.18966,0.208218 -0.44942,0.313358 -0.2577,0.105139 -0.58961,0.105139 -0.32366,0 -0.58961,-0.107201 -0.26388,-0.107201 -0.44942,-0.311296 -0.18554,-0.204095 -0.28655,-0.50096 -0.099,-0.296865 -0.099,-0.678254 0,-0.375204 0.099,-0.672069 0.099,-0.298927 0.28862,-0.511268 0.18141,-0.202033 0.44942,-0.309234 0.27006,-0.107201 0.58754,-0.107201 0.32985,0 0.59167,0.109262 0.26388,0.107202 0.44736,0.307173 z m -0.0371,1.183337 q 0,-0.597853 -0.268,-0.921518 -0.26801,-0.325727 -0.73186,-0.325727 -0.46797,0 -0.73597,0.325727 -0.26595,0.323665 -0.26595,0.921518 0,0.604038 0.27213,0.925642 0.27213,0.319542 0.72979,0.319542 0.45767,0 0.72774,-0.319542 0.27212,-0.321604 0.27212,-0.925642 z"
           style="fill:#4d4d4d;stroke-width:0.105552"
           id="path944" />
        <path
           d="m 167.47776,64.861397 h -0.50508 l -1.45547,-2.746002 v 2.746002 h -0.38139 V 61.79173 h 0.6329 l 1.32765,2.50686 v -2.50686 h 0.38139 z"
           style="fill:#4d4d4d;stroke-width:0.105552"
           id="path946" />
        <path
           d="m 170.71442,64.861397 h -0.43499 l -0.30099,-0.855549 h -1.32765 l -0.30099,0.855549 h -0.41437 l 1.11737,-3.069667 h 0.54425 z m -0.86174,-1.206014 -0.53807,-1.507003 -0.54013,1.507003 z"
           style="fill:#4d4d4d;stroke-width:0.105552"
           id="path948" />
        <path
           d="m 173.72017,64.861397 h -0.52982 l -1.02666,-1.220445 h -0.57518 v 1.220445 h -0.40818 V 61.79173 H 172.04 q 0.27831,0 0.46385,0.03711 0.18554,0.03505 0.33397,0.127817 0.16699,0.10514 0.25976,0.265942 0.0948,0.15874 0.0948,0.404066 0,0.331911 -0.16699,0.556622 -0.16698,0.222649 -0.45972,0.336035 z m -0.9545,-2.205872 q 0,-0.13194 -0.0474,-0.232957 -0.0454,-0.103078 -0.15255,-0.173171 -0.0887,-0.05979 -0.21028,-0.08246 -0.12164,-0.02474 -0.28656,-0.02474 h -0.48035 v 1.158598 h 0.41232 q 0.19378,0 0.33809,-0.03299 0.14431,-0.03505 0.24533,-0.127817 0.0928,-0.08659 0.13606,-0.19791 0.0454,-0.113386 0.0454,-0.286557 z"
           style="fill:#4d4d4d;stroke-width:0.105552"
           id="path950" />
        <path
           d="m 177.91133,63.628582 q 0,0.333973 -0.0742,0.583423 -0.0721,0.247387 -0.23914,0.412312 -0.15874,0.156679 -0.37108,0.228834 -0.21234,0.07215 -0.49478,0.07215 -0.28861,0 -0.50302,-0.07628 -0.2144,-0.07628 -0.36077,-0.22471 -0.16699,-0.169048 -0.2412,-0.408189 -0.0722,-0.239142 -0.0722,-0.587546 V 61.79173 h 0.40819 v 1.857468 q 0,0.249449 0.033,0.393758 0.035,0.14431 0.11544,0.261819 0.0907,0.134001 0.24533,0.202033 0.15668,0.06803 0.3752,0.06803 0.22059,0 0.37521,-0.06597 0.15462,-0.06803 0.24739,-0.204095 0.0804,-0.117509 0.11338,-0.268003 0.0351,-0.152556 0.0351,-0.377266 V 61.79173 h 0.40819 z"
           style="fill:#4d4d4d;stroke-width:0.105552"
           id="path952" />
        <path
           d="m 181.42629,64.861397 h -0.40819 v -2.644985 l -0.85348,1.799744 h -0.24327 l -0.8473,-1.799744 v 2.644985 h -0.38139 V 61.79173 h 0.55662 l 0.81844,1.709035 0.79164,-1.709035 h 0.56693 z"
           style="fill:#4d4d4d;stroke-width:0.105552"
           id="path954" />
        <path
           d="m 186.0813,64.861397 h -0.50509 l -1.45546,-2.746002 v 2.746002 h -0.38139 V 61.79173 h 0.6329 l 1.32765,2.50686 v -2.50686 h 0.38139 z"
           style="fill:#4d4d4d;stroke-width:0.105552"
           id="path956" />
        <path
           d="m 189.18601,62.144257 q 0.18761,0.206157 0.28656,0.505083 0.10102,0.298927 0.10102,0.678254 0,0.379328 -0.10308,0.680316 -0.10102,0.298926 -0.2845,0.498898 -0.18966,0.208218 -0.44942,0.313358 -0.25769,0.105139 -0.5896,0.105139 -0.32367,0 -0.58961,-0.107201 -0.26388,-0.107201 -0.44942,-0.311296 -0.18554,-0.204095 -0.28656,-0.50096 -0.099,-0.296865 -0.099,-0.678254 0,-0.375204 0.099,-0.672069 0.099,-0.298927 0.28862,-0.511268 0.18142,-0.202033 0.44942,-0.309234 0.27007,-0.107201 0.58755,-0.107201 0.32985,0 0.59166,0.109262 0.26388,0.107202 0.44736,0.307173 z m -0.0371,1.183337 q 0,-0.597853 -0.26801,-0.921518 -0.268,-0.325727 -0.73185,-0.325727 -0.46798,0 -0.73598,0.325727 -0.26594,0.323665 -0.26594,0.921518 0,0.604038 0.27212,0.925642 0.27213,0.319542 0.7298,0.319542 0.45766,0 0.72773,-0.319542 0.27213,-0.321604 0.27213,-0.925642 z"
           style="fill:#4d4d4d;stroke-width:0.105552"
           id="path958" />
        <path
           d="m 192.6412,61.79173 -1.11737,3.069667 h -0.54425 l -1.11737,-3.069667 h 0.43705 l 0.96275,2.700647 0.96275,-2.700647 z"
           style="fill:#4d4d4d;stroke-width:0.105552"
           id="path960" />
        <path
           d="m 195.39544,62.144257 q 0.1876,0.206157 0.28656,0.505083 0.10101,0.298927 0.10101,0.678254 0,0.379328 -0.10307,0.680316 -0.10102,0.298926 -0.2845,0.498898 -0.18966,0.208218 -0.44942,0.313358 -0.2577,0.105139 -0.58961,0.105139 -0.32366,0 -0.5896,-0.107201 -0.26388,-0.107201 -0.44942,-0.311296 -0.18555,-0.204095 -0.28656,-0.50096 -0.099,-0.296865 -0.099,-0.678254 0,-0.375204 0.099,-0.672069 0.099,-0.298927 0.28862,-0.511268 0.18141,-0.202033 0.44942,-0.309234 0.27006,-0.107201 0.58754,-0.107201 0.32985,0 0.59167,0.109262 0.26388,0.107202 0.44736,0.307173 z m -0.0371,1.183337 q 0,-0.597853 -0.268,-0.921518 -0.268,-0.325727 -0.73186,-0.325727 -0.46797,0 -0.73597,0.325727 -0.26594,0.323665 -0.26594,0.921518 0,0.604038 0.27212,0.925642 0.27213,0.319542 0.72979,0.319542 0.45767,0 0.72774,-0.319542 0.27212,-0.321604 0.27212,-0.925642 z"
           style="fill:#4d4d4d;stroke-width:0.105552"
           id="path962" />
      </g>
      <g
         transform="matrix(0.68025387,0,0,0.68025387,35.322711,11.404254)"
         id="g868">
        <rect
           style="opacity:0.998;fill:#00c2ff;fill-opacity:1;stroke-width:1.25554;stroke-linecap:square;paint-order:markers stroke fill"
           id="rect858"
           width="65.481033"
           height="12.561667"
           x="111.15187"
           y="89.802574"
           ry="3.4745038" />
        <g
           aria-label="ADICIONAR BANNER"
           id="text856"
           style="font-style:normal;font-weight:normal;font-size:5.2855px;line-height:1.25;font-family:sans-serif;fill:#ffffff;fill-opacity:1;stroke:none;stroke-width:0.132138">
          <path
             d="m 119.75924,98.004822 h -0.54455 l -0.3768,-1.071037 h -1.66204 l -0.3768,1.071037 h -0.51875 l 1.3988,-3.842827 h 0.68134 z m -1.07878,-1.509774 -0.67359,-1.886573 -0.67618,1.886573 z"
             style="fill:#ffffff;stroke-width:0.132138"
             id="path965" />
          <path
             d="m 123.58916,96.08728 q 0,0.523904 -0.22969,0.949738 -0.22711,0.425834 -0.60649,0.660687 -0.26325,0.162591 -0.58843,0.234854 -0.3226,0.07226 -0.85166,0.07226 h -0.97039 v -3.842827 h 0.96006 q 0.56262,0 0.89296,0.08259 0.33293,0.08 0.56262,0.221949 0.39228,0.245177 0.61165,0.652946 0.21937,0.407768 0.21937,0.967803 z m -0.53423,-0.0077 q 0,-0.451642 -0.15743,-0.761339 -0.15743,-0.309697 -0.4697,-0.487773 -0.22712,-0.129041 -0.48262,-0.178076 -0.2555,-0.05162 -0.61165,-0.05162 h -0.48003 v 2.965351 h 0.48003 q 0.36906,0 0.64262,-0.0542 0.27615,-0.0542 0.50584,-0.201303 0.28647,-0.183238 0.42842,-0.482612 0.14452,-0.299374 0.14452,-0.748435 z"
             style="fill:#ffffff;stroke-width:0.132138"
             id="path967" />
          <path
             d="m 125.77511,98.004822 h -1.51752 v -0.392283 h 0.50326 v -3.058261 h -0.50326 v -0.392283 h 1.51752 v 0.392283 h -0.50326 v 3.058261 h 0.50326 z"
             style="fill:#ffffff;stroke-width:0.132138"
             id="path969" />
          <path
             d="m 129.61793,97.726094 q -0.14194,0.06194 -0.25808,0.116137 -0.11355,0.0542 -0.29937,0.113555 -0.15743,0.04904 -0.34325,0.08259 -0.18324,0.03613 -0.40519,0.03613 -0.41809,0 -0.76134,-0.116137 -0.34066,-0.118717 -0.59358,-0.369056 -0.24776,-0.245177 -0.38712,-0.621975 -0.13937,-0.379379 -0.13937,-0.880056 0,-0.47487 0.1342,-0.849087 0.13421,-0.374218 0.38713,-0.632299 0.24517,-0.250338 0.591,-0.38196 0.34841,-0.131621 0.77166,-0.131621 0.3097,0 0.61682,0.07484 0.30969,0.07484 0.68649,0.263243 v 0.606491 h -0.0387 q -0.31744,-0.265824 -0.62972,-0.387122 -0.31228,-0.121298 -0.66843,-0.121298 -0.29163,0 -0.52648,0.09549 -0.23228,0.09291 -0.41551,0.291632 -0.17808,0.19356 -0.27873,0.490354 -0.0981,0.294212 -0.0981,0.681334 0,0.405187 0.10839,0.696818 0.11098,0.291632 0.28389,0.47487 0.18066,0.19098 0.42067,0.283889 0.2426,0.09033 0.511,0.09033 0.36906,0 0.69166,-0.12646 0.3226,-0.126459 0.60391,-0.379379 h 0.0361 z"
             style="fill:#ffffff;stroke-width:0.132138"
             id="path971" />
          <path
             d="m 131.70065,98.004822 h -1.51752 v -0.392283 h 0.50326 v -3.058261 h -0.50326 v -0.392283 h 1.51752 v 0.392283 h -0.50326 v 3.058261 h 0.50326 z"
             style="fill:#ffffff;stroke-width:0.132138"
             id="path973" />
          <path
             d="m 135.44024,94.603313 q 0.23486,0.258082 0.35873,0.632299 0.12646,0.374218 0.12646,0.849087 0,0.474869 -0.12904,0.851667 -0.12646,0.374218 -0.35615,0.624556 -0.23743,0.260662 -0.56262,0.392284 -0.3226,0.131621 -0.73811,0.131621 -0.40518,0 -0.73811,-0.134202 -0.33034,-0.134202 -0.56262,-0.389703 -0.23227,-0.2555 -0.35873,-0.627137 -0.12388,-0.371636 -0.12388,-0.849086 0,-0.469708 0.12388,-0.841345 0.12388,-0.374217 0.36132,-0.640041 0.22711,-0.252919 0.56261,-0.387121 0.33809,-0.134202 0.73553,-0.134202 0.41293,0 0.7407,0.136783 0.33034,0.134202 0.56003,0.38454 z m -0.0464,1.481386 q 0,-0.748435 -0.33551,-1.153623 -0.3355,-0.407768 -0.91619,-0.407768 -0.58584,0 -0.92135,0.407768 -0.33292,0.405188 -0.33292,1.153623 0,0.756177 0.34067,1.158784 0.34066,0.400025 0.9136,0.400025 0.57294,0 0.91103,-0.400025 0.34067,-0.402607 0.34067,-1.158784 z"
             style="fill:#ffffff;stroke-width:0.132138"
             id="path975" />
          <path
             d="m 139.66761,98.004822 h -0.6323 l -1.82205,-3.43764 v 3.43764 h -0.47745 v -3.842827 h 0.79231 l 1.66204,3.138265 v -3.138265 h 0.47745 z"
             style="fill:#ffffff;stroke-width:0.132138"
             id="path977" />
          <path
             d="m 143.71948,98.004822 h -0.54455 l -0.3768,-1.071037 h -1.66204 l -0.3768,1.071037 h -0.51874 l 1.3988,-3.842827 h 0.68133 z m -1.07878,-1.509774 -0.67359,-1.886573 -0.67617,1.886573 z"
             style="fill:#ffffff;stroke-width:0.132138"
             id="path979" />
          <path
             d="m 147.4823,98.004822 h -0.66326 l -1.28525,-1.52784 h -0.72004 v 1.52784 h -0.511 v -3.842827 h 1.07619 q 0.34841,0 0.58069,0.04645 0.23227,0.04387 0.41809,0.160011 0.20904,0.131621 0.32518,0.332924 0.11872,0.198723 0.11872,0.505839 0,0.415511 -0.20905,0.696819 -0.20905,0.278728 -0.57552,0.420672 z m -1.19491,-2.761468 q 0,-0.165171 -0.0594,-0.291631 -0.0568,-0.129041 -0.19098,-0.216788 -0.11098,-0.07484 -0.26324,-0.103233 -0.15227,-0.03097 -0.35874,-0.03097 h -0.60132 v 1.450415 h 0.51616 q 0.24259,0 0.42325,-0.04129 0.18066,-0.04387 0.30712,-0.16001 0.11613,-0.108394 0.17033,-0.247758 0.0568,-0.141944 0.0568,-0.358733 z"
             style="fill:#ffffff;stroke-width:0.132138"
             id="path981" />
          <path
             d="m 152.73426,96.822811 q 0,0.28647 -0.1084,0.505838 -0.10839,0.219369 -0.29163,0.361314 -0.21679,0.170333 -0.47745,0.242596 -0.25808,0.07226 -0.65811,0.07226 h -1.36266 v -3.842827 h 1.13813 q 0.42067,0 0.62972,0.03097 0.20905,0.03097 0.40003,0.12904 0.21162,0.110975 0.30711,0.28647 0.0955,0.172914 0.0955,0.415511 0,0.273565 -0.13936,0.467126 -0.13936,0.19098 -0.37164,0.307117 v 0.02065 q 0.3897,0.08 0.61424,0.343248 0.22453,0.260662 0.22453,0.660688 z m -0.85941,-1.731724 q 0,-0.139364 -0.0465,-0.234854 -0.0465,-0.09549 -0.14969,-0.154849 -0.12129,-0.06968 -0.29421,-0.08517 -0.17291,-0.01807 -0.42841,-0.01807 h -0.60907 V 95.7079 h 0.66068 q 0.24002,0 0.38196,-0.02323 0.14195,-0.02581 0.26325,-0.103232 0.12129,-0.07743 0.17033,-0.198723 0.0516,-0.123879 0.0516,-0.291631 z m 0.32776,1.75237 q 0,-0.232273 -0.0697,-0.369056 -0.0697,-0.136783 -0.25292,-0.232273 -0.12388,-0.06452 -0.30196,-0.08259 -0.17549,-0.02065 -0.42841,-0.02065 h -0.80263 v 1.429769 h 0.67617 q 0.3355,0 0.54971,-0.03355 0.21421,-0.03613 0.35099,-0.12904 0.14453,-0.100652 0.21163,-0.229692 0.0671,-0.129041 0.0671,-0.332925 z"
             style="fill:#ffffff;stroke-width:0.132138"
             id="path983" />
          <path
             d="m 156.48933,98.004822 h -0.54455 l -0.3768,-1.071037 h -1.66204 l -0.3768,1.071037 h -0.51874 l 1.3988,-3.842827 h 0.68133 z m -1.07878,-1.509774 -0.67359,-1.886573 -0.67617,1.886573 z"
             style="fill:#ffffff;stroke-width:0.132138"
             id="path985" />
          <path
             d="m 160.0044,98.004822 h -0.6323 l -1.82205,-3.43764 v 3.43764 h -0.47745 v -3.842827 h 0.79231 l 1.66204,3.138265 v -3.138265 h 0.47745 z"
             style="fill:#ffffff;stroke-width:0.132138"
             id="path987" />
          <path
             d="m 163.9582,98.004822 h -0.6323 l -1.82205,-3.43764 v 3.43764 h -0.47745 v -3.842827 h 0.79231 l 1.66204,3.138265 v -3.138265 h 0.47745 z"
             style="fill:#ffffff;stroke-width:0.132138"
             id="path989" />
          <path
             d="m 167.51198,98.004822 h -2.53178 v -3.842827 h 2.53178 v 0.454222 h -2.02078 v 1.052971 h 2.02078 v 0.454223 h -2.02078 v 1.427188 h 2.02078 z"
             style="fill:#ffffff;stroke-width:0.132138"
             id="path991" />
          <path
             d="m 171.50449,98.004822 h -0.66327 l -1.28524,-1.52784 h -0.72005 v 1.52784 h -0.511 v -3.842827 h 1.0762 q 0.34841,0 0.58068,0.04645 0.23227,0.04387 0.41809,0.160011 0.20905,0.131621 0.32519,0.332924 0.11871,0.198723 0.11871,0.505839 0,0.415511 -0.20904,0.696819 -0.20905,0.278728 -0.57552,0.420672 z m -1.19492,-2.761468 q 0,-0.165171 -0.0593,-0.291631 -0.0568,-0.129041 -0.19098,-0.216788 -0.11098,-0.07484 -0.26325,-0.103233 -0.15226,-0.03097 -0.35873,-0.03097 h -0.60133 v 1.450415 h 0.51616 q 0.2426,0 0.42326,-0.04129 0.18065,-0.04387 0.30711,-0.16001 0.11614,-0.108394 0.17034,-0.247758 0.0568,-0.141944 0.0568,-0.358733 z"
             style="fill:#ffffff;stroke-width:0.132138"
             id="path993" />
        </g>
      </g>
    </g>
  </g>
</svg>
