<?xml version="1.0" encoding="UTF-8" standalone="no"?>
<svg
   xmlns:dc="http://purl.org/dc/elements/1.1/"
   xmlns:cc="http://creativecommons.org/ns#"
   xmlns:rdf="http://www.w3.org/1999/02/22-rdf-syntax-ns#"
   xmlns:svg="http://www.w3.org/2000/svg"
   xmlns="http://www.w3.org/2000/svg"
   xmlns:sodipodi="http://sodipodi.sourceforge.net/DTD/sodipodi-0.dtd"
   xmlns:inkscape="http://www.inkscape.org/namespaces/inkscape"
   width="127.83231mm"
   height="48.308128mm"
   viewBox="0 0 127.83231 48.308128"
   version="1.1"
   id="svg8"
   inkscape:version="1.0 (4035a4fb49, 2020-05-01)"
   sodipodi:docname="logo2.svg">
  <defs
     id="defs2" />
  <sodipodi:namedview
     id="base"
     pagecolor="#ffffff"
     bordercolor="#666666"
     borderopacity="1.0"
     inkscape:pageopacity="0.0"
     inkscape:pageshadow="2"
     inkscape:zoom="0.7"
     inkscape:cx="-2.5944084"
     inkscape:cy="305.83723"
     inkscape:document-units="mm"
     inkscape:current-layer="layer1"
     inkscape:document-rotation="0"
     showgrid="false"
     inkscape:window-width="1344"
     inkscape:window-height="728"
     inkscape:window-x="0"
     inkscape:window-y="0"
     inkscape:window-maximized="0" />
  <metadata
     id="metadata5">
    <rdf:RDF>
      <cc:Work
         rdf:about="">
        <dc:format>image/svg+xml</dc:format>
        <dc:type
           rdf:resource="http://purl.org/dc/dcmitype/StillImage" />
        <dc:title></dc:title>
      </cc:Work>
    </rdf:RDF>
  </metadata>
  <g
     inkscape:label="Layer 2"
     id="layer2"
     inkscape:groupmode="layer"
     transform="translate(22.818112,48.357122)">
    <ellipse
       ry="22.292858"
       rx="22.000717"
       cy="-24.296364"
       cx="3.166538"
       id="path878"
       style="opacity:0.998;fill:#ffffff;fill-opacity:1;stroke-width:7.29076;stroke-linecap:square;stroke-opacity:0.976471;paint-order:markers stroke fill" />
  </g>
  <g
     style="display:inline"
     inkscape:label="Layer 1"
     inkscape:groupmode="layer"
     id="layer1"
     transform="translate(-9.5585829,-127.27826)">
    <g
       style="font-style:normal;font-weight:normal;font-size:12.8437px;line-height:1.25;font-family:sans-serif;fill:#0be5e5;fill-opacity:1;stroke:none;stroke-width:0.688052"
       id="text875"
       transform="matrix(1.3990026,0,0,1.0480374,-25.789366,-34.428244)"
       aria-label="PEDIDOS">
      <path
         id="path852"
         style="font-style:normal;font-variant:normal;font-weight:normal;font-stretch:normal;font-size:12.8437px;font-family:Oswald;-inkscape-font-specification:Oswald;fill:#0be5e5;fill-opacity:1;stroke-width:0.688052"
         d="m 66.966788,190.66403 h 0.401365 q 0.545607,0 0.89053,-0.0627 0.351195,-0.0627 0.614591,-0.23204 0.269668,-0.17559 0.382552,-0.49543 0.119155,-0.31984 0.119155,-0.81528 0,-0.60204 -0.0878,-0.97205 -0.0878,-0.37628 -0.32611,-0.61459 -0.232039,-0.23832 -0.60832,-0.32611 -0.370009,-0.0941 -0.9846,-0.0941 h -0.401365 z m -1.605463,6.42185 v -11.23824 h 2.809559 q 2.80956,0 2.80956,3.21092 0,1.37343 -0.727475,2.09463 -0.721204,0.71493 -2.082085,0.71493 h -1.204096 v 5.21776 z" />
      <path
         id="path854"
         style="font-style:normal;font-variant:normal;font-weight:normal;font-stretch:normal;font-size:12.8437px;font-family:Oswald;-inkscape-font-specification:Oswald;fill:#0be5e5;fill-opacity:1;stroke-width:0.688052"
         d="m 71.883517,197.08588 v -11.23824 h 4.415022 v 1.2041 h -2.80956 v 3.61229 h 2.006828 v 1.20409 h -2.006828 v 4.01366 h 2.80956 v 1.2041 z" />
      <path
         id="path856"
         style="font-style:normal;font-variant:normal;font-weight:normal;font-stretch:normal;font-size:12.8437px;font-family:Oswald;-inkscape-font-specification:Oswald;fill:#0be5e5;fill-opacity:1;stroke-width:0.688052"
         d="m 77.276868,197.08588 v -11.23824 h 2.489721 q 1.762246,0 2.48345,0.7212 0.727475,0.72121 0.727475,2.48972 v 4.41503 q 0,1.85004 -0.740018,2.7343 -0.733746,0.87799 -2.48345,0.87799 z m 1.605462,-1.2041 h 0.884259 q 0.395094,0 0.677304,-0.069 0.282211,-0.0753 0.457808,-0.26339 0.175598,-0.19441 0.275939,-0.36374 0.100341,-0.1756 0.137969,-0.53933 0.0439,-0.36374 0.05017,-0.59578 0.0063,-0.23831 0.0063,-0.73375 0,-0.16305 0,-0.24458 v -3.61229 q 0,-0.3073 -0.0063,-0.48917 0,-0.18186 -0.01881,-0.42645 -0.01254,-0.25085 -0.0439,-0.39509 -0.03136,-0.14424 -0.0878,-0.31984 -0.05644,-0.18187 -0.144241,-0.28221 -0.08153,-0.10034 -0.206954,-0.20695 -0.119155,-0.11289 -0.28221,-0.16306 -0.156784,-0.0564 -0.370009,-0.0878 -0.213226,-0.0376 -0.476622,-0.0376 H 78.88233 Z" />
      <path
         id="path858"
         style="font-style:normal;font-variant:normal;font-weight:normal;font-stretch:normal;font-size:12.8437px;font-family:Oswald;-inkscape-font-specification:Oswald;fill:#0be5e5;fill-opacity:1;stroke-width:0.688052"
         d="m 84.451279,197.08588 v -11.23824 h 1.605463 v 11.23824 z" />
      <path
         id="path860"
         style="font-style:normal;font-variant:normal;font-weight:normal;font-stretch:normal;font-size:12.8437px;font-family:Oswald;-inkscape-font-specification:Oswald;fill:#0be5e5;fill-opacity:1;stroke-width:0.688052"
         d="m 87.787631,197.08588 v -11.23824 h 2.489721 q 1.762246,0 2.48345,0.7212 0.727475,0.72121 0.727475,2.48972 v 4.41503 q 0,1.85004 -0.740018,2.7343 -0.733746,0.87799 -2.48345,0.87799 z m 1.605462,-1.2041 h 0.884259 q 0.395094,0 0.677305,-0.069 0.28221,-0.0753 0.457807,-0.26339 0.175598,-0.19441 0.275939,-0.36374 0.100341,-0.1756 0.13797,-0.53933 0.0439,-0.36374 0.05017,-0.59578 0.0063,-0.23831 0.0063,-0.73375 0,-0.16305 0,-0.24458 v -3.61229 q 0,-0.3073 -0.0063,-0.48917 0,-0.18186 -0.01881,-0.42645 -0.01254,-0.25085 -0.0439,-0.39509 -0.03136,-0.14424 -0.0878,-0.31984 -0.05644,-0.18187 -0.144241,-0.28221 -0.08153,-0.10034 -0.206954,-0.20695 -0.119155,-0.11289 -0.28221,-0.16306 -0.156783,-0.0564 -0.370009,-0.0878 -0.213225,-0.0376 -0.476622,-0.0376 h -0.852902 z" />
      <path
         id="path862"
         style="font-style:normal;font-variant:normal;font-weight:normal;font-stretch:normal;font-size:12.8437px;font-family:Oswald;-inkscape-font-specification:Oswald;fill:#0be5e5;fill-opacity:1;stroke-width:0.688052"
         d="m 97.784143,197.19876 q -0.846631,0 -1.454951,-0.25712 -0.602048,-0.25713 -0.959515,-0.75256 -0.357466,-0.49544 -0.520521,-1.1602 -0.163055,-0.67104 -0.163055,-1.55529 v -4.07637 q 0,-0.88426 0.163055,-1.54275 0.163055,-0.65849 0.520521,-1.14139 0.357467,-0.48916 0.959515,-0.73374 0.60832,-0.24459 1.454951,-0.24459 1.64309,0 2.370567,0.94071 0.72747,0.9407 0.72747,2.72176 v 4.07637 q 0,0.87171 -0.16932,1.54274 -0.16306,0.66477 -0.52052,1.16647 -0.35747,0.49544 -0.96579,0.75884 -0.602048,0.25712 -1.442407,0.25712 z m -1.172741,-1.82496 q 0.32611,0.50798 1.172741,0.50798 0.84663,0 1.166468,-0.50798 0.32611,-0.50798 0.32611,-1.49885 v -4.8791 q 0,-0.97833 -0.319838,-1.46122 -0.319839,-0.48289 -1.17274,-0.48289 -0.852902,0 -1.172741,0.48289 -0.319838,0.48289 -0.319838,1.46122 v 4.8791 q 0,0.99087 0.319838,1.49885 z" />
      <path
         id="path864"
         style="font-style:normal;font-variant:normal;font-weight:normal;font-stretch:normal;font-size:12.8437px;font-family:Oswald;-inkscape-font-specification:Oswald;fill:#0be5e5;fill-opacity:1;stroke-width:0.688052"
         d="m 105.21568,197.19876 q -1.51766,0 -2.3204,-0.89053 -0.79646,-0.89053 -0.89053,-2.43328 l 1.60547,-0.40136 q 0.11915,2.40819 1.60546,2.40819 1.2041,0 1.2041,-1.2041 0,-0.35746 -0.10034,-0.65849 -0.0941,-0.30729 -0.29476,-0.55815 -0.20068,-0.25712 -0.36373,-0.40763 -0.16306,-0.15679 -0.44527,-0.38256 l -2.00683,-1.60546 q -0.55188,-0.43272 -0.88426,-1.09748 -0.32611,-0.67104 -0.32611,-1.52394 0,-1.24172 0.77138,-1.97547 0.77137,-0.73375 2.04445,-0.73375 1.36716,0 2.16989,0.67104 0.809,0.66476 0.99714,1.88767 0.0188,0.1317 0.0439,0.36374 l -1.60546,0.40136 q -0.006,-0.10661 -0.0314,-0.31983 -0.10661,-0.76511 -0.48289,-1.22292 -0.37001,-0.46407 -1.09122,-0.46407 -0.57696,0 -0.89053,0.32611 -0.31356,0.31983 -0.31356,0.8968 0,0.94697 0.80273,1.58664 l 2.00683,1.60547 q 1.60546,1.29816 1.60546,3.10431 0,1.23545 -0.7651,1.93157 -0.75884,0.69612 -2.04446,0.69612 z" />
    </g>
    <path
       d="m 65.845169,150.79638 h 4.878961 l 0.175675,5.66768 c 0,0 -0.136752,0.59954 0.707589,0.55721 0.551736,-0.0276 0.913287,0.0431 0.966986,-0.32273 0.02014,-0.13725 0.02037,-0.35917 0.02037,-0.62978 0,-1.68253 -0.146153,-12.59081 -0.146153,-12.59081 0,0 -0.210305,-4.03778 -4.079824,-4.03778 -3.617404,0 -4.16394,3.15451 -4.16394,3.15451 0,0 -0.12618,0.50473 -0.12618,1.09356 0,0.58884 0.08412,13.03861 0.08412,13.03861 0,0 0.04206,0.25235 0.672961,0.25235 0.630899,0 1.13562,0.16825 1.093559,-0.71502 -0.04205,-0.88325 -0.08412,-5.4678 -0.08412,-5.4678 z m 0,-1.55621 0.08412,-6.01458 c 0,0 0.20861,-2.00618 2.355362,-2.10301 1.682791,-0.0759 2.229176,1.30386 2.229176,1.30386 0,0 0.168744,0.36668 0.239985,0.85506 0.05176,0.35501 0.01239,0.77432 0.01239,1.16383 v 4.66866 z"
       style="fill:#144983;fill-opacity:1;stroke:none;stroke-width:0.201102px;stroke-linecap:butt;stroke-linejoin:miter;stroke-opacity:1"
       id="path853" />
    <path
       d="m 73.247643,139.65043 c -0.151459,0 -0.273375,0.12192 -0.273375,0.27337 v 1.13553 c 0,0.15145 0.121916,0.27337 0.273375,0.27337 h 3.156752 v 15.20993 c 0,0.14161 0.114086,0.25569 0.255703,0.25569 h 1.061675 c 0.141617,0 0.255704,-0.11408 0.255704,-0.25569 V 141.3327 h 3.051489 c 0.151452,0 0.273367,-0.12192 0.273367,-0.27337 v -1.13553 c 0,-0.15145 -0.121915,-0.27337 -0.273367,-0.27337 z"
       style="opacity:0.998;fill:#144983;fill-opacity:1;stroke:none;stroke-width:0.304029;stroke-linecap:square;stroke-miterlimit:4;stroke-dasharray:none;stroke-opacity:0.976471;paint-order:markers stroke fill"
       id="rect855" />
    <path
       d="m 82.308242,139.77101 c -0.141107,0 -0.254517,0.11382 -0.254517,0.25492 v 16.47271 c 0,0.14111 0.11341,0.25491 0.254517,0.25491 h 1.058142 c 0.141107,0 0.254912,-0.1138 0.254912,-0.25491 v -7.37676 h 4.825671 v 7.41879 c 0,0.1411 0.113418,0.25492 0.254517,0.25492 h 1.05815 c 0.141099,0 0.254517,-0.11382 0.254517,-0.25492 v -16.47272 c 0,-0.14109 -0.113418,-0.2549 -0.254517,-0.2549 h -1.05815 c -0.141099,0 -0.254517,0.11381 -0.254517,0.2549 v 7.35595 h -4.825671 v -7.39797 c 0,-0.1411 -0.113805,-0.25492 -0.254912,-0.25492 z"
       style="opacity:0.998;fill:#144983;fill-opacity:1;stroke:none;stroke-width:0.288284;stroke-linecap:square;stroke-miterlimit:4;stroke-dasharray:none;stroke-opacity:0.976471;paint-order:markers stroke fill"
       id="rect862" />
    <path
       sodipodi:nodetypes="ccscscccscscscsccccscsccc"
       id="path875"
       d="m 93.394477,147.26334 4.132405,0.0211 c 0,0 0.452143,-0.0526 0.494204,0.36802 0.04204,0.4206 0.02106,1.09356 0.02106,1.09356 0,0 -0.01053,0.347 -0.462658,0.347 -0.452142,0 -4.216524,-0.0211 -4.216524,-0.0211 l -0.01049,3.98519 c 0,0 0.01049,1.52468 1.230263,2.17661 0,0 0.346995,0.15772 1.261801,0.14721 0.91481,-0.0106 2.302783,-0.0315 2.302783,-0.0315 0,0 0.357517,-0.0105 0.389062,0.30494 0.03151,0.31544 -0.01045,0.9884 -0.01045,0.9884 0,0 0.03151,0.25236 -0.262874,0.35752 -0.294418,0.10515 -3.25966,0.0315 -3.25966,0.0315 0,0 -2.102998,-0.13671 -2.996774,-2.19764 -0.893776,-2.06094 -0.469861,-11.61044 -0.469861,-11.61044 0,0 0.237926,-2.4685 2.557716,-3.36073 0,0 0.743536,-0.41637 2.409019,-0.2974 l 1.770084,0.0113 c 0,0 0.262865,-0.0315 0.31544,0.2839 0.05257,0.31545 0.01045,1.16717 0.01045,1.16717 0,0 0.01053,0.28391 -0.578322,0.29441 -0.588846,0.0106 -2.860084,0.042 -2.860084,0.042 0,0 -1.517865,0.39432 -1.740924,2.14905 z"
       style="fill:#144983;fill-opacity:1;stroke:none;stroke-width:0.201102px;stroke-linecap:butt;stroke-linejoin:miter;stroke-opacity:1" />
    <path
       style="fill:#144983;fill-opacity:1;stroke:none;stroke-width:0.201102px;stroke-linecap:butt;stroke-linejoin:miter;stroke-opacity:1"
       d="m 101.35584,143.71804 c 0,0 -0.0405,-2.46726 2.3013,-2.54463 2.46852,-0.0815 2.57768,2.54463 2.57768,2.54463 l 0.0567,12.86499 c 0,0 -0.13676,0.59953 0.70758,0.5572 0.55175,-0.0276 0.91329,0.0432 0.96698,-0.32272 0.0202,-0.13726 0.0204,-0.35917 0.0204,-0.62979 0,-1.68253 -0.14617,-12.59082 -0.14617,-12.59082 0,0 -0.21029,-4.03776 -4.07982,-4.03776 -3.61744,0 -4.16397,3.15451 -4.16397,3.15451 0,0 -0.12618,0.50472 -0.12618,1.09356 0,0.58885 0.08412,13.03859 0.08412,13.03859 0,0 0.04204,0.25237 0.67296,0.25237 0.6309,0 1.13563,0.16824 1.09357,-0.71502 -0.042,-0.88326 0.0348,-12.66511 0.0348,-12.66511 z"
       id="path877"
       sodipodi:nodetypes="csccssscscscssc" />
    <path
       id="path883"
       style="fill:#144983;fill-opacity:1;stroke:none;stroke-width:0.201102px;stroke-linecap:butt;stroke-linejoin:miter;stroke-opacity:1"
       d="m 111.52238,150.96463 h 4.87897 l 0.17567,5.66768 c 0,0 -0.13675,0.59955 0.70759,0.55721 0.55173,-0.0276 0.91329,0.0431 0.96699,-0.32273 0.0202,-0.13727 0.0204,-0.35918 0.0204,-0.62979 0,-1.68253 -0.14615,-12.59082 -0.14615,-12.59082 0,0 -0.21029,-4.03775 -4.07982,-4.03775 -3.61741,0 -4.16394,3.1545 -4.16394,3.1545 0,0 -0.12618,0.50471 -0.12618,1.09356 0,0.58884 0.0841,13.03859 0.0841,13.03859 0,0 0.042,0.25237 0.67296,0.25237 0.6309,0 1.13562,0.16825 1.09356,-0.71502 -0.042,-0.88326 -0.0841,-5.4678 -0.0841,-5.4678 z m 0,-1.55623 0.0841,-6.01458 c 0,0 0.20862,-2.00618 2.35537,-2.10299 1.68279,-0.0759 2.22917,1.30385 2.22917,1.30385 0,0 0.16875,0.3667 0.23999,0.85506 0.0517,0.355 0.0123,0.77432 0.0123,1.16381 v 4.66867 z" />
    <path
       sodipodi:nodetypes="scsssscscscscsccccss"
       d="m 123.21491,139.60841 c -3.61741,0 -3.91148,3.36469 -3.91148,3.36469 0,0 -0.75872,2.72544 3.49108,5.84629 0.16827,0.12357 3.76098,2.91282 3.03279,5.21876 -0.45391,1.43735 -2.38682,1.73255 -3.76338,1.12282 -1.37138,-0.60744 -1.03047,-2.71964 -1.13084,-2.85281 -0.33159,-0.44002 -1.79786,-0.0818 -1.79786,-0.0818 0,0 0.11876,2.11765 0.58872,2.90234 1.1981,2.00052 3.36513,2.14483 4.45868,1.97659 4.99143,-1.19339 4.26361,-6.34831 0.99014,-8.7584 -0.72388,-0.53296 -4.11636,-2.99549 -4.10259,-4.8687 0,0 -0.065,-2.19577 2.08172,-2.2926 1.68279,-0.0759 2.2294,1.30403 2.2294,1.30403 0,0 0.14772,0.47186 0.21896,0.96023 0.0408,0.27962 -0.0789,0.99739 0.32261,1.01639 0.19798,0.0449 0.44894,0.0116 0.65072,0.0216 l 0.4887,-0.0322 c 0.3565,-0.12385 0.23281,-0.80949 0.23281,-0.80949 0,0 -0.21065,-4.03775 -4.08017,-4.03775 z"
       style="fill:#144983;fill-opacity:1;stroke:none;stroke-width:0.201102px;stroke-linecap:butt;stroke-linejoin:miter;stroke-opacity:1"
       id="path885" />
    <path
       sodipodi:nodetypes="ccsccsc"
       id="path891"
       d="m 64.246888,138.2625 v -6.39312 c 0,0 0.03978,-1.23817 1.51416,-1.21974 1.682401,0.021 1.556221,1.93475 1.556221,1.93475 l -0.04206,1.24078 c 0,0 -0.105149,1.15665 -1.093559,1.30386 -0.988411,0.14721 -1.955791,0.0631 -1.955791,0.0631"
       style="fill:none;stroke:#144983;stroke-width:0.442425;stroke-linecap:round;stroke-linejoin:miter;stroke-miterlimit:4;stroke-dasharray:none;stroke-opacity:1" />
    <path
       style="fill:none;stroke:#144983;stroke-width:0.442425;stroke-linecap:round;stroke-linejoin:miter;stroke-miterlimit:4;stroke-dasharray:none;stroke-opacity:1"
       d="m 67.990229,138.13632 v -6.39312 c 0,0 0.03978,-1.23817 1.514159,-1.21974 1.682405,0.021 1.556226,1.93475 1.556226,1.93475 l -0.04204,1.24078 c 0,0 -0.105155,1.15665 -1.093562,1.30386 -0.988412,0.14721 -1.955793,0.0631 -1.955793,0.0631"
       id="path893"
       sodipodi:nodetypes="ccsccsc" />
    <path
       id="path895"
       d="m 69.58851,135.08697 1.577251,3.17553"
       style="fill:none;stroke:#144983;stroke-width:0.442425;stroke-linecap:round;stroke-linejoin:miter;stroke-miterlimit:4;stroke-dasharray:none;stroke-opacity:1" />
    <path
       transform="matrix(0.20110223,0,0,0.20110223,32.828056,130.01873)"
       d="m 201.93164,3.3457031 c -6.48357,0.1045737 -7.63281,6.1699219 -7.63281,6.1699219 0,0 -1.15153,21.646967 0.3125,26.039063 1.46403,4.392095 3.66496,5.835344 9.30664,5.4375 5.8239,-0.410694 6.37891,-7.109376 6.37891,-7.109376 -10e-6,0 0.10563,-20.287837 -0.10352,-23.111328 -0.20915,-2.8234895 -2.6116,-7.5169119 -8.26172,-7.4257809 z"
       inkscape:original="M 201.93164 3.3457031 C 195.44807 3.4502768 194.29883 9.515625 194.29883 9.515625 C 194.29883 9.515625 193.1473 31.162592 194.61133 35.554688 C 196.07536 39.946783 198.27629 41.390032 203.91797 40.992188 C 209.74187 40.581494 210.29688 33.882812 210.29688 33.882812 C 210.29687 33.882812 210.40251 13.594975 210.19336 10.771484 C 209.98421 7.9479945 207.58176 3.2545721 201.93164 3.3457031 z "
       inkscape:radius="0"
       sodipodi:type="inkscape:offset"
       style="fill:none;stroke:#144983;stroke-width:2.2;stroke-linecap:round;stroke-linejoin:miter;stroke-miterlimit:4;stroke-dasharray:none;stroke-opacity:1"
       id="path897" />
    <path
       id="path899"
       d="m 78.589349,130.81787 0.08413,6.22489 c 0,0 -0.01467,1.3183 -1.501703,1.34805 -1.487051,0.0298 -1.63575,-1.24913 -1.531659,-1.73986"
       style="fill:none;stroke:#144983;stroke-width:0.442425;stroke-linecap:round;stroke-linejoin:miter;stroke-miterlimit:4;stroke-dasharray:none;stroke-opacity:1" />
    <path
       sodipodi:nodetypes="ccscsc"
       id="path901"
       d="m 82.311663,130.902 -1.598278,-0.042 c 0,0 -1.009444,0.2103 -1.030475,1.28284 -0.02106,1.07253 -0.02106,4.79484 -0.02106,4.79484 0,0 -0.02105,1.19871 1.240772,1.17767 1.205169,-0.0201 1.493129,-0.021 1.493129,-0.021"
       style="fill:none;stroke:#144983;stroke-width:0.442425;stroke-linecap:round;stroke-linejoin:miter;stroke-miterlimit:4;stroke-dasharray:none;stroke-opacity:1" />
    <path
       id="path903"
       d="m 79.68291,134.39297 2.271246,0.021"
       style="fill:none;stroke:#144983;stroke-width:0.442425;stroke-linecap:round;stroke-linejoin:miter;stroke-miterlimit:4;stroke-dasharray:none;stroke-opacity:1" />
    <path
       id="path905"
       d="m 82.564022,130.902 2.965236,0.0631"
       style="fill:none;stroke:#144983;stroke-width:0.442425;stroke-linecap:round;stroke-linejoin:miter;stroke-miterlimit:4;stroke-dasharray:none;stroke-opacity:1" />
    <path
       id="path907"
       d="m 84.036128,130.88097 0.02105,7.33947"
       style="fill:none;stroke:#144983;stroke-width:0.442425;stroke-linecap:round;stroke-linejoin:miter;stroke-miterlimit:4;stroke-dasharray:none;stroke-opacity:1" />
    <path
       transform="matrix(0.20110223,0,0,0.20110223,46.954994,130.1377)"
       id="path910"
       style="fill:none;stroke:#144983;stroke-width:2.2;stroke-linecap:round;stroke-linejoin:miter;stroke-miterlimit:4;stroke-dasharray:none;stroke-opacity:1"
       sodipodi:type="inkscape:offset"
       inkscape:radius="0"
       inkscape:original="M 201.93164 3.3457031 C 195.44807 3.4502768 194.29883 9.515625 194.29883 9.515625 C 194.29883 9.515625 193.1473 31.162592 194.61133 35.554688 C 196.07536 39.946783 198.27629 41.390032 203.91797 40.992188 C 209.74187 40.581494 210.29688 33.882812 210.29688 33.882812 C 210.29687 33.882812 210.40251 13.594975 210.19336 10.771484 C 209.98421 7.9479945 207.58176 3.2545721 201.93164 3.3457031 z "
       d="m 201.93164,3.3457031 c -6.48357,0.1045737 -7.63281,6.1699219 -7.63281,6.1699219 0,0 -1.15153,21.646967 0.3125,26.039063 1.46403,4.392095 3.66496,5.835344 9.30664,5.4375 5.8239,-0.410694 6.37891,-7.109376 6.37891,-7.109376 -10e-6,0 0.10563,-20.287837 -0.10352,-23.111328 -0.20915,-2.8234895 -2.6116,-7.5169119 -8.26172,-7.4257809 z" />
    <path
       style="fill:#0be5e5;fill-opacity:1;stroke:none;stroke-width:0.328041"
       d="m 18.440008,165.97953 h 0.32804 l -0.32804,-16.73011 c -2.110957,-0.12226 -2.448363,-0.19427 -2.448363,-0.19427 0,0 -0.147982,-1.5707 -0.175969,-2.43007 l -1.376601,0.32804 -0.02336,-1.59091 21.082428,-7.57551 20.931013,7.80625 0.09878,1.27232 -1.347313,-0.24019 c -0.02618,0.80497 -0.116444,2.55481 -0.116444,2.55481 0,0 -1.789501,0.004 -2.900367,0.0403 l -0.263607,17.08743 c 7.82593,-7.0151 7.476619,-24.10379 -0.02952,-30.50657 -7.413667,-7.90538 -20.251402,-9.33531 -29.166155,-3.09463 -2.957588,2.07043 -5.35275,4.78628 -6.967841,8.01398 -1.840081,3.67731 -2.712701,7.6992 -2.532451,11.80949 0.221202,5.04419 2.34801,9.41709 5.235755,13.44969 m 4.592585,-16.73016 c 0.119249,8.02222 0.168606,12.37104 0.0091,20.30413 0.940134,1.69564 3.801869,2.56726 5.567584,2.98683 l -0.328039,-23.29096 h -5.248665 m 9.841243,0 -0.328041,24.27507 h 5.904744 l -0.328018,-24.2751 h -5.248663 m 9.841241,0 -0.32804,23.29095 c 1.765682,-0.41958 4.62735,-1.29118 5.567517,-2.98683 0.02341,-7.32608 0.190265,-13.25426 0.0091,-20.30412 z"
       id="path861-0"
       sodipodi:nodetypes="cccccccccccccccssscccccccccccccccc" />
  </g>
</svg>
