<?xml version="1.0" encoding="UTF-8" standalone="no"?>
<svg
   xmlns:dc="http://purl.org/dc/elements/1.1/"
   xmlns:cc="http://creativecommons.org/ns#"
   xmlns:rdf="http://www.w3.org/1999/02/22-rdf-syntax-ns#"
   xmlns:svg="http://www.w3.org/2000/svg"
   xmlns="http://www.w3.org/2000/svg"
   xmlns:sodipodi="http://sodipodi.sourceforge.net/DTD/sodipodi-0.dtd"
   xmlns:inkscape="http://www.inkscape.org/namespaces/inkscape"
   sodipodi:docname="logo.svg"
   inkscape:version="1.0 (4035a4fb49, 2020-05-01)"
   id="svg841"
   version="1.1"
   viewBox="0 0 249.69023 94.919829"
   height="94.91983mm"
   width="249.69023mm">
  <defs
     id="defs835" />
  <sodipodi:namedview
     inkscape:window-maximized="0"
     inkscape:window-y="0"
     inkscape:window-x="0"
     inkscape:window-height="728"
     inkscape:window-width="1360"
     showgrid="false"
     inkscape:document-rotation="0"
     inkscape:current-layer="layer1"
     inkscape:document-units="mm"
     inkscape:cy="293.60217"
     inkscape:cx="744.22078"
     inkscape:zoom="0.49497475"
     inkscape:pageshadow="2"
     inkscape:pageopacity="0.0"
     borderopacity="1.0"
     bordercolor="#666666"
     pagecolor="#ffffff"
     id="base" />
  <metadata
     id="metadata838">
    <rdf:RDF>
      <cc:Work
         rdf:about="">
        <dc:format>image/svg+xml</dc:format>
        <dc:type
           rdf:resource="http://purl.org/dc/dcmitype/StillImage" />
        <dc:title></dc:title>
      </cc:Work>
    </rdf:RDF>
  </metadata>
  <g
     transform="translate(37.466817,-93.122191)"
     id="layer1"
     inkscape:groupmode="layer"
     inkscape:label="Layer 1">
    <path
       sodipodi:nodetypes="csscccscsssscssccsccccccccccccscccccccc"
       d="m 8.474649,97.487515 c 0,0 -1.9247076,0.36916 -2.7058535,1.899281 -1.2891513,2.525244 -1.5193298,6.643694 1.9228134,6.370164 11.0862061,-0.88099 51.3347571,0.15827 51.3347571,0.15827 0,0 6.106957,6.15278 -1.842449,6.38536 l -58.12536003,0.29401 c 0,0 -1.70338027,0.15947 -2.74064357,1.89194 -0.190037,0.31741 -0.350172,0.68396 -0.475802,1.07166 H 103.71705 c 5.30166,0 9.75327,4.271 9.56997,9.56946 l -0.50177,14.50537 c -0.1833,5.29846 -3.76661,9.59584 -9.0682,9.56996 L 0.91472718,148.70122 c -0.63527267,2.34744 -0.060168,6.33593 2.27904992,6.86704 2.6355022,0.59838 75.6108569,0.60419 77.7596959,0.60419 4.42227,0 1.658204,6.8543 1.658204,6.8543 -10.959332,3.23117 -77.7979169,1.31764 -77.7979169,1.31764 0,0 -7.1858544,6.22815 1.6586949,7.98526 8.844545,1.75712 96.960875,0 96.960875,0 l 4.09409,0.16807 c 0.16227,-0.78231 0.36514,-1.51982 0.46943,-1.94976 1.01346,-4.1801 2.70308,-8.09768 3.83091,-12.22142 -2.95256,-0.73278 -2.00679,-4.14829 -2.00659,-6.01981 0,-1.12328 0.28212,-3.13181 1.61115,-3.49918 1.02168,-0.28256 3.34113,-0.0529 4.39199,-0.0877 2.9762,-0.0996 5.97698,-0.0319 8.955,-0.003 5.25959,0.0514 10.52061,-0.0432 15.78038,0.001 0,0 2.56822,1.53921 -1.91056,-2.30306 -2.44539,-2.19931 -2.63468,-5.48565 -2.95624,-8.51839 -0.62787,-5.92265 0.25512,-10.90364 1.80324,-16.59919 0.9323,-3.4304 3.62083,-8.04289 6.80039,-10.02077 2.11068,-1.31299 4.7252,-1.60327 7.11402,-0.65711 0.7378,0.21875 1.10066,0.52269 1.26718,0.76932 0.004,-0.16239 0.0262,-0.37458 0.0804,-0.65367 -0.0208,-0.0261 -0.0434,-0.0506 -0.0642,-0.0769 -2.32328,-2.96334 -2.92243,-8.48046 -0.43855,-11.709834 z M 152.67772,111.38917 c -0.0178,0.68072 0.29005,0.42965 0,0 z"
       style="fill:#080808;fill-opacity:1;stroke:none;stroke-width:0.199151px;stroke-linecap:butt;stroke-linejoin:miter;stroke-opacity:1"
       id="path1422" />
    <path
       style="fill:#080808;stroke:none;stroke-width:0.182409"
       d="m 155.16203,97.354705 c -4.46811,2.571958 -4.14963,9.762545 -1.37336,13.303655 2.90286,3.70237 8.44793,4.46173 12.423,2.13256 4.73297,-2.77337 5.91553,-12.19081 1.19952,-15.436215 -1.62217,-0.935403 -3.78223,-2.161289 -7.03292,-1.937999 -2.66855,0.183303 -4.0811,1.28461 -5.21624,1.937999 m -0.65062,23.395405 h 0.36481 c 1.18219,-3.15641 -0.15705,-8.09004 -3.46578,-9.40066 -2.38883,-0.94616 -5.0033,-0.29113 -7.11396,1.02185 -3.17958,1.97789 -4.40902,5.49565 -5.34132,8.92604 -1.5481,5.69555 -2.43078,10.67661 -1.80293,16.59926 0.32159,3.03273 0.51075,6.31921 2.95612,8.51852 1.63294,1.46839 3.4191,1.64058 5.46499,2.02547 3.19345,0.60086 6.43322,1.10321 9.65128,1.55505 1.48555,0.20866 4.28498,0.11035 5.438,1.128 0.9695,0.85569 1.40893,2.91728 1.87425,4.10185 1.47514,3.75453 2.55884,9.04295 5.09415,12.20448 1.77466,2.2128 5.35263,2.40525 7.48536,0.65193 2.26717,-1.86386 2.13674,-4.53616 1.22597,-7.01931 -1.75332,-4.77949 -3.72736,-9.50718 -5.62915,-14.22794 -0.93832,-2.32918 -1.56672,-4.80321 -4.16277,-5.78747 -3.16608,-1.20027 -7.23491,-1.2289 -10.57975,-1.76609 -0.88615,-0.14246 -3.12504,-0.0946 -3.5382,-1.04667 -1.04027,-2.39777 1.22532,-5.07853 0.26293,-7.4442 -0.44125,-1.08478 -1.75649,-1.88495 -2.53064,-2.74373 -2.18728,-2.42623 -5.52189,-6.22782 -5.72929,-9.6677 -0.17968,-2.97638 3.28227,-5.25393 5.88051,-3.76365 1.93354,1.10886 3.26695,4.17243 4.19542,6.13497 m -6.74915,-5.90769 c -5.57243,1.4673 -0.81537,8.34778 1.14663,10.83275 4.27476,5.41373 10.35373,8.28668 17.27671,8.77207 1.66449,0.11656 3.50099,0.45839 5.10729,-0.19519 2.39413,-0.97388 2.74089,-4.54199 0.54011,-5.93578 -1.65298,-1.04685 -3.9736,-0.41862 -5.8298,-0.74678 -3.98364,-0.7041 -7.3843,-1.69184 -10.20782,-4.63065 -1.16121,-1.20864 -2.22137,-2.56412 -3.06648,-4.01283 -1.13076,-1.93864 -2.07362,-4.84551 -4.96664,-4.08359 m 26.44937,15.75781 c -0.27106,0.85713 -0.33747,1.75715 -0.79659,2.55354 -1.87024,3.24542 -5.20049,1.41349 -7.95907,2.18909 0.77688,2.20826 2.78776,1.75314 4.56024,1.05743 0.72416,-0.28419 1.93117,-1.04191 2.46708,-0.11764 1.11088,1.9153 1.51272,4.45699 2.24966,6.539 2.3414,6.6149 4.1157,13.65408 6.95746,20.06504 1.22579,-0.5682 2.10391,-1.69586 3.28336,-2.3686 3.6108,-2.05903 7.46731,-2.68779 11.4918,-1.59297 2.55958,0.69644 5.16145,2.28887 6.87228,4.32638 0.52699,0.62767 1.3356,2.1871 2.37259,1.55487 1.6384,-0.99869 -1.51235,-4.43493 -2.18361,-5.20287 -2.58766,-2.96087 -8.59733,-6.32231 -12.71595,-5.10765 -1.49064,-3.58617 -2.87004,-6.96239 -5.83711,-9.63651 -2.36457,-2.13145 -6.35623,-3.03145 -6.93154,-6.41551 0.85512,0 2.14732,-0.23549 2.86838,0.31775 0.61198,0.46971 0.81884,1.42517 1.25753,2.04645 0.9695,1.373 2.74106,2.51069 4.44732,2.55812 4.17444,0.11564 3.78975,-6.64882 3.21041,-9.48255 -0.20794,-1.01639 -0.50563,-2.33102 -1.40547,-2.96817 -1.94284,-1.37556 -5.12753,0.68714 -6.24953,2.23852 -0.67326,0.93102 -0.78655,2.12726 -2.12232,2.18546 -0.80334,0.035 -2.52875,0.30407 -3.15515,-0.28895 -1.39324,-1.31937 -0.56364,-3.61152 -2.68177,-4.45023 m -60.92476,27.72622 c -1.12783,4.12374 -2.81695,8.04134 -3.83041,12.22144 -0.25173,1.03792 -1.09829,3.85687 -0.48375,4.81505 0.30079,0.46899 1.2931,0.29242 1.76043,0.29242 1.73071,1.7e-4 3.80834,0.30936 5.47228,-0.18241 -1.57893,-8.16975 4.67388,-16.31453 12.95108,-17.11549 4.47176,-0.43286 8.80216,1.52476 11.84949,4.71164 1.54683,1.61779 2.62287,3.53273 3.31111,5.65469 0.68457,2.11012 0.7486,4.57082 0.3442,6.74916 3.13872,0.92773 7.48425,0.18241 10.76216,0.18241 h 22.80117 v -4.92506 c -1.9702,-0.58243 -4.515,-0.18241 -6.56674,-0.18241 h -13.13348 -4.92506 c -0.65776,0 -1.5689,0.15377 -2.11703,-0.2924 -0.73694,-0.59995 -1.01256,-1.95087 -1.32339,-2.80856 -0.87957,-2.42751 -2.35436,-6.10908 -1.94302,-8.74854 0.15997,-1.02643 0.99031,-1.56416 1.00489,-2.74326 0.0191,-1.54263 0.7207,-5.18518 -1.28342,-5.69063 -2.101,-0.52971 -4.85758,-0.0689 -7.01274,-0.087 -5.25977,-0.0444 -10.52083,0.05 -15.78042,-9.4e-4 -2.97802,-0.0292 -5.97902,-0.0961 -8.95521,0.004 -1.05086,0.0348 -2.27556,-0.19518 -3.29724,0.0873 -1.32903,0.36738 -1.24658,1.64662 -1.24658,2.7699 -1.8e-4,1.87151 -0.65941,4.68737 1.64168,5.28987 m 78.44317,1.9629 c -9.28354,0.41571 -14.85706,11.38781 -9.93786,19.19658 2.82882,4.49038 7.41988,6.07625 12.48448,5.8298 8.15097,-0.39674 12.54357,-9.94112 10.0161,-16.95677 -1.87791,-5.21235 -7.13385,-8.31277 -12.56272,-8.06961 m -62.93837,0.12093 c -13.01765,1.73107 -14.70238,20.39702 -2.18891,24.41204 1.83066,0.58736 3.92491,0.69644 5.83711,0.44799 1.58185,-0.20556 3.00173,-0.7745 4.37782,-1.56178 11.66362,-6.67254 5.15435,-25.05084 -8.02602,-23.29825 m 0.91205,7.63876 c 6.08481,-0.89872 7.73033,8.69674 1.64169,9.57449 -6.29313,0.90731 -8.00668,-8.63435 -1.64169,-9.57449 m 61.8368,0.0142 c 5.98741,-1.19935 8.21244,8.19711 2.18891,9.50389 -6.23967,1.35385 -8.48185,-8.24345 -2.18891,-9.50389 z"
       id="path1418-0"
       sodipodi:nodetypes="ccccsccccccccccsccscsccccccccccccscscccccccccccsccccccsccccsccccsccccccsccscsccsccccccccccccccsccccccccc" />
    <text
       transform="matrix(1.0528883,0,-0.31597274,0.94976837,0,0)"
       id="text1546"
       y="147.58212"
       x="12.573225"
       style="font-style:normal;font-weight:normal;font-size:28.7273px;line-height:1.25;font-family:sans-serif;fill:#000000;fill-opacity:1;stroke:none;stroke-width:0.718182"
       xml:space="preserve"><tspan
         style="font-style:normal;font-variant:normal;font-weight:bold;font-stretch:normal;font-family:sans-serif;-inkscape-font-specification:'sans-serif Bold';stroke-width:0.718182"
         y="147.58212"
         x="12.573225"
         id="tspan1544"
         sodipodi:role="line">Delivery</tspan></text>
  </g>
  <g
     transform="translate(37.466817,-93.122191)"
     inkscape:label="Layer 2"
     id="layer2"
     inkscape:groupmode="layer">
    <path
       sodipodi:nodetypes="ccccccccccccccssccc"
       d="m 102.77818,102.29893 c -1.78584,0.0194 -3.362362,1.28574 -3.713333,3.11061 l -1.951723,9.14511 h 2.388816 l 1.52639,-6.93319 c 0.30796,-1.6012 1.69118,-2.71238 3.25812,-2.72938 0.22386,-0.003 0.45139,0.0173 0.68015,0.0613 l 26.37496,5.0731 c 1.82994,0.35194 3.02007,2.1083 2.66813,3.93824 l -4.87172,25.3278 c -0.35194,1.82994 -2.1083,3.02007 -3.93824,2.66812 l -11.03508,-2.21878 -0.50177,2.31286 12.95006,2.49024 c 2.08555,0.40112 4.0874,-0.95449 4.48852,-3.04004 l 5.55185,-28.86618 c 0.40111,-2.08555 -0.95498,-4.08742 -3.04055,-4.48852 l -30.05938,-5.78117 c -0.26069,-0.0502 -0.52009,-0.0728 -0.7752,-0.0701 z"
       style="fill:#ffffff;fill-opacity:1;stroke:none;stroke-width:4.81851;stroke-linecap:square;stroke-linejoin:round;stroke-miterlimit:4;stroke-dasharray:none;stroke-opacity:0;paint-order:markers stroke fill"
       id="rect1420" />
  </g>
</svg>
