<?xml version="1.0" encoding="UTF-8" standalone="no"?>
<svg
   xmlns:dc="http://purl.org/dc/elements/1.1/"
   xmlns:cc="http://creativecommons.org/ns#"
   xmlns:rdf="http://www.w3.org/1999/02/22-rdf-syntax-ns#"
   xmlns:svg="http://www.w3.org/2000/svg"
   xmlns="http://www.w3.org/2000/svg"
   xmlns:sodipodi="http://sodipodi.sourceforge.net/DTD/sodipodi-0.dtd"
   xmlns:inkscape="http://www.inkscape.org/namespaces/inkscape"
   width="140.10713mm"
   height="101.56387mm"
   viewBox="0 0 140.10713 101.56389"
   version="1.1"
   id="svg2113"
   inkscape:version="1.0.1 (3bc2e813f5, 2020-09-07)"
   sodipodi:docname="ico-ver-fatura.svg">
  <defs
     id="defs2107" />
  <sodipodi:namedview
     id="base"
     pagecolor="#ffffff"
     bordercolor="#666666"
     borderopacity="1.0"
     inkscape:pageopacity="0.0"
     inkscape:pageshadow="2"
     inkscape:zoom="0.49497475"
     inkscape:cx="379.84235"
     inkscape:cy="394.74456"
     inkscape:document-units="mm"
     inkscape:current-layer="layer1"
     inkscape:document-rotation="0"
     showgrid="false"
     showguides="false"
     inkscape:window-width="1366"
     inkscape:window-height="720"
     inkscape:window-x="0"
     inkscape:window-y="0"
     inkscape:window-maximized="0" />
  <metadata
     id="metadata2110">
    <rdf:RDF>
      <cc:Work
         rdf:about="">
        <dc:format>image/svg+xml</dc:format>
        <dc:type
           rdf:resource="http://purl.org/dc/dcmitype/StillImage" />
        <dc:title></dc:title>
      </cc:Work>
    </rdf:RDF>
  </metadata>
  <g
     inkscape:label="Layer 1"
     inkscape:groupmode="layer"
     id="layer1"
     transform="translate(36.948138,-79.164887)">
    <path
       d="M 102.36553,125.8888 C 90.078116,98.094755 61.496653,79.164887 33.634597,79.164887 c -27.8620539,0 -57.504126,18.952548 -69.796289,46.723913 -0.4321,1.20155 -0.786446,2.92449 -0.786446,4.05803 0,1.1283 0.354109,2.85649 0.786446,3.86078 12.298966,27.99128 41.9342351,46.92115 69.796289,46.92115 27.862056,0 56.443519,-18.94801 68.730933,-46.72392 0.43075,-1.20152 0.79346,-3.12852 0.79346,-4.05801 0,-1.13354 -0.36271,-2.85648 -0.79346,-4.05803 z m -68.730933,43.95812 c -22.552621,0 -48.637682,-15.30259 -59.610207,-39.69606 11.020139,-24.8242 37.075721,-40.104129 59.610207,-40.104129 22.552626,0 47.579349,15.302589 58.551879,39.696059 -11.22191,24.82421 -36.017393,40.10413 -58.551879,40.10413 z m 0,-68.91835 c -16.028054,0 -29.0182429,12.9902 -29.0182429,29.01826 0,16.02804 12.9969939,29.01824 29.0182429,29.01824 16.014446,0 29.018256,-12.99472 29.018256,-28.99558 0,-16.02805 -12.99021,-29.04092 -29.018256,-29.04092 z m 0,47.15466 c -11.114091,-14.16176 18.200532,-28.67335 18.136406,-18.12509 0,9.98636 -8.138717,18.12507 -18.136413,18.12507 z"
       id="path2723"
       style="stroke-width:0.226705"
       sodipodi:nodetypes="cscscscscscscsssssscccc" />
  </g>
</svg>
