<?xml version="1.0" encoding="UTF-8" standalone="no"?>
<svg
   xmlns:dc="http://purl.org/dc/elements/1.1/"
   xmlns:cc="http://creativecommons.org/ns#"
   xmlns:rdf="http://www.w3.org/1999/02/22-rdf-syntax-ns#"
   xmlns:svg="http://www.w3.org/2000/svg"
   xmlns="http://www.w3.org/2000/svg"
   xmlns:sodipodi="http://sodipodi.sourceforge.net/DTD/sodipodi-0.dtd"
   xmlns:inkscape="http://www.inkscape.org/namespaces/inkscape"
   width="150.95079mm"
   height="133.02403mm"
   viewBox="0 0 150.95079 133.02404"
   version="1.1"
   id="svg2113"
   inkscape:version="1.0.1 (3bc2e813f5, 2020-09-07)"
   sodipodi:docname="ico-criar-fatura.svg">
  <defs
     id="defs2107" />
  <sodipodi:namedview
     id="base"
     pagecolor="#ffffff"
     bordercolor="#666666"
     borderopacity="1.0"
     inkscape:pageopacity="0.0"
     inkscape:pageshadow="2"
     inkscape:zoom="0.49497475"
     inkscape:cx="346.73476"
     inkscape:cy="251.97229"
     inkscape:document-units="mm"
     inkscape:current-layer="layer1"
     inkscape:document-rotation="0"
     showgrid="false"
     showguides="false"
     inkscape:window-width="1366"
     inkscape:window-height="720"
     inkscape:window-x="0"
     inkscape:window-y="0"
     inkscape:window-maximized="0" />
  <metadata
     id="metadata2110">
    <rdf:RDF>
      <cc:Work
         rdf:about="">
        <dc:format>image/svg+xml</dc:format>
        <dc:type
           rdf:resource="http://purl.org/dc/dcmitype/StillImage" />
        <dc:title></dc:title>
      </cc:Work>
    </rdf:RDF>
  </metadata>
  <g
     inkscape:label="Layer 1"
     inkscape:groupmode="layer"
     id="layer1"
     transform="translate(-5.1251723,-63.129472)">
    <path
       id="path2676"
       style="fill:#3b3b57;fill-opacity:1;stroke-width:0.241181"
       d="m 121.51068,63.129504 c -5.00818,0.01426 -7.72251,3.456123 -7.72251,7.717795 v 8.081922 c -7.32195,0.856846 -27.413925,2.994181 -26.133989,24.077359 v 6.88588 l 18.057729,0.26727 c -3.43929,-2.33179 -3.8803,-5.98316 -3.28092,-9.28585 1.46155,-5.893174 13.52801,-7.982728 24.82516,-6.298976 3.145,0.467898 7.09994,1.497143 12.0972,3.140063 4.03256,1.32168 8.4122,-0.87087 9.74618,-4.915471 1.33373,-4.051844 -0.86829,-8.4122 -4.92255,-9.746172 -5.90893,-1.948986 -10.56585,-3.139655 -14.64422,-3.750084 -0.1064,-0.01596 -0.20255,-0.0118 -0.30901,-0.02685 V 70.8473 c 0,-4.261673 -3.44661,-7.729946 -7.71307,-7.717796 z m -16.37347,75.670046 c 16.65395,1.31081 34.71201,1.58931 33.73812,15.79406 -1.45674,8.01836 -11.80757,11.78865 -23.16477,10.11171 -4.91528,-0.70425 -10.80978,-2.73078 -16.016882,-4.51696 l -2.727893,-0.93081 c -0.428328,-0.1451 -0.860868,-0.24782 -1.293518,-0.31467 v 16.1841 c 5.602613,1.92056 11.841493,3.99551 17.806883,4.85331 0.10736,0.0162 0.20207,0.008 0.30902,0.0235 v 8.43193 c 0,4.26889 3.46313,7.71778 7.72721,7.71778 4.26408,0 7.70837,-3.45611 7.70837,-7.71778 v -8.10408 c 14.32616,-1.68826 24.40744,-9.3093 26.55395,-21.296 2.63025,-20.28372 -12.60458,-27.57935 -27.23814,-31.92755 -0.31838,11.00501 -3.12372,11.95154 -23.40235,11.69146 z"
       sodipodi:nodetypes="sscccccccccscssccccccccccsssccc" />
    <path
       d="m 112.76055,125.85548 c 0,3.79228 -2.97863,8.44963 -6.65148,8.44963 H 67.181788 v 39.33654 c 0,3.79227 -6.153592,6.85783 -9.826411,6.85783 -3.672839,0 -9.348287,-3.0659 -9.297277,-6.85783 V 134.30511 H 11.77664 c -3.6728677,0 -6.6514677,-4.65735 -6.6514677,-8.44963 0,-3.79227 2.9786,-8.97448 6.6514677,-8.97448 H 48.0581 V 79.131988 c 0,-3.79229 5.624438,-6.862121 9.297277,-6.862121 3.672819,0 9.826411,3.069831 9.826411,6.862121 v 37.219842 h 38.927282 c 3.67909,-0.003 6.65148,5.70923 6.65148,9.50365 z"
       id="path2687"
       style="fill:#3b3b57;fill-opacity:1;stroke-width:0.211092"
       sodipodi:nodetypes="sscssscssscsssccs" />
  </g>
</svg>
