<?xml version="1.0" encoding="UTF-8" standalone="no"?>
<svg
   xmlns:dc="http://purl.org/dc/elements/1.1/"
   xmlns:cc="http://creativecommons.org/ns#"
   xmlns:rdf="http://www.w3.org/1999/02/22-rdf-syntax-ns#"
   xmlns:svg="http://www.w3.org/2000/svg"
   xmlns="http://www.w3.org/2000/svg"
   xmlns:xlink="http://www.w3.org/1999/xlink"
   xmlns:sodipodi="http://sodipodi.sourceforge.net/DTD/sodipodi-0.dtd"
   xmlns:inkscape="http://www.inkscape.org/namespaces/inkscape"
   sodipodi:docname="ico-loja.svg"
   inkscape:version="1.0 (4035a4fb49, 2020-05-01)"
   id="svg1484"
   version="1.1"
   viewBox="0 0 206.32451 194.22926"
   height="194.22928mm"
   width="206.32451mm">
  <defs
     id="defs1478">
    <linearGradient
       id="linearGradient2156"
       inkscape:collect="always">
      <stop
         id="stop2152"
         offset="0"
         style="stop-color:#066bf6;stop-opacity:0.97647059" />
      <stop
         id="stop2154"
         offset="1"
         style="stop-color:#028cef;stop-opacity:0.50588238" />
    </linearGradient>
    <linearGradient
       id="linearGradient2113"
       inkscape:collect="always">
      <stop
         id="stop2109"
         offset="0"
         style="stop-color:#00aee6;stop-opacity:1;" />
      <stop
         id="stop2111"
         offset="1"
         style="stop-color:#00aee6;stop-opacity:0;" />
    </linearGradient>
    <linearGradient
       id="linearGradient2103"
       inkscape:collect="always">
      <stop
         id="stop2099"
         offset="0"
         style="stop-color:#00aee6;stop-opacity:1;" />
      <stop
         id="stop2101"
         offset="1"
         style="stop-color:#00aee6;stop-opacity:0;" />
    </linearGradient>
    <linearGradient
       id="linearGradient2093"
       inkscape:collect="always">
      <stop
         id="stop2089"
         offset="0"
         style="stop-color:#0669f6;stop-opacity:1" />
      <stop
         id="stop2091"
         offset="1"
         style="stop-color:#028dee;stop-opacity:0.48235294" />
    </linearGradient>
    <linearGradient
       id="linearGradient2070"
       inkscape:collect="always">
      <stop
         id="stop2066"
         offset="0"
         style="stop-color:#0669f6;stop-opacity:1" />
      <stop
         id="stop2068"
         offset="1"
         style="stop-color:#00aee6;stop-opacity:0" />
    </linearGradient>
    <linearGradient
       gradientUnits="userSpaceOnUse"
       y2="152.70239"
       x2="212.82043"
       y1="155.7262"
       x1="31.328949"
       id="linearGradient2076"
       xlink:href="#linearGradient2070"
       inkscape:collect="always" />
    <linearGradient
       gradientTransform="translate(170.84523,71.059527)"
       gradientUnits="userSpaceOnUse"
       y2="77.594879"
       x2="85.455147"
       y1="77.594879"
       x1="-50.011524"
       id="linearGradient2095"
       xlink:href="#linearGradient2093"
       inkscape:collect="always" />
    <linearGradient
       gradientUnits="userSpaceOnUse"
       y2="64.743683"
       x2="36.703114"
       y1="64.743683"
       x1="-73.074974"
       id="linearGradient2105"
       xlink:href="#linearGradient2103"
       inkscape:collect="always" />
    <linearGradient
       gradientUnits="userSpaceOnUse"
       y2="59.074043"
       x2="4.1971545"
       y1="59.074043"
       x1="-106.33689"
       id="linearGradient2115"
       xlink:href="#linearGradient2113"
       inkscape:collect="always" />
    <linearGradient
       gradientTransform="translate(3.0981445e-6)"
       gradientUnits="userSpaceOnUse"
       y2="159.16214"
       x2="32.069782"
       y1="170.00186"
       x1="-120.34142"
       id="linearGradient2158"
       xlink:href="#linearGradient2156"
       inkscape:collect="always" />
    <linearGradient
       gradientUnits="userSpaceOnUse"
       y2="145.53551"
       x2="237.5098"
       y1="145.53551"
       x1="127.9723"
       id="linearGradient2177"
       xlink:href="#linearGradient2156"
       inkscape:collect="always" />
    <linearGradient
       gradientTransform="rotate(-13.504822,138.49041,305.7053)"
       inkscape:collect="always"
       xlink:href="#linearGradient2156"
       id="linearGradient2177-7"
       x1="127.9723"
       y1="145.53551"
       x2="237.5098"
       y2="145.53551"
       gradientUnits="userSpaceOnUse" />
    <linearGradient
       gradientTransform="translate(-107.97689,-20.312484)"
       gradientUnits="userSpaceOnUse"
       y2="210.51868"
       x2="536.46533"
       y1="210.51868"
       x1="400.99869"
       id="linearGradient2235"
       xlink:href="#linearGradient2093"
       inkscape:collect="always" />
    <linearGradient
       gradientTransform="matrix(1,0,0,1.098714,3.3790472,-13.433611)"
       gradientUnits="userSpaceOnUse"
       y2="181.69037"
       x2="587.18927"
       y1="181.69037"
       x1="434.78931"
       id="linearGradient2262"
       xlink:href="#linearGradient2093"
       inkscape:collect="always" />
    <linearGradient
       gradientUnits="userSpaceOnUse"
       y2="184.72075"
       x2="826.17346"
       y1="186.23265"
       x1="411.20609"
       id="linearGradient2272"
       xlink:href="#linearGradient2093"
       inkscape:collect="always" />
  </defs>
  <sodipodi:namedview
     inkscape:guide-bbox="true"
     showguides="true"
     inkscape:window-maximized="0"
     inkscape:window-y="0"
     inkscape:window-x="0"
     inkscape:window-height="728"
     inkscape:window-width="1360"
     showgrid="false"
     inkscape:document-rotation="0"
     inkscape:current-layer="layer1"
     inkscape:document-units="mm"
     inkscape:cy="505.61521"
     inkscape:cx="1280.3098"
     inkscape:zoom="0.24748737"
     inkscape:pageshadow="2"
     inkscape:pageopacity="0.0"
     borderopacity="1.0"
     bordercolor="#666666"
     pagecolor="#ffffff"
     id="base" />
  <metadata
     id="metadata1481">
    <rdf:RDF>
      <cc:Work
         rdf:about="">
        <dc:format>image/svg+xml</dc:format>
        <dc:type
           rdf:resource="http://purl.org/dc/dcmitype/StillImage" />
        <dc:title></dc:title>
      </cc:Work>
    </rdf:RDF>
  </metadata>
  <g
     transform="translate(-411.20609,-89.118011)"
     id="layer1"
     inkscape:groupmode="layer"
     inkscape:label="Layer 1">
    <rect
       ry="12.851192"
       y="10.315112"
       x="-72.992477"
       height="108.85714"
       width="109.61309"
       id="rect2097"
       style="opacity:0.998;fill:none;fill-opacity:1;stroke:url(#linearGradient2105);stroke-width:0.165;stroke-linecap:square;stroke-miterlimit:4;stroke-dasharray:none;stroke-opacity:0;paint-order:markers stroke fill" />
    <rect
       y="5.0234456"
       x="-106.25439"
       height="108.1012"
       width="110.36904"
       id="rect2107"
       style="opacity:0.998;fill:none;fill-opacity:1;stroke:url(#linearGradient2115);stroke-width:3.565;stroke-linecap:square;stroke-miterlimit:4;stroke-dasharray:none;stroke-opacity:0;paint-order:markers stroke fill" />
    <path
       style="fill:none;stroke:url(#linearGradient2262);stroke-width:6.665;stroke-miterlimit:4;stroke-dasharray:none"
       d="m 590.56835,174.56449 v 4.65122 c 0,3.85325 -2.84295,6.97683 -6.35,6.97683 h -2.11667 l -6.90906,53.13673 c -0.89376,6.87422 -6.25211,11.98039 -12.57221,11.98039 h -96.50412 c -6.3201,0 -11.67845,-5.10617 -12.57247,-11.98039 l -6.9088,-53.13673 h -2.11667 c -3.50705,0 -6.35,-3.12358 -6.35,-6.97683 v -4.65122 c 0,-3.85325 2.84295,-6.97683 6.35,-6.97683 h 17.81731 l 28.2522,-42.68108 c 2.75035,-4.1547 8.04519,-5.0736 11.82714,-2.05177 3.78169,3.02184 4.61778,8.83965 1.86743,12.99465 l -21.00871,31.7382 h 62.18926 l -21.00871,-31.73849 c -2.75035,-4.15471 -1.914,-9.97281 1.86769,-12.99464 3.78116,-3.02185 9.0768,-2.10323 11.82714,2.05177 l 28.25194,42.68136 h 17.81731 c 3.50705,0 6.35,3.12358 6.35,6.97683 z m -69.85,51.16345 v -32.55856 c 0,-3.85325 -2.84295,-6.97684 -6.35,-6.97684 -3.50705,0 -6.35,3.12359 -6.35,6.97684 v 32.55856 c 0,3.85325 2.84295,6.97683 6.35,6.97683 3.50705,0 6.35,-3.12358 6.35,-6.97683 z m 29.63333,0 v -32.55856 c 0,-3.85325 -2.84294,-6.97684 -6.35,-6.97684 -3.50705,0 -6.35,3.12359 -6.35,6.97684 v 32.55856 c 0,3.85325 2.84295,6.97683 6.35,6.97683 3.50706,0 6.35,-3.12358 6.35,-6.97683 z m -59.26666,0 v -32.55856 c 0,-3.85325 -2.84295,-6.97684 -6.35,-6.97684 -3.50706,0 -6.35,3.12359 -6.35,6.97684 v 32.55856 c 0,3.85325 2.84294,6.97683 6.35,6.97683 3.50705,0 6.35,-3.12358 6.35,-6.97683 z"
       id="path2245" />
    <rect
       ry="16.630953"
       y="93.250511"
       x="415.33859"
       height="185.96428"
       width="198.05951"
       id="rect2264"
       style="opacity:0.998;fill:none;fill-opacity:1;stroke:url(#linearGradient2272);stroke-width:6.665;stroke-linecap:square;stroke-miterlimit:4;stroke-dasharray:none;stroke-opacity:0.976471;paint-order:markers stroke fill" />
  </g>
</svg>
