<?xml version="1.0" encoding="UTF-8" standalone="no"?>
<svg
   xmlns:dc="http://purl.org/dc/elements/1.1/"
   xmlns:cc="http://creativecommons.org/ns#"
   xmlns:rdf="http://www.w3.org/1999/02/22-rdf-syntax-ns#"
   xmlns:svg="http://www.w3.org/2000/svg"
   xmlns="http://www.w3.org/2000/svg"
   xmlns:xlink="http://www.w3.org/1999/xlink"
   xmlns:sodipodi="http://sodipodi.sourceforge.net/DTD/sodipodi-0.dtd"
   xmlns:inkscape="http://www.inkscape.org/namespaces/inkscape"
   width="204.72453mm"
   height="192.62929mm"
   viewBox="0 0 204.72454 192.62927"
   version="1.1"
   id="svg1484"
   inkscape:version="1.0 (4035a4fb49, 2020-05-01)"
   sodipodi:docname="ico-notafiscal.svg">
  <defs
     id="defs1478">
    <linearGradient
       inkscape:collect="always"
       id="linearGradient2156">
      <stop
         style="stop-color:#066bf6;stop-opacity:0.97647059"
         offset="0"
         id="stop2152" />
      <stop
         style="stop-color:#028cef;stop-opacity:0.50588238"
         offset="1"
         id="stop2154" />
    </linearGradient>
    <linearGradient
       inkscape:collect="always"
       id="linearGradient2113">
      <stop
         style="stop-color:#00aee6;stop-opacity:1;"
         offset="0"
         id="stop2109" />
      <stop
         style="stop-color:#00aee6;stop-opacity:0;"
         offset="1"
         id="stop2111" />
    </linearGradient>
    <linearGradient
       inkscape:collect="always"
       id="linearGradient2103">
      <stop
         style="stop-color:#00aee6;stop-opacity:1;"
         offset="0"
         id="stop2099" />
      <stop
         style="stop-color:#00aee6;stop-opacity:0;"
         offset="1"
         id="stop2101" />
    </linearGradient>
    <linearGradient
       inkscape:collect="always"
       id="linearGradient2093">
      <stop
         style="stop-color:#0669f6;stop-opacity:1"
         offset="0"
         id="stop2089" />
      <stop
         style="stop-color:#028dee;stop-opacity:0.48235294"
         offset="1"
         id="stop2091" />
    </linearGradient>
    <linearGradient
       inkscape:collect="always"
       id="linearGradient2070">
      <stop
         style="stop-color:#0669f6;stop-opacity:1"
         offset="0"
         id="stop2066" />
      <stop
         style="stop-color:#00aee6;stop-opacity:0"
         offset="1"
         id="stop2068" />
    </linearGradient>
    <linearGradient
       inkscape:collect="always"
       xlink:href="#linearGradient2070"
       id="linearGradient2076"
       x1="31.328949"
       y1="155.7262"
       x2="212.82043"
       y2="152.70239"
       gradientUnits="userSpaceOnUse" />
    <linearGradient
       inkscape:collect="always"
       xlink:href="#linearGradient2093"
       id="linearGradient2095"
       x1="-50.011524"
       y1="77.594879"
       x2="85.455147"
       y2="77.594879"
       gradientUnits="userSpaceOnUse"
       gradientTransform="translate(170.84523,71.059527)" />
    <linearGradient
       inkscape:collect="always"
       xlink:href="#linearGradient2103"
       id="linearGradient2105"
       x1="-73.074974"
       y1="64.743683"
       x2="36.703114"
       y2="64.743683"
       gradientUnits="userSpaceOnUse" />
    <linearGradient
       inkscape:collect="always"
       xlink:href="#linearGradient2113"
       id="linearGradient2115"
       x1="-106.33689"
       y1="59.074043"
       x2="4.1971545"
       y2="59.074043"
       gradientUnits="userSpaceOnUse" />
    <linearGradient
       inkscape:collect="always"
       xlink:href="#linearGradient2156"
       id="linearGradient2158"
       x1="-120.34142"
       y1="170.00186"
       x2="32.069782"
       y2="159.16214"
       gradientUnits="userSpaceOnUse"
       gradientTransform="translate(3.0981445e-6)" />
    <linearGradient
       gradientTransform="translate(0,5.1148029)"
       inkscape:collect="always"
       xlink:href="#linearGradient2156"
       id="linearGradient2177"
       x1="127.9723"
       y1="145.53551"
       x2="237.5098"
       y2="145.53551"
       gradientUnits="userSpaceOnUse" />
    <linearGradient
       gradientUnits="userSpaceOnUse"
       y2="145.53551"
       x2="237.5098"
       y1="145.53551"
       x1="127.9723"
       id="linearGradient2177-7"
       xlink:href="#linearGradient2156"
       inkscape:collect="always"
       gradientTransform="rotate(-13.504822,166.82336,309.05994)" />
    <linearGradient
       gradientTransform="translate(-343.90911,-35.582332)"
       inkscape:collect="always"
       xlink:href="#linearGradient2093"
       id="linearGradient2272"
       x1="411.20609"
       y1="186.23265"
       x2="826.17346"
       y2="184.72075"
       gradientUnits="userSpaceOnUse" />
  </defs>
  <sodipodi:namedview
     id="base"
     pagecolor="#ffffff"
     bordercolor="#666666"
     borderopacity="1.0"
     inkscape:pageopacity="0.0"
     inkscape:pageshadow="2"
     inkscape:zoom="0.24748737"
     inkscape:cx="857.48861"
     inkscape:cy="687.82179"
     inkscape:document-units="mm"
     inkscape:current-layer="layer1"
     inkscape:document-rotation="0"
     showgrid="false"
     inkscape:window-width="1360"
     inkscape:window-height="728"
     inkscape:window-x="0"
     inkscape:window-y="0"
     inkscape:window-maximized="0"
     showguides="true"
     inkscape:guide-bbox="true" />
  <metadata
     id="metadata1481">
    <rdf:RDF>
      <cc:Work
         rdf:about="">
        <dc:format>image/svg+xml</dc:format>
        <dc:type
           rdf:resource="http://purl.org/dc/dcmitype/StillImage" />
        <dc:title />
      </cc:Work>
    </rdf:RDF>
  </metadata>
  <g
     inkscape:label="Layer 1"
     inkscape:groupmode="layer"
     id="layer1"
     transform="translate(-68.096961,-54.335658)">
    <rect
       style="opacity:0.998;fill:none;fill-opacity:1;stroke:url(#linearGradient2105);stroke-width:0.165;stroke-linecap:square;stroke-miterlimit:4;stroke-dasharray:none;stroke-opacity:0;paint-order:markers stroke fill"
       id="rect2097"
       width="109.61309"
       height="108.85714"
       x="-72.992477"
       y="10.315112"
       ry="12.851192" />
    <rect
       style="opacity:0.998;fill:none;fill-opacity:1;stroke:url(#linearGradient2115);stroke-width:3.565;stroke-linecap:square;stroke-miterlimit:4;stroke-dasharray:none;stroke-opacity:0;paint-order:markers stroke fill"
       id="rect2107"
       width="110.36904"
       height="108.1012"
       x="-106.25439"
       y="5.0234456" />
    <g
       transform="translate(12.445069)"
       id="g869">
      <path
         sodipodi:nodetypes="ssssssssssssssssssssssssssccsccccccsscccc"
         style="fill:url(#linearGradient2177);fill-opacity:1;stroke-width:0.264583"
         d="m 211.05147,146.41697 v 4.7625 c 0,1.74625 -1.42875,3.175 -3.175,3.175 h -49.2125 c -1.74625,0 -3.175,-1.42875 -3.175,-3.175 v -4.7625 c 0,-1.74625 1.42875,-3.175 3.175,-3.175 h 49.2125 c 1.74625,0 3.175,1.42875 3.175,3.175 z m -3.175,19.57917 h -49.2125 c -1.74625,0 -3.175,1.42875 -3.175,3.175 v 5.29166 c 0,1.74625 1.42875,3.175 3.175,3.175 h 49.2125 c 1.74625,0 3.175,-1.42875 3.175,-3.175 v -5.29166 c 0,-1.74625 -1.42875,-3.175 -3.175,-3.175 z m 29.63333,-44.47647 v 80.4598 c 0,7.01145 -5.68854,12.7 -12.7,12.7 h -84.1375 c -7.01146,0 -12.7,-5.68855 -12.7,-12.7 V 99.321133 c 0,-7.01146 5.68854,-12.7 12.7,-12.7 h 61.93896 c 3.36021,0 6.58812,1.34937 8.96937,3.73063 l 22.19855,22.198537 c 2.38125,2.35479 3.73062,5.60916 3.73062,8.96937 z m -34.13394,-24.373891 0.26727,23.342021 22.54023,-0.26727 z M 226.3973,203.56697 V 130.0128 h -26.45834 c -3.51895,0 -6.35,-2.83105 -6.35,-6.35 V 97.204467 H 139.61397 V 203.56697 Z"
         id="path2160" />
      <path
         sodipodi:nodetypes="ccccccscccccccccccc"
         d="M 135.64241,82.524106 88.25564,93.905323 c -6.817595,1.637367 -11.020771,8.496717 -9.383405,15.314307 l 23.973725,99.81975 c 1.63736,6.81758 8.49672,11.02076 15.31431,9.38341 l 11.75639,-2.82361 c -2.68499,-1.87029 -5.04362,-5.58213 -5.04362,-9.07696 v -1.52135 l -10.33683,2.8639 -24.838281,-103.42159 33.360821,-8.545952 c 0.52893,-6.84115 9.16759,-12.064572 12.58366,-13.373122 z m -12.35687,60.965794 -4.31343,1.26917 c -1.69797,0.4078 -2.75338,2.13074 -2.34559,3.8287 l 1.11207,4.63073 c 0.40779,1.69797 2.13074,2.75339 3.82871,2.34559 l 1.71824,-0.64595 z"
         style="fill:url(#linearGradient2177-7);fill-opacity:1;stroke-width:0.264583"
         id="path2160-7" />
    </g>
    <rect
       style="opacity:0.998;fill:none;fill-opacity:1;stroke:url(#linearGradient2272);stroke-width:6.66501;stroke-linecap:square;stroke-miterlimit:4;stroke-dasharray:none;stroke-opacity:0.976471;paint-order:markers stroke fill"
       id="rect2264"
       width="198.05952"
       height="185.96428"
       x="71.429466"
       y="57.668163"
       ry="16.630953" />
  </g>
</svg>
