<?xml version="1.0" encoding="UTF-8" standalone="no"?>
<svg
   xmlns:dc="http://purl.org/dc/elements/1.1/"
   xmlns:cc="http://creativecommons.org/ns#"
   xmlns:rdf="http://www.w3.org/1999/02/22-rdf-syntax-ns#"
   xmlns:svg="http://www.w3.org/2000/svg"
   xmlns="http://www.w3.org/2000/svg"
   xmlns:sodipodi="http://sodipodi.sourceforge.net/DTD/sodipodi-0.dtd"
   xmlns:inkscape="http://www.inkscape.org/namespaces/inkscape"
   inkscape:version="1.0 (4035a4fb49, 2020-05-01)"
   height="512.00006"
   width="636.38226"
   sodipodi:docname="ico-banco.svg"
   id="svg4"
   version="1.1"
   viewBox="0 0 636.38227 512.00006">
  <metadata
     id="metadata10">
    <rdf:RDF>
      <cc:Work
         rdf:about="">
        <dc:format>image/svg+xml</dc:format>
        <dc:type
           rdf:resource="http://purl.org/dc/dcmitype/StillImage" />
        <dc:title></dc:title>
      </cc:Work>
    </rdf:RDF>
  </metadata>
  <defs
     id="defs8" />
  <sodipodi:namedview
     inkscape:current-layer="svg4"
     inkscape:window-maximized="1"
     inkscape:window-y="-8"
     inkscape:window-x="-8"
     inkscape:cy="358.93966"
     inkscape:cx="225.9343"
     inkscape:zoom="0.52539063"
     showgrid="false"
     id="namedview6"
     inkscape:window-height="705"
     inkscape:window-width="1360"
     inkscape:pageshadow="2"
     inkscape:pageopacity="0"
     guidetolerance="10"
     gridtolerance="10"
     objecttolerance="10"
     borderopacity="1"
     bordercolor="#666666"
     pagecolor="#ffffff" />
  <!-- Font Awesome Free 5.15.4 by @fontawesome - https://fontawesome.com License - https://fontawesome.com/license/free (Icons: CC BY 4.0, Fonts: SIL OFL 1.1, Code: MIT License) -->
  <path
     sodipodi:nodetypes="ccccsscscccccccssccccccccccccccsssscsscs"
     d="M 256.07617,8.528459e-5 C 252.21506,-0.00883461 248.38429,0.68201458 244.76953,2.0391478 L 10.380859,92.10946 C 4.1369174,94.451801 4.3865846e-4,100.42109 0,107.08993 v 36.91016 c 0,8.84 7.16,16 16,16 h 96 c -8.84,0 -16,-7.16 -16,-16 v -36.91016 c 4.39e-4,-6.66884 4.13692,-12.63813 10.38086,-14.98047 L 304.00391,16.168054 267.24023,2.0391478 C 263.67033,0.69885892 259.88937,0.00828502 256.07617,8.528459e-5 Z M 64,192.00009 v 160 H 48 c -8.84,0 -16,7.16 -16,16 v 48 h 96 c 1.86218,-73.81715 0,-145.85299 0,-224 z m 148,0 v 198 h 64 v -198 z m 142,0 v 198 h 64 v -198 z m -338,256 c -8.84,0 -16,7.16 -16,16 v 32 c 0,8.84 7.16,16 16,16 h 96 c -8.84,0 -16,-7.16 -16,-16 v -32 c 0,-8.84 7.16,-16 16,-16 z"
     id="path2" />
  <path
     sodipodi:nodetypes="ccccssccccccsccccccccccccscccscccs"
     d="m 380.45312,9.2500853 c -3.86111,-0.00892 -7.69188,0.681929 -11.30664,2.0390617 L 134.75781,101.35947 c -6.24394,2.34234 -10.38042,8.31163 -10.38086,14.98046 v 36.90821 c 0,8.84 7.16,16 16,16 h 31.00586 v -19.91211 c 4.4e-4,-6.66884 4.13692,-12.63813 10.38086,-14.98047 L 416.15234,44.285241 c 7.24328,-2.720137 15.22743,-2.720137 22.47071,0 l 197.7539,75.996099 v -3.94141 c 0,-6.67 -4.1389,-12.64047 -10.3789,-14.98046 L 391.61719,11.289147 C 388.04729,9.9488574 384.26632,9.2582837 380.45312,9.2500853 Z M 508.37695,202.24618 v 159.00196 h -48.99414 v 32.99804 h 96 v -160 h 16.99414 v -32 z m -360,255.00196 c -18.35673,0 -15.91078,18.37918 -15.91078,18.37918 0,0 -0.43204,39.27038 3.52631,35.46644 166.91114,0.39781 499.52945,-1.52416 499.52945,-1.52416 l 0.85502,-32.32146 c 0.18239,-6.89469 -4.27686,-19.60792 -18.48047,-19.00196 H 203.38281 v -0.99804 z"
     id="path841" />
</svg>
