<?xml version="1.0" encoding="UTF-8" standalone="no"?>
<svg
   xmlns:dc="http://purl.org/dc/elements/1.1/"
   xmlns:cc="http://creativecommons.org/ns#"
   xmlns:rdf="http://www.w3.org/1999/02/22-rdf-syntax-ns#"
   xmlns:svg="http://www.w3.org/2000/svg"
   xmlns="http://www.w3.org/2000/svg"
   xmlns:xlink="http://www.w3.org/1999/xlink"
   xmlns:sodipodi="http://sodipodi.sourceforge.net/DTD/sodipodi-0.dtd"
   xmlns:inkscape="http://www.inkscape.org/namespaces/inkscape"
   width="204.72453mm"
   height="192.62929mm"
   viewBox="0 0 204.72453 192.62928"
   version="1.1"
   id="svg1484"
   inkscape:version="1.0 (4035a4fb49, 2020-05-01)"
   sodipodi:docname="ico-tools.svg">
  <defs
     id="defs1478">
    <linearGradient
       inkscape:collect="always"
       id="linearGradient2113">
      <stop
         style="stop-color:#00aee6;stop-opacity:1;"
         offset="0"
         id="stop2109" />
      <stop
         style="stop-color:#00aee6;stop-opacity:0;"
         offset="1"
         id="stop2111" />
    </linearGradient>
    <linearGradient
       inkscape:collect="always"
       id="linearGradient2103">
      <stop
         style="stop-color:#00aee6;stop-opacity:1;"
         offset="0"
         id="stop2099" />
      <stop
         style="stop-color:#00aee6;stop-opacity:0;"
         offset="1"
         id="stop2101" />
    </linearGradient>
    <linearGradient
       inkscape:collect="always"
       id="linearGradient2093">
      <stop
         style="stop-color:#0669f6;stop-opacity:1"
         offset="0"
         id="stop2089" />
      <stop
         style="stop-color:#028dee;stop-opacity:0.48235294"
         offset="1"
         id="stop2091" />
    </linearGradient>
    <linearGradient
       inkscape:collect="always"
       id="linearGradient2070">
      <stop
         style="stop-color:#0669f6;stop-opacity:1"
         offset="0"
         id="stop2066" />
      <stop
         style="stop-color:#00aee6;stop-opacity:0"
         offset="1"
         id="stop2068" />
    </linearGradient>
    <linearGradient
       inkscape:collect="always"
       xlink:href="#linearGradient2070"
       id="linearGradient2076"
       x1="31.328949"
       y1="155.7262"
       x2="212.82043"
       y2="152.70239"
       gradientUnits="userSpaceOnUse" />
    <linearGradient
       inkscape:collect="always"
       xlink:href="#linearGradient2093"
       id="linearGradient2095"
       x1="-50.011524"
       y1="77.594879"
       x2="85.455147"
       y2="77.594879"
       gradientUnits="userSpaceOnUse"
       gradientTransform="translate(170.84523,71.059527)" />
    <linearGradient
       inkscape:collect="always"
       xlink:href="#linearGradient2103"
       id="linearGradient2105"
       x1="-73.074974"
       y1="64.743683"
       x2="36.703114"
       y2="64.743683"
       gradientUnits="userSpaceOnUse" />
    <linearGradient
       inkscape:collect="always"
       xlink:href="#linearGradient2113"
       id="linearGradient2115"
       x1="-106.33689"
       y1="59.074043"
       x2="4.1971545"
       y2="59.074043"
       gradientUnits="userSpaceOnUse" />
    <linearGradient
       gradientTransform="translate(117.13093,65.726179)"
       gradientUnits="userSpaceOnUse"
       y2="77.594879"
       x2="85.455147"
       y1="77.594879"
       x1="-50.011524"
       id="linearGradient2095-1"
       xlink:href="#linearGradient2093"
       inkscape:collect="always" />
  </defs>
  <sodipodi:namedview
     id="base"
     pagecolor="#ffffff"
     bordercolor="#666666"
     borderopacity="1.0"
     inkscape:pageopacity="0.0"
     inkscape:pageshadow="2"
     inkscape:zoom="0.49497475"
     inkscape:cx="395.23474"
     inkscape:cy="190.92183"
     inkscape:document-units="mm"
     inkscape:current-layer="layer1"
     inkscape:document-rotation="0"
     showgrid="false"
     inkscape:window-width="1344"
     inkscape:window-height="728"
     inkscape:window-x="0"
     inkscape:window-y="0"
     inkscape:window-maximized="0" />
  <metadata
     id="metadata1481">
    <rdf:RDF>
      <cc:Work
         rdf:about="">
        <dc:format>image/svg+xml</dc:format>
        <dc:type
           rdf:resource="http://purl.org/dc/dcmitype/StillImage" />
        <dc:title></dc:title>
      </cc:Work>
    </rdf:RDF>
  </metadata>
  <g
     inkscape:label="Layer 1"
     inkscape:groupmode="layer"
     id="layer1"
     transform="translate(-32.490482,-47.006412)">
    <rect
       style="opacity:0.998;fill:none;fill-opacity:1;stroke:url(#linearGradient2105);stroke-width:0.165;stroke-linecap:square;stroke-miterlimit:4;stroke-dasharray:none;stroke-opacity:0;paint-order:markers stroke fill"
       id="rect2097"
       width="109.61309"
       height="108.85714"
       x="-72.992477"
       y="10.315112"
       ry="12.851192" />
    <rect
       style="opacity:0.998;fill:none;fill-opacity:1;stroke:url(#linearGradient2115);stroke-width:3.565;stroke-linecap:square;stroke-miterlimit:4;stroke-dasharray:none;stroke-opacity:0;paint-order:markers stroke fill"
       id="rect2107"
       width="110.36904"
       height="108.1012"
       x="-106.25439"
       y="5.0234456" />
    <path
       sodipodi:nodetypes="cccccccsscsccccccccccccccsscsccccccccccccccccccsccsccccccccccccccsccscccccccscccccccccccsscsccccccccccccccsscscccccccccccc"
       id="path887-4"
       d="m 183.09562,124.12185 -2.16959,3.78354 c -0.79375,1.40229 -2.48708,1.98438 -3.9952,1.42875 -3.12209,-1.16417 -4.46769,-0.94116 -6.98123,-3.03137 -1.21708,-1.00542 -1.53458,-2.77813 -0.74083,-4.15396 l 2.16958,-3.78354 c -1.82562,-2.11667 -3.25437,-4.57729 -4.20687,-7.24958 h -4.36563 c -1.5875,0 -2.96333,-1.13771 -3.22792,-2.72521 -0.52916,-3.175 -1.75833,-8.646906 -1.20271,-11.9542 0.26459,-1.58751 1.64042,-2.75168 3.22792,-2.75168 h 4.36563 c 0.9525,-2.67229 3.58396,-2.994764 5.40958,-5.111424 l -2.16958,-3.78355 c -0.79375,-1.37583 -2.64087,-5.420331 -1.39733,-6.425741 2.51354,-2.09021 5.3975,-3.75709 8.49313,-4.92125 1.50812,-0.55563 3.20145,0.0265 3.9952,1.42875 l 2.23642,2.981741 c 2.77812,-0.50271 5.60916,-0.50271 8.38729,0 l 2.16958,-3.78354 c 0.79375,-1.4023 6.06654,-0.226047 6.06654,-0.226047 3.12208,1.16416 4.39208,4.701927 6.90563,6.792137 1.21708,1.00541 1.53458,2.77812 0.74083,4.15395 l -2.16958,3.78355 c 1.82562,2.11666 2.77054,1.5037 3.72304,4.17599 h 4.36563 c 1.5875,0 2.96333,1.13771 3.22791,2.72522 0.52917,3.175004 -0.84753,9.849614 -1.40317,13.156904 -0.26458,1.5875 -1.64041,2.75167 -3.22791,2.75167 h -4.36563 c -0.9525,2.67229 -0.97808,1.79204 -2.8037,3.90871 l 2.12424,5.26964 c 0.79375,1.37583 0.50271,3.14854 -0.74083,4.15396 -2.51355,2.09021 -3.28083,5.34458 -6.37646,6.50875 -1.50812,0.55563 -3.20146,-0.0265 -3.99521,-1.42875 l -2.16958,-3.78354 c -2.75167,0.50271 -7.12107,-1.38717 -9.89919,-1.88988 z m -3.33756,-16.74121 c 11.52281,3.02081 23.873,-0.70995 16.04133,-10.896424 -10.18646,-7.85813 -23.87299,0.709964 -16.04133,10.896424 z m -28.43513,43.79296 8.91646,4.445 c 2.67229,1.53459 3.83646,6.39258 2.77813,9.303 -2.35479,6.40292 -5.11411,11.47486 -9.40036,16.60777 -1.95792,2.35479 -7.21548,2.13507 -9.88777,0.60048 l -7.69937,-4.445 c -4.23334,3.6248 -12.32959,6.50875 -17.70063,8.3873 v 8.89 c 0,3.06916 -2.19604,5.715 -5.21229,6.24416 -6.50875,1.11125 -10.16,1.16417 -16.906875,0 -3.04271,-0.52916 -5.29166,-3.14854 -5.29166,-6.24416 v -8.89 c -5.371055,-1.905 -10.292305,-4.7625 -14.525633,-8.3873 l -7.699371,4.41855 c -2.64584,1.53458 -6.05896,0.9525 -8.01688,-1.4023 -4.28625,-5.13291 -8.81062,-11.00666 -11.16542,-17.38312 -1.05833,-2.88396 -2.351005,-7.36675 0.321285,-8.9278 l 8.81062,-4.445 c -1.03187,-5.52979 1.424975,-9.98991 2.456845,-15.54616 l -8.81062,-4.47146 c -2.67229,-1.53458 -3.86292,-4.78896 -2.77813,-7.67292 2.3548,-6.40291 6.87917,-12.27666 11.16542,-17.40958 1.95792,-2.35479 5.34458,-2.93687 8.01688,-1.40229 l 5.628035,1.3714 c 4.233328,-3.62479 9.154575,-6.50875 14.52563,-8.387294 l 2.071339,-5.84287 c 1.016668,-2.867834 2.16957,-5.68854 5.18582,-6.21771 6.508745,-1.11125 13.361465,-1.16417 20.108345,-0.0265 3.04271,0.52917 5.29166,3.14854 5.29166,6.24417 v 8.89001 c 5.37104,1.905004 8.22096,1.688904 12.4543,5.313694 l 8.43435,-4.0441 c 2.64584,-1.534575 7.39531,1.7202 9.35323,4.07499 4.28625,5.13292 8.78416,11.00667 11.13896,17.40958 1.05834,2.88396 0.0264,6.13834 -2.64584,7.69938 l -8.91646,4.445 c 1.03188,5.55625 1.03188,11.24479 0,16.80104 z m -33.18634,2.50912 c 15.66334,-20.37291 -7.66036,-40.68983 -28.033271,-25.0265 -15.663335,20.37292 7.660357,40.68984 28.033271,25.0265 z m 66.47093,51.41297 -2.16959,3.78354 c -0.79375,1.40229 -2.48708,1.98437 -3.9952,1.42875 -3.12209,-1.16417 -5.97959,-2.83104 -8.49313,-4.92125 -1.21708,-1.00542 -1.53458,-2.77813 -0.74083,-4.15396 l 2.16958,-3.78354 c -1.82562,-2.11667 -3.25437,-4.57729 -4.20687,-7.24958 h -4.36563 c -1.5875,0 -2.96333,-1.13771 -3.22792,-2.72521 -0.52916,-3.175 -1.35743,-8.37964 -0.80181,-11.68693 0.26459,-1.5875 1.64042,-2.75167 3.22792,-2.75167 h 4.36563 c 0.9525,-2.67229 3.18306,-3.26203 5.00868,-5.37869 l -2.16958,-3.78355 c -0.79375,-1.37583 -1.70542,-5.95487 -0.46188,-6.96028 2.51354,-2.09021 5.3975,-3.75709 8.49313,-4.92125 1.50812,-0.55563 4.40416,2.83273 5.19791,4.23508 l 0.0983,0.70995 c 2.77812,-0.50271 5.60916,-0.50271 8.38729,0 l 2.16958,-3.78354 c 0.79375,-1.4023 4.29115,-0.1135 5.79927,0.44213 3.12208,1.16416 4.65935,4.03375 7.1729,6.12396 1.21708,1.00541 1.53458,2.77812 0.74083,4.15395 l -2.16958,3.78355 c 1.82562,2.11666 2.77054,1.5037 3.72304,4.17599 h 4.36563 c 1.5875,0 2.96333,1.13771 3.22791,2.72521 0.52917,3.175 -0.0189,9.58234 -0.5745,12.88963 -0.26458,1.5875 -1.64041,2.75167 -3.22791,2.75167 h -4.36563 c -0.9525,2.67229 -2.38125,5.13291 -4.20687,7.24958 l 2.16958,3.78354 c 0.79375,1.37583 0.50271,3.14854 -0.74083,4.15396 -2.51355,2.09021 -2.75167,3.75708 -5.8473,4.92125 -1.50812,0.55562 -3.20146,-0.0265 -3.99521,-1.42875 l -2.16958,-3.78354 c -2.75167,0.50271 -5.60917,0.50271 -8.38729,0 z m -2.77813,-15.58396 c 10.18646,7.83167 21.80167,-3.78354 13.97,-13.97 -10.18646,-7.83167 -21.80166,3.78354 -13.97,13.97 z"
       style="fill:#ff8b16;fill-opacity:1;stroke-width:0.264583" />
  </g>
  <g
     sodipodi:insensitive="true"
     inkscape:label="Layer 2"
     id="layer2"
     inkscape:groupmode="layer">
    <path
       transform="translate(-32.490481,-47.006412)"
       style="fill:#cccccc;stroke-width:0.264583"
       d="m 180.97515,128.95929 -2.16959,3.78354 c -0.79375,1.40229 -2.48708,1.98438 -3.9952,1.42875 -3.12209,-1.16417 -5.97959,-2.83104 -8.49313,-4.92125 -1.21708,-1.00542 -1.53458,-2.77813 -0.74083,-4.15396 l 2.16958,-3.78354 c -1.82562,-2.11667 -3.25437,-4.57729 -4.20687,-7.24958 h -4.36563 c -1.5875,0 -2.96333,-1.13771 -3.22792,-2.72521 -0.52916,-3.175 -0.55562,-6.50875 0,-9.81604 0.26459,-1.587503 1.64042,-2.751673 3.22792,-2.751673 h 4.36563 c 0.9525,-2.672293 2.38125,-5.132923 4.20687,-7.249583 l -2.16958,-3.78355 c -0.79375,-1.37583 -0.50271,-3.14854 0.74083,-4.15395 2.51354,-2.09021 5.3975,-3.75709 8.49313,-4.92125 1.50812,-0.55563 3.20145,0.0265 3.9952,1.42875 l 2.16959,3.78354 c 2.77812,-0.50271 5.60916,-0.50271 8.38729,0 l 2.16958,-3.78354 c 0.79375,-1.4023 2.48709,-1.98438 3.99521,-1.42875 3.12208,1.16416 5.97958,2.83104 8.49313,4.92125 1.21708,1.00541 1.53458,2.77812 0.74083,4.15395 l -2.16958,3.78355 c 1.82562,2.11666 3.25437,4.57729 4.20687,7.249583 h 4.36563 c 1.5875,0 2.96333,1.13771 3.22791,2.725213 0.52917,3.175 0.55563,6.50875 0,9.81604 -0.26458,1.5875 -1.64041,2.75167 -3.22791,2.75167 h -4.36563 c -0.9525,2.67229 -2.38125,5.13291 -4.20687,7.24958 l 2.16958,3.78354 c 0.79375,1.37583 0.50271,3.14854 -0.74083,4.15396 -2.51355,2.09021 -5.3975,3.75708 -8.49313,4.92125 -1.50812,0.55563 -3.20146,-0.0265 -3.99521,-1.42875 l -2.16958,-3.78354 c -2.75167,0.50271 -5.60917,0.50271 -8.38729,0 z m -2.77813,-15.5575 c 10.18646,7.83166 21.80167,-3.78354 13.97,-13.970003 -10.18646,-7.858133 -21.80166,3.783543 -13.97,13.970003 z m -30.50646,40.71937 8.91646,4.445 c 2.67229,1.53459 3.83646,4.78896 2.77813,7.69938 -2.35479,6.40292 -6.985,12.27667 -11.27125,17.40958 -1.95792,2.35479 -5.34459,2.93688 -8.01688,1.40229 l -7.69937,-4.445 c -4.23334,3.6248 -9.15459,6.50875 -14.52563,8.3873 v 8.89 c 0,3.06916 -2.19604,5.715 -5.21229,6.24416 -6.50875,1.11125 -13.335004,1.16417 -20.081884,0 -3.04271,-0.52916 -5.29166,-3.14854 -5.29166,-6.24416 v -8.89 c -5.37105,-1.905 -10.2923,-4.7625 -14.52563,-8.3873 l -7.69937,4.41855 c -2.64584,1.53458 -6.05896,0.9525 -8.01688,-1.4023 -4.28625,-5.13291 -8.81062,-11.00666 -11.16542,-17.38312 -1.05833,-2.88396 0.10584,-6.13833 2.77813,-7.69938 l 8.81062,-4.445 c -1.03187,-5.52979 -1.03187,-11.21833 0,-16.77458 l -8.81062,-4.47146 c -2.67229,-1.53458 -3.86292,-4.78896 -2.77813,-7.67292 2.3548,-6.40291 6.87917,-12.27666 11.16542,-17.40958 1.95792,-2.35479 5.34458,-2.93687 8.01688,-1.40229 l 7.69937,4.445 c 4.23333,-3.62479 9.15458,-6.50875 14.52563,-8.38729 v -8.916466 c 0,-3.04271 2.16958,-5.68854 5.18583,-6.21771 6.50875,-1.11125 13.361464,-1.16417 20.108334,-0.0265 3.04271,0.52917 5.29167,3.14854 5.29167,6.24417 v 8.890006 c 5.37104,1.905 10.29229,4.7625 14.52563,8.38729 l 7.69937,-4.445 c 2.64584,-1.53458 6.05896,-0.9525 8.01688,1.40229 4.28625,5.13292 8.78416,11.00667 11.13896,17.40958 1.05833,2.88396 0.0264,6.13834 -2.64584,7.69938 l -8.91646,4.445 c 1.03188,5.55625 1.03188,11.24479 0,16.80104 z m -31.115,5.58271 c 15.66334,-20.37291 -7.59354,-43.62979 -27.966464,-27.96646 -15.66333,20.37292 7.59354,43.6298 27.966464,27.96646 z m 64.39959,48.33938 -2.16959,3.78354 c -0.79375,1.40229 -2.48708,1.98437 -3.9952,1.42875 -3.12209,-1.16417 -5.97959,-2.83104 -8.49313,-4.92125 -1.21708,-1.00542 -1.53458,-2.77813 -0.74083,-4.15396 l 2.16958,-3.78354 c -1.82562,-2.11667 -3.25437,-4.57729 -4.20687,-7.24958 h -4.36563 c -1.5875,0 -2.96333,-1.13771 -3.22792,-2.72521 -0.52916,-3.175 -0.55562,-6.50875 0,-9.81604 0.26459,-1.5875 1.64042,-2.75167 3.22792,-2.75167 h 4.36563 c 0.9525,-2.67229 2.38125,-5.13292 4.20687,-7.24958 l -2.16958,-3.78355 c -0.79375,-1.37583 -0.50271,-3.14854 0.74083,-4.15395 2.51354,-2.09021 5.3975,-3.75709 8.49313,-4.92125 1.50812,-0.55563 3.20145,0.0264 3.9952,1.42875 l 2.16959,3.78354 c 2.77812,-0.50271 5.60916,-0.50271 8.38729,0 l 2.16958,-3.78354 c 0.79375,-1.4023 2.48709,-1.98438 3.99521,-1.42875 3.12208,1.16416 5.97958,2.83104 8.49313,4.92125 1.21708,1.00541 1.53458,2.77812 0.74083,4.15395 l -2.16958,3.78355 c 1.82562,2.11666 3.25437,4.57729 4.20687,7.24958 h 4.36563 c 1.5875,0 2.96333,1.13771 3.22791,2.72521 0.52917,3.175 0.55563,6.50875 0,9.81604 -0.26458,1.5875 -1.64041,2.75167 -3.22791,2.75167 h -4.36563 c -0.9525,2.67229 -2.38125,5.13291 -4.20687,7.24958 l 2.16958,3.78354 c 0.79375,1.37583 0.50271,3.14854 -0.74083,4.15396 -2.51355,2.09021 -5.3975,3.75708 -8.49313,4.92125 -1.50812,0.55562 -3.20146,-0.0265 -3.99521,-1.42875 l -2.16958,-3.78354 c -2.75167,0.50271 -5.60917,0.50271 -8.38729,0 z m -2.77813,-15.58396 c 10.18646,7.83167 21.80167,-3.78354 13.97,-13.97 -10.18646,-7.83167 -21.80166,3.78354 -13.97,13.97 z"
       id="path887" />
    <path
       id="path887-5"
       d="m 182.53619,122.93814 -2.16959,3.78354 c -0.79375,1.40229 -2.48708,1.98438 -3.9952,1.42875 -3.12209,-1.16417 -5.97959,-2.83104 -8.49313,-4.92126 -1.21708,-1.00541 -1.53458,-2.77812 -0.74083,-4.15395 l 2.16958,-3.78355 c -1.82562,-2.11666 -3.25437,-4.57728 -4.20687,-7.24958 h -4.36563 c -1.5875,0 -2.96333,-1.1377 -3.22792,-2.7252 -0.52916,-3.175 -0.55562,-6.508759 0,-9.816054 0.26459,-1.5875 1.64042,-2.75167 3.22792,-2.75167 h 4.36563 c 0.9525,-2.67229 2.38125,-5.13292 4.20687,-7.24958 l -2.16958,-3.78355 c -0.79375,-1.37583 -0.50271,-3.14854 0.74083,-4.15395 2.51354,-2.09021 5.3975,-3.75709 8.49313,-4.92125 1.50812,-0.55563 3.20145,0.0265 3.9952,1.42875 l 2.16959,3.78354 c 2.77812,-0.50271 5.60916,-0.50271 8.38729,0 l 2.16958,-3.78354 c 0.79375,-1.4023 2.48709,-1.98438 3.99521,-1.42875 3.12208,1.16416 5.97958,2.83104 8.49313,4.92125 1.21708,1.00541 1.53458,2.77812 0.74083,4.15395 l -2.16958,3.78355 c 1.82562,2.11666 3.25437,4.57729 4.20687,7.24958 h 4.36563 c 1.5875,0 2.96333,1.13771 3.22791,2.72521 0.52917,3.175005 0.55563,6.508764 0,9.816044 -0.26458,1.5875 -1.64041,2.75167 -3.22791,2.75167 h -4.36563 c -0.9525,2.6723 -2.38125,5.13292 -4.20687,7.24958 l 2.16958,3.78355 c 0.79375,1.37583 0.50271,3.14854 -0.74083,4.15395 -2.51355,2.09022 -5.3975,3.75709 -8.49313,4.92126 -1.50812,0.55563 -3.20146,-0.0265 -3.99521,-1.42875 l -2.16958,-3.78354 c -2.75167,0.50271 -5.60917,0.50271 -8.38729,0 z m -2.77813,-15.5575 c 10.18646,7.83166 21.80167,-3.78355 13.97,-13.970014 -10.18646,-7.85813 -21.80166,3.78354 -13.97,13.970014 z m -30.50646,40.71937 8.91646,4.445 c 2.67229,1.53459 3.83646,4.78896 2.77813,7.69938 -2.35479,6.40292 -6.985,12.27667 -11.27125,17.40958 -1.95792,2.35479 -5.34459,2.93688 -8.01688,1.40229 l -7.69937,-4.445 c -4.23334,3.6248 -9.15459,6.50875 -14.52564,8.3873 v 8.89 c 0,3.06916 -2.19604,5.715 -5.21228,6.24416 -6.50875,1.11125 -13.335,1.16417 -20.081883,0 -3.042712,-0.52916 -5.291662,-3.14854 -5.291662,-6.24416 v -8.89 c -5.371052,-1.905 -10.292302,-4.7625 -14.52563,-8.3873 l -7.699371,4.41855 c -2.64584,1.53458 -6.05896,0.9525 -8.01688,-1.4023 -4.28625,-5.13291 -8.81062,-11.00666 -11.16542,-17.38312 -1.05833,-2.88396 0.10584,-6.13833 2.77813,-7.69938 l 8.81062,-4.445 c -1.03187,-5.52979 -1.03187,-11.21833 0,-16.77458 l -8.81062,-4.47146 c -2.67229,-1.53458 -3.86292,-4.78896 -2.77813,-7.67292 2.3548,-6.40291 6.87917,-12.27666 11.16542,-17.40959 1.95792,-2.354789 5.34458,-2.936869 8.01688,-1.40229 l 7.699371,4.445 c 4.233328,-3.62478 9.154578,-6.508754 14.52563,-8.387294 v -8.91646 c 0,-3.04271 2.169578,-5.68854 5.185832,-6.21771 6.508753,-1.11125 13.361463,-1.16417 20.108333,-0.0265 3.0427,0.52917 5.29166,3.14854 5.29166,6.24417 v 8.89 c 5.37105,1.905 10.2923,4.762504 14.52564,8.387294 l 7.69937,-4.445 c 2.64584,-1.534579 6.05896,-0.952499 8.01688,1.4023 4.28625,5.13291 8.78416,11.00666 11.13896,17.40958 1.05833,2.88395 0.0264,6.13833 -2.64584,7.69938 l -8.91646,4.445 c 1.03188,5.55625 1.03188,11.24479 0,16.80104 z m -31.11501,5.58271 c 15.66335,-20.37291 -7.59353,-43.6298 -27.966456,-27.96646 -15.663331,20.37292 7.593543,43.6298 27.966456,27.96646 z m 64.3996,48.33938 -2.16959,3.78354 c -0.79375,1.40229 -2.48708,1.98437 -3.9952,1.42875 -3.12209,-1.16417 -5.97959,-2.83104 -8.49313,-4.92125 -1.21708,-1.00542 -1.53458,-2.77813 -0.74083,-4.15396 l 2.16958,-3.78354 c -1.82562,-2.11667 -3.25437,-4.57729 -4.20687,-7.24958 h -4.36563 c -1.5875,0 -2.96333,-1.13771 -3.22792,-2.72521 -0.52916,-3.175 -0.55562,-6.50875 0,-9.81604 0.26459,-1.5875 1.64042,-2.75167 3.22792,-2.75167 h 4.36563 c 0.9525,-2.67229 2.38125,-5.13292 4.20687,-7.24958 l -2.16958,-3.78355 c -0.79375,-1.37583 -0.50271,-3.14854 0.74083,-4.15395 2.51354,-2.09021 5.3975,-3.75709 8.49313,-4.92125 1.50812,-0.55563 3.20145,0.0264 3.9952,1.42875 l 2.16959,3.78354 c 2.77812,-0.50271 5.60916,-0.50271 8.38729,0 l 2.16958,-3.78354 c 0.79375,-1.4023 2.48709,-1.98438 3.99521,-1.42875 3.12208,1.16416 5.97958,2.83104 8.49313,4.92125 1.21708,1.00541 1.53458,2.77812 0.74083,4.15395 l -2.16958,3.78355 c 1.82562,2.11666 3.25437,4.57729 4.20687,7.24958 h 4.36563 c 1.5875,0 2.96333,1.13771 3.22791,2.72521 0.52917,3.175 0.55563,6.50875 0,9.81604 -0.26458,1.5875 -1.64041,2.75167 -3.22791,2.75167 h -4.36563 c -0.9525,2.67229 -2.38125,5.13291 -4.20687,7.24958 l 2.16958,3.78354 c 0.79375,1.37583 0.50271,3.14854 -0.74083,4.15396 -2.51355,2.09021 -5.3975,3.75708 -8.49313,4.92125 -1.50812,0.55562 -3.20146,-0.0265 -3.99521,-1.42875 l -2.16958,-3.78354 c -2.75167,0.50271 -5.60917,0.50271 -8.38729,0 z m -2.77813,-15.58396 c 10.18646,7.83167 21.80167,-3.78354 13.97,-13.97 -10.18646,-7.83167 -21.80166,3.78354 -13.97,13.97 z"
       style="fill:none;fill-opacity:1;stroke:#000000;stroke-width:3.565;stroke-linecap:round;stroke-linejoin:round;stroke-miterlimit:4;stroke-dasharray:none;stroke-opacity:1"
       transform="translate(-32.490481,-47.006412)" />
  </g>
</svg>
