<?xml version="1.0" encoding="UTF-8" standalone="no"?>
<svg
   xmlns:dc="http://purl.org/dc/elements/1.1/"
   xmlns:cc="http://creativecommons.org/ns#"
   xmlns:rdf="http://www.w3.org/1999/02/22-rdf-syntax-ns#"
   xmlns:svg="http://www.w3.org/2000/svg"
   xmlns="http://www.w3.org/2000/svg"
   xmlns:sodipodi="http://sodipodi.sourceforge.net/DTD/sodipodi-0.dtd"
   xmlns:inkscape="http://www.inkscape.org/namespaces/inkscape"
   sodipodi:docname="logo-pix.svg"
   inkscape:version="1.0 (4035a4fb49, 2020-05-01)"
   id="svg841"
   version="1.1"
   viewBox="0 0 15.875 15.866028"
   height="15.866028mm"
   width="15.875mm">
  <defs
     id="defs835" />
  <sodipodi:namedview
     inkscape:window-maximized="0"
     inkscape:window-y="0"
     inkscape:window-x="0"
     inkscape:window-height="728"
     inkscape:window-width="1360"
     showgrid="false"
     inkscape:document-rotation="0"
     inkscape:current-layer="layer1"
     inkscape:document-units="mm"
     inkscape:cy="174.02873"
     inkscape:cx="88.612802"
     inkscape:zoom="0.49497475"
     inkscape:pageshadow="2"
     inkscape:pageopacity="0.0"
     borderopacity="1.0"
     bordercolor="#666666"
     pagecolor="#ffffff"
     id="base" />
  <metadata
     id="metadata838">
    <rdf:RDF>
      <cc:Work
         rdf:about="">
        <dc:format>image/svg+xml</dc:format>
        <dc:type
           rdf:resource="http://purl.org/dc/dcmitype/StillImage" />
        <dc:title></dc:title>
      </cc:Work>
    </rdf:RDF>
  </metadata>
  <g
     transform="translate(-63.431109,-29.525353)"
     id="layer1"
     inkscape:groupmode="layer"
     inkscape:label="Layer 1">
    <path
       sodipodi:nodetypes="ccsscccccccscccscsccccccsccsccccscsscc"
       id="path1418"
       d="m 66.741168,33.208003 c 1.511202,0.03119 2.303532,0.991056 3.309796,1.99729 0.321222,0.321222 0.93576,1.216179 1.426636,1.216179 0.477525,0 1.058165,-0.847706 1.369571,-1.159112 0.960926,-0.960926 1.739983,-1.997292 3.195667,-1.997292 -0.293602,-0.629563 -1.051945,-1.166077 -1.540768,-1.6549 -0.671603,-0.67162 -1.361295,-1.603436 -2.282618,-1.935072 -1.739012,-0.625957 -2.847053,0.844585 -3.937516,1.935072 -0.511575,0.511571 -1.12386,1.005986 -1.540768,1.597835 m -0.798917,0.800503 c -0.348128,0.17406 -0.640686,0.582022 -0.913047,0.854394 -0.717988,0.717999 -1.518357,1.367803 -1.592725,2.453817 -0.08305,1.212754 0.813096,1.959514 1.592725,2.739143 0.274347,0.274369 0.598297,0.741507 0.970113,0.878637 0.330984,0.122006 0.907174,0.06191 1.25544,0.02448 1.178019,-0.12657 2.128314,-1.547729 2.910339,-2.329755 0.409672,-0.409672 0.83504,-0.950767 1.4837,-0.829218 0.484886,0.09085 0.809874,0.497782 1.14131,0.829218 0.946145,0.946145 1.856567,2.339114 3.309797,2.339685 0.231116,1.15e-4 0.528827,0.04788 0.741852,-0.05866 0.389299,-0.194651 0.722105,-0.663444 1.027179,-0.968515 1.021756,-1.021756 1.985535,-2.318113 1.070377,-3.766321 -0.287554,-0.455041 -0.692548,-0.820544 -1.070377,-1.198375 -0.716687,-0.716685 -1.069407,-1.095172 -2.111424,-1.022071 -1.208189,0.08476 -2.173337,1.540511 -2.967404,2.334577 -0.404765,0.404766 -0.843143,0.946603 -1.483702,0.837208 -0.508396,-0.08691 -0.854498,-0.550398 -1.198375,-0.894274 -1.000647,-1.000642 -1.847362,-2.282619 -3.366861,-2.282619 -0.24601,0 -0.572425,-0.05459 -0.798917,0.05865 m 0.741852,7.645186 c 0.416908,0.591825 1.029197,1.08624 1.540766,1.597832 1.094917,1.094915 2.241533,2.623188 3.994583,1.992158 0.917783,-0.330351 1.613525,-1.265998 2.282618,-1.935091 0.488823,-0.488822 1.247166,-1.025353 1.540768,-1.654899 -1.455684,0 -2.234741,-1.036366 -3.195667,-1.997292 -0.311406,-0.311406 -0.892046,-1.159113 -1.369571,-1.159113 -0.504002,0 -1.152721,0.942265 -1.4837,1.273244 -1.040281,1.040303 -1.773977,1.883161 -3.309797,1.883161"
       style="fill:#32bcad;fill-opacity:1;stroke:none;stroke-width:0.0570654" />
  </g>
</svg>
